<svg width="375" height="822" viewBox="0 0 375 822" fill="none" xmlns="http://www.w3.org/2000/svg">
<g clip-path="url(#clip0_1454_1025)">
<rect width="375" height="822" fill="white"/>
<rect x="299" y="356" width="85" height="37" rx="12" fill="white"/>
<rect y="-1" width="375" height="823" fill="#222831"/>
<path d="M28.916 29L43.0827 29M28.916 29L34.5827 23.3333M28.916 29L34.5827 34.6666" stroke="white" stroke-width="1.5" stroke-linecap="round" stroke-linejoin="round"/>
<rect x="99" y="26" width="30" height="5" rx="2.5" fill="#FF2E63"/>
<rect x="136" y="26" width="30" height="5" rx="2.5" fill="#FF2E63"/>
<rect x="173" y="26" width="30" height="5" rx="2.5" fill="#FF2E63"/>
<rect x="210" y="26" width="30" height="5" rx="2.5" fill="#FF2E63"/>
<rect x="247" y="26" width="30" height="5" rx="2.5" fill="#FF2E63"/>
<path d="M63.496 116.176C62.664 116.176 61.8907 116.032 61.176 115.744C60.4613 115.445 59.832 115.035 59.288 114.512C58.7547 113.979 58.3333 113.365 58.024 112.672C57.7253 111.968 57.576 111.211 57.576 110.4C57.576 109.589 57.7253 108.837 58.024 108.144C58.3333 107.44 58.7547 106.827 59.288 106.304C59.832 105.771 60.4613 105.36 61.176 105.072C61.8907 104.773 62.664 104.624 63.496 104.624C64.328 104.624 65.1013 104.773 65.816 105.072C66.5413 105.36 67.1707 105.771 67.704 106.304C68.248 106.827 68.6693 107.44 68.968 108.144C69.2667 108.837 69.416 109.589 69.416 110.4C69.416 111.211 69.2667 111.968 68.968 112.672C68.6693 113.365 68.248 113.979 67.704 114.512C67.1707 115.035 66.5413 115.445 65.816 115.744C65.1013 116.032 64.328 116.176 63.496 116.176ZM63.496 114.048C64.008 114.048 64.4773 113.957 64.904 113.776C65.3307 113.584 65.704 113.328 66.024 113.008C66.344 112.677 66.5947 112.288 66.776 111.84C66.9573 111.392 67.048 110.912 67.048 110.4C67.048 109.877 66.9573 109.397 66.776 108.96C66.5947 108.512 66.344 108.128 66.024 107.808C65.704 107.477 65.3307 107.221 64.904 107.04C64.4773 106.848 64.008 106.752 63.496 106.752C62.9947 106.752 62.5307 106.848 62.104 107.04C61.6773 107.221 61.304 107.477 60.984 107.808C60.664 108.128 60.4133 108.512 60.232 108.96C60.0507 109.397 59.96 109.872 59.96 110.384C59.96 110.907 60.0507 111.392 60.232 111.84C60.4133 112.288 60.664 112.677 60.984 113.008C61.304 113.328 61.6773 113.584 62.104 113.776C62.5307 113.957 62.9947 114.048 63.496 114.048ZM73.1196 116V107.664H75.3116V108.352C75.941 107.787 76.7196 107.504 77.6476 107.504C78.2983 107.504 78.869 107.648 79.3596 107.936C79.861 108.213 80.2503 108.603 80.5276 109.104C80.805 109.595 80.9436 110.171 80.9436 110.832V116H78.7516V111.152C78.7516 110.608 78.597 110.181 78.2876 109.872C77.9783 109.552 77.557 109.392 77.0236 109.392C76.6503 109.392 76.3196 109.467 76.0316 109.616C75.7436 109.755 75.5036 109.957 75.3116 110.224V116H73.1196ZM88.924 116.16C88.092 116.16 87.3347 115.968 86.652 115.584C85.98 115.2 85.4467 114.683 85.052 114.032C84.6573 113.381 84.46 112.651 84.46 111.84C84.46 111.029 84.6467 110.299 85.02 109.648C85.404 108.997 85.9213 108.48 86.572 108.096C87.2227 107.712 87.948 107.52 88.748 107.52C89.548 107.52 90.2573 107.717 90.876 108.112C91.4947 108.507 91.98 109.04 92.332 109.712C92.6947 110.384 92.876 111.147 92.876 112V112.576H86.7C86.796 112.907 86.9507 113.205 87.164 113.472C87.388 113.739 87.66 113.947 87.98 114.096C88.3107 114.245 88.6627 114.32 89.036 114.32C89.4093 114.32 89.7507 114.261 90.06 114.144C90.38 114.027 90.652 113.861 90.876 113.648L92.316 114.96C91.804 115.376 91.276 115.68 90.732 115.872C90.1987 116.064 89.596 116.16 88.924 116.16ZM86.668 111.008H90.716C90.6413 110.677 90.5027 110.389 90.3 110.144C90.108 109.888 89.8733 109.691 89.596 109.552C89.3293 109.403 89.0307 109.328 88.7 109.328C88.3587 109.328 88.0493 109.397 87.772 109.536C87.4947 109.675 87.26 109.872 87.068 110.128C86.8867 110.373 86.7533 110.667 86.668 111.008ZM101.918 116V104.8L104.11 104.432V116H101.918ZM110.72 116.144C110.123 116.144 109.595 116.037 109.136 115.824C108.677 115.6 108.32 115.296 108.064 114.912C107.808 114.528 107.68 114.085 107.68 113.584C107.68 112.784 107.979 112.165 108.576 111.728C109.184 111.28 110.016 111.056 111.072 111.056C111.797 111.056 112.48 111.168 113.12 111.392V110.784C113.12 110.304 112.971 109.941 112.672 109.696C112.373 109.451 111.936 109.328 111.36 109.328C111.008 109.328 110.629 109.387 110.224 109.504C109.819 109.611 109.349 109.781 108.816 110.016L108.016 108.4C108.677 108.101 109.307 107.877 109.904 107.728C110.512 107.579 111.12 107.504 111.728 107.504C112.848 107.504 113.717 107.776 114.336 108.32C114.965 108.853 115.28 109.611 115.28 110.592V116H113.12V115.408C112.779 115.664 112.411 115.851 112.016 115.968C111.621 116.085 111.189 116.144 110.72 116.144ZM109.76 113.536C109.76 113.856 109.899 114.112 110.176 114.304C110.453 114.485 110.821 114.576 111.28 114.576C111.643 114.576 111.979 114.533 112.288 114.448C112.597 114.352 112.875 114.213 113.12 114.032V112.816C112.853 112.709 112.576 112.629 112.288 112.576C112 112.523 111.691 112.496 111.36 112.496C110.859 112.496 110.464 112.592 110.176 112.784C109.899 112.965 109.76 113.216 109.76 113.536ZM122.299 116.16C121.531 116.16 120.822 116.064 120.171 115.872C119.52 115.669 118.955 115.381 118.475 115.008L119.563 113.552C120.043 113.872 120.502 114.112 120.939 114.272C121.387 114.432 121.83 114.512 122.267 114.512C122.758 114.512 123.147 114.432 123.435 114.272C123.734 114.101 123.883 113.883 123.883 113.616C123.883 113.403 123.798 113.232 123.627 113.104C123.467 112.976 123.206 112.885 122.843 112.832L121.243 112.592C120.411 112.464 119.782 112.197 119.355 111.792C118.928 111.376 118.715 110.832 118.715 110.16C118.715 109.616 118.854 109.152 119.131 108.768C119.419 108.373 119.819 108.069 120.331 107.856C120.854 107.632 121.472 107.52 122.187 107.52C122.795 107.52 123.387 107.605 123.963 107.776C124.55 107.947 125.099 108.208 125.611 108.56L124.555 109.984C124.096 109.696 123.659 109.488 123.243 109.36C122.827 109.232 122.406 109.168 121.979 109.168C121.584 109.168 121.264 109.243 121.019 109.392C120.784 109.541 120.667 109.739 120.667 109.984C120.667 110.208 120.752 110.384 120.923 110.512C121.094 110.64 121.387 110.731 121.803 110.784L123.387 111.024C124.219 111.141 124.854 111.408 125.291 111.824C125.728 112.229 125.947 112.757 125.947 113.408C125.947 113.941 125.787 114.416 125.467 114.832C125.147 115.237 124.715 115.563 124.171 115.808C123.627 116.043 123.003 116.16 122.299 116.16ZM133.074 116.128C132.146 116.128 131.442 115.92 130.962 115.504C130.493 115.077 130.258 114.459 130.258 113.648V109.488H128.546V107.664H130.258V105.536L132.45 105.04V107.664H134.834V109.488H132.45V113.2C132.45 113.584 132.535 113.861 132.706 114.032C132.877 114.192 133.175 114.272 133.602 114.272C133.815 114.272 134.007 114.261 134.178 114.24C134.359 114.208 134.557 114.155 134.77 114.08V115.888C134.546 115.963 134.263 116.021 133.922 116.064C133.591 116.107 133.309 116.128 133.074 116.128ZM146.722 116.16C145.954 116.16 145.245 116.064 144.594 115.872C143.943 115.669 143.378 115.381 142.898 115.008L143.986 113.552C144.466 113.872 144.925 114.112 145.362 114.272C145.81 114.432 146.253 114.512 146.69 114.512C147.181 114.512 147.57 114.432 147.858 114.272C148.157 114.101 148.306 113.883 148.306 113.616C148.306 113.403 148.221 113.232 148.05 113.104C147.89 112.976 147.629 112.885 147.266 112.832L145.666 112.592C144.834 112.464 144.205 112.197 143.778 111.792C143.351 111.376 143.138 110.832 143.138 110.16C143.138 109.616 143.277 109.152 143.554 108.768C143.842 108.373 144.242 108.069 144.754 107.856C145.277 107.632 145.895 107.52 146.61 107.52C147.218 107.52 147.81 107.605 148.386 107.776C148.973 107.947 149.522 108.208 150.034 108.56L148.978 109.984C148.519 109.696 148.082 109.488 147.666 109.36C147.25 109.232 146.829 109.168 146.402 109.168C146.007 109.168 145.687 109.243 145.442 109.392C145.207 109.541 145.09 109.739 145.09 109.984C145.09 110.208 145.175 110.384 145.346 110.512C145.517 110.64 145.81 110.731 146.226 110.784L147.81 111.024C148.642 111.141 149.277 111.408 149.714 111.824C150.151 112.229 150.37 112.757 150.37 113.408C150.37 113.941 150.21 114.416 149.89 114.832C149.57 115.237 149.138 115.563 148.594 115.808C148.05 116.043 147.426 116.16 146.722 116.16ZM157.497 116.128C156.569 116.128 155.865 115.92 155.385 115.504C154.916 115.077 154.681 114.459 154.681 113.648V109.488H152.969V107.664H154.681V105.536L156.873 105.04V107.664H159.257V109.488H156.873V113.2C156.873 113.584 156.959 113.861 157.129 114.032C157.3 114.192 157.599 114.272 158.025 114.272C158.239 114.272 158.431 114.261 158.601 114.24C158.783 114.208 158.98 114.155 159.193 114.08V115.888C158.969 115.963 158.687 116.021 158.345 116.064C158.015 116.107 157.732 116.128 157.497 116.128ZM166.553 116.16C165.721 116.16 164.963 115.968 164.281 115.584C163.609 115.2 163.075 114.683 162.681 114.032C162.286 113.381 162.089 112.651 162.089 111.84C162.089 111.029 162.275 110.299 162.649 109.648C163.033 108.997 163.55 108.48 164.201 108.096C164.851 107.712 165.577 107.52 166.377 107.52C167.177 107.52 167.886 107.717 168.505 108.112C169.123 108.507 169.609 109.04 169.961 109.712C170.323 110.384 170.505 111.147 170.505 112V112.576H164.329C164.425 112.907 164.579 113.205 164.793 113.472C165.017 113.739 165.289 113.947 165.609 114.096C165.939 114.245 166.291 114.32 166.665 114.32C167.038 114.32 167.379 114.261 167.689 114.144C168.009 114.027 168.281 113.861 168.505 113.648L169.945 114.96C169.433 115.376 168.905 115.68 168.361 115.872C167.827 116.064 167.225 116.16 166.553 116.16ZM164.297 111.008H168.345C168.27 110.677 168.131 110.389 167.929 110.144C167.737 109.888 167.502 109.691 167.225 109.552C166.958 109.403 166.659 109.328 166.329 109.328C165.987 109.328 165.678 109.397 165.401 109.536C165.123 109.675 164.889 109.872 164.697 110.128C164.515 110.373 164.382 110.667 164.297 111.008ZM174.088 119.264V107.664H176.248V108.352C176.93 107.819 177.72 107.552 178.616 107.552C179.405 107.552 180.12 107.744 180.76 108.128C181.4 108.512 181.906 109.029 182.28 109.68C182.664 110.32 182.856 111.04 182.856 111.84C182.856 112.64 182.664 113.365 182.28 114.016C181.896 114.656 181.378 115.168 180.728 115.552C180.077 115.925 179.352 116.112 178.552 116.112C178.136 116.112 177.736 116.059 177.352 115.952C176.968 115.835 176.61 115.669 176.28 115.456V119.264H174.088ZM178.264 114.256C178.722 114.256 179.133 114.149 179.496 113.936C179.869 113.723 180.162 113.435 180.376 113.072C180.589 112.709 180.696 112.299 180.696 111.84C180.696 111.381 180.589 110.971 180.376 110.608C180.162 110.235 179.869 109.947 179.496 109.744C179.133 109.531 178.722 109.424 178.264 109.424C177.858 109.424 177.485 109.493 177.144 109.632C176.813 109.76 176.525 109.957 176.28 110.224V113.472C176.514 113.717 176.802 113.909 177.144 114.048C177.496 114.187 177.869 114.256 178.264 114.256ZM195.832 116.128C194.904 116.128 194.2 115.92 193.72 115.504C193.251 115.077 193.016 114.459 193.016 113.648V109.488H191.304V107.664H193.016V105.536L195.208 105.04V107.664H197.592V109.488H195.208V113.2C195.208 113.584 195.294 113.861 195.464 114.032C195.635 114.192 195.934 114.272 196.36 114.272C196.574 114.272 196.766 114.261 196.936 114.24C197.118 114.208 197.315 114.155 197.528 114.08V115.888C197.304 115.963 197.022 116.021 196.68 116.064C196.35 116.107 196.067 116.128 195.832 116.128ZM204.872 116.16C204.04 116.16 203.288 115.968 202.616 115.584C201.944 115.2 201.41 114.683 201.016 114.032C200.621 113.381 200.424 112.651 200.424 111.84C200.424 111.029 200.616 110.299 201 109.648C201.394 108.987 201.928 108.464 202.6 108.08C203.282 107.696 204.04 107.504 204.872 107.504C205.704 107.504 206.456 107.696 207.128 108.08C207.81 108.464 208.344 108.987 208.728 109.648C209.122 110.299 209.32 111.029 209.32 111.84C209.32 112.651 209.122 113.381 208.728 114.032C208.344 114.683 207.816 115.2 207.144 115.584C206.472 115.968 205.714 116.16 204.872 116.16ZM204.872 114.256C205.309 114.256 205.698 114.149 206.04 113.936C206.392 113.723 206.669 113.435 206.872 113.072C207.085 112.699 207.192 112.288 207.192 111.84C207.192 111.381 207.085 110.971 206.872 110.608C206.669 110.245 206.392 109.957 206.04 109.744C205.698 109.52 205.309 109.408 204.872 109.408C204.445 109.408 204.056 109.52 203.704 109.744C203.352 109.957 203.074 110.245 202.872 110.608C202.669 110.971 202.568 111.381 202.568 111.84C202.568 112.288 202.669 112.699 202.872 113.072C203.074 113.435 203.352 113.723 203.704 113.936C204.056 114.149 204.445 114.256 204.872 114.256ZM221.486 116.16C220.718 116.16 220.009 116.064 219.358 115.872C218.707 115.669 218.142 115.381 217.662 115.008L218.75 113.552C219.23 113.872 219.689 114.112 220.126 114.272C220.574 114.432 221.017 114.512 221.454 114.512C221.945 114.512 222.334 114.432 222.622 114.272C222.921 114.101 223.07 113.883 223.07 113.616C223.07 113.403 222.985 113.232 222.814 113.104C222.654 112.976 222.393 112.885 222.03 112.832L220.43 112.592C219.598 112.464 218.969 112.197 218.542 111.792C218.115 111.376 217.902 110.832 217.902 110.16C217.902 109.616 218.041 109.152 218.318 108.768C218.606 108.373 219.006 108.069 219.518 107.856C220.041 107.632 220.659 107.52 221.374 107.52C221.982 107.52 222.574 107.605 223.15 107.776C223.737 107.947 224.286 108.208 224.798 108.56L223.742 109.984C223.283 109.696 222.846 109.488 222.43 109.36C222.014 109.232 221.593 109.168 221.166 109.168C220.771 109.168 220.451 109.243 220.206 109.392C219.971 109.541 219.854 109.739 219.854 109.984C219.854 110.208 219.939 110.384 220.11 110.512C220.281 110.64 220.574 110.731 220.99 110.784L222.574 111.024C223.406 111.141 224.041 111.408 224.478 111.824C224.915 112.229 225.134 112.757 225.134 113.408C225.134 113.941 224.974 114.416 224.654 114.832C224.334 115.237 223.902 115.563 223.358 115.808C222.814 116.043 222.19 116.16 221.486 116.16ZM232.261 116.128C231.333 116.128 230.629 115.92 230.149 115.504C229.68 115.077 229.445 114.459 229.445 113.648V109.488H227.733V107.664H229.445V105.536L231.637 105.04V107.664H234.021V109.488H231.637V113.2C231.637 113.584 231.722 113.861 231.893 114.032C232.064 114.192 232.362 114.272 232.789 114.272C233.002 114.272 233.194 114.261 233.365 114.24C233.546 114.208 233.744 114.155 233.957 114.08V115.888C233.733 115.963 233.45 116.021 233.109 116.064C232.778 116.107 232.496 116.128 232.261 116.128ZM239.986 116.144C239.389 116.144 238.861 116.037 238.402 115.824C237.944 115.6 237.586 115.296 237.33 114.912C237.074 114.528 236.946 114.085 236.946 113.584C236.946 112.784 237.245 112.165 237.842 111.728C238.45 111.28 239.282 111.056 240.338 111.056C241.064 111.056 241.746 111.168 242.386 111.392V110.784C242.386 110.304 242.237 109.941 241.938 109.696C241.64 109.451 241.202 109.328 240.626 109.328C240.274 109.328 239.896 109.387 239.49 109.504C239.085 109.611 238.616 109.781 238.082 110.016L237.282 108.4C237.944 108.101 238.573 107.877 239.17 107.728C239.778 107.579 240.386 107.504 240.994 107.504C242.114 107.504 242.984 107.776 243.602 108.32C244.232 108.853 244.546 109.611 244.546 110.592V116H242.386V115.408C242.045 115.664 241.677 115.851 241.282 115.968C240.888 116.085 240.456 116.144 239.986 116.144ZM239.026 113.536C239.026 113.856 239.165 114.112 239.442 114.304C239.72 114.485 240.088 114.576 240.546 114.576C240.909 114.576 241.245 114.533 241.554 114.448C241.864 114.352 242.141 114.213 242.386 114.032V112.816C242.12 112.709 241.842 112.629 241.554 112.576C241.266 112.523 240.957 112.496 240.626 112.496C240.125 112.496 239.73 112.592 239.442 112.784C239.165 112.965 239.026 113.216 239.026 113.536ZM248.445 116V107.664H250.637V108.592C250.904 108.229 251.224 107.952 251.597 107.76C251.971 107.568 252.392 107.472 252.861 107.472C253.267 107.483 253.571 107.547 253.773 107.664V109.584C253.613 109.509 253.437 109.456 253.245 109.424C253.053 109.381 252.856 109.36 252.653 109.36C252.227 109.36 251.837 109.467 251.485 109.68C251.133 109.893 250.851 110.197 250.637 110.592V116H248.445ZM261.168 116.128C260.24 116.128 259.536 115.92 259.056 115.504C258.587 115.077 258.352 114.459 258.352 113.648V109.488H256.64V107.664H258.352V105.536L260.544 105.04V107.664H262.928V109.488H260.544V113.2C260.544 113.584 260.63 113.861 260.8 114.032C260.971 114.192 261.27 114.272 261.696 114.272C261.91 114.272 262.102 114.261 262.272 114.24C262.454 114.208 262.651 114.155 262.864 114.08V115.888C262.64 115.963 262.358 116.021 262.016 116.064C261.686 116.107 261.403 116.128 261.168 116.128ZM272.513 119.44C272.321 119.44 272.134 119.429 271.953 119.408C271.782 119.397 271.638 119.381 271.521 119.36V117.472C271.734 117.515 271.99 117.536 272.289 117.536C273.089 117.536 273.643 117.157 273.953 116.4L274.081 116.08L270.833 107.664H273.249L275.329 113.344L277.681 107.664H280.049L276.209 116.672C275.921 117.344 275.606 117.883 275.265 118.288C274.923 118.693 274.529 118.987 274.081 119.168C273.643 119.349 273.121 119.44 272.513 119.44ZM287 116.16C286.168 116.16 285.416 115.968 284.744 115.584C284.072 115.2 283.539 114.683 283.144 114.032C282.75 113.381 282.552 112.651 282.552 111.84C282.552 111.029 282.744 110.299 283.128 109.648C283.523 108.987 284.056 108.464 284.728 108.08C285.411 107.696 286.168 107.504 287 107.504C287.832 107.504 288.584 107.696 289.256 108.08C289.939 108.464 290.472 108.987 290.856 109.648C291.251 110.299 291.448 111.029 291.448 111.84C291.448 112.651 291.251 113.381 290.856 114.032C290.472 114.683 289.944 115.2 289.272 115.584C288.6 115.968 287.843 116.16 287 116.16ZM287 114.256C287.438 114.256 287.827 114.149 288.168 113.936C288.52 113.723 288.798 113.435 289 113.072C289.214 112.699 289.32 112.288 289.32 111.84C289.32 111.381 289.214 110.971 289 110.608C288.798 110.245 288.52 109.957 288.168 109.744C287.827 109.52 287.438 109.408 287 109.408C286.574 109.408 286.184 109.52 285.832 109.744C285.48 109.957 285.203 110.245 285 110.608C284.798 110.971 284.696 111.381 284.696 111.84C284.696 112.288 284.798 112.699 285 113.072C285.203 113.435 285.48 113.723 285.832 113.936C286.184 114.149 286.574 114.256 287 114.256ZM298.268 116.16C297.628 116.16 297.057 116.021 296.556 115.744C296.065 115.456 295.676 115.061 295.388 114.56C295.111 114.059 294.972 113.483 294.972 112.832V107.664H297.164V112.512C297.164 113.045 297.319 113.472 297.628 113.792C297.948 114.112 298.375 114.272 298.908 114.272C299.271 114.272 299.596 114.203 299.884 114.064C300.183 113.915 300.428 113.707 300.62 113.44V107.664H302.812V116H300.62V115.328C299.98 115.883 299.196 116.16 298.268 116.16ZM306.76 116V107.664H308.952V108.592C309.219 108.229 309.539 107.952 309.912 107.76C310.286 107.568 310.707 107.472 311.176 107.472C311.582 107.483 311.886 107.547 312.088 107.664V109.584C311.928 109.509 311.752 109.456 311.56 109.424C311.368 109.381 311.171 109.36 310.968 109.36C310.542 109.36 310.152 109.467 309.8 109.68C309.448 109.893 309.166 110.197 308.952 110.592V116H306.76ZM146.292 127.672C145.951 127.672 145.657 127.549 145.412 127.304C145.167 127.059 145.044 126.765 145.044 126.424C145.044 126.072 145.167 125.779 145.412 125.544C145.657 125.299 145.951 125.176 146.292 125.176C146.644 125.176 146.937 125.299 147.172 125.544C147.417 125.779 147.54 126.072 147.54 126.424C147.54 126.765 147.417 127.059 147.172 127.304C146.937 127.549 146.644 127.672 146.292 127.672ZM144.692 140.424C144.489 140.424 144.281 140.408 144.068 140.376C143.855 140.355 143.684 140.323 143.556 140.28V138.6C143.748 138.643 143.983 138.664 144.26 138.664C144.58 138.664 144.815 138.595 144.964 138.456C145.124 138.328 145.204 138.115 145.204 137.816V128.664H147.396V137.944C147.396 138.733 147.161 139.341 146.692 139.768C146.223 140.205 145.556 140.424 144.692 140.424ZM155.414 137.16C154.582 137.16 153.83 136.968 153.158 136.584C152.486 136.2 151.953 135.683 151.558 135.032C151.164 134.381 150.966 133.651 150.966 132.84C150.966 132.029 151.158 131.299 151.542 130.648C151.937 129.987 152.47 129.464 153.142 129.08C153.825 128.696 154.582 128.504 155.414 128.504C156.246 128.504 156.998 128.696 157.67 129.08C158.353 129.464 158.886 129.987 159.27 130.648C159.665 131.299 159.862 132.029 159.862 132.84C159.862 133.651 159.665 134.381 159.27 135.032C158.886 135.683 158.358 136.2 157.686 136.584C157.014 136.968 156.257 137.16 155.414 137.16ZM155.414 135.256C155.852 135.256 156.241 135.149 156.582 134.936C156.934 134.723 157.212 134.435 157.414 134.072C157.628 133.699 157.734 133.288 157.734 132.84C157.734 132.381 157.628 131.971 157.414 131.608C157.212 131.245 156.934 130.957 156.582 130.744C156.241 130.52 155.852 130.408 155.414 130.408C154.988 130.408 154.598 130.52 154.246 130.744C153.894 130.957 153.617 131.245 153.414 131.608C153.212 131.971 153.11 132.381 153.11 132.84C153.11 133.288 153.212 133.699 153.414 134.072C153.617 134.435 153.894 134.723 154.246 134.936C154.598 135.149 154.988 135.256 155.414 135.256ZM166.682 137.16C166.042 137.16 165.471 137.021 164.97 136.744C164.479 136.456 164.09 136.061 163.802 135.56C163.524 135.059 163.386 134.483 163.386 133.832V128.664H165.578V133.512C165.578 134.045 165.732 134.472 166.042 134.792C166.362 135.112 166.788 135.272 167.322 135.272C167.684 135.272 168.01 135.203 168.298 135.064C168.596 134.915 168.842 134.707 169.034 134.44V128.664H171.226V137H169.034V136.328C168.394 136.883 167.61 137.16 166.682 137.16ZM175.174 137V128.664H177.366V129.592C177.633 129.229 177.953 128.952 178.326 128.76C178.699 128.568 179.121 128.472 179.59 128.472C179.995 128.483 180.299 128.547 180.502 128.664V130.584C180.342 130.509 180.166 130.456 179.974 130.424C179.782 130.381 179.585 130.36 179.382 130.36C178.955 130.36 178.566 130.467 178.214 130.68C177.862 130.893 177.579 131.197 177.366 131.592V137H175.174ZM183.945 137V128.664H186.137V129.352C186.767 128.787 187.545 128.504 188.473 128.504C189.124 128.504 189.695 128.648 190.185 128.936C190.687 129.213 191.076 129.603 191.353 130.104C191.631 130.595 191.769 131.171 191.769 131.832V137H189.577V132.152C189.577 131.608 189.423 131.181 189.113 130.872C188.804 130.552 188.383 130.392 187.849 130.392C187.476 130.392 187.145 130.467 186.857 130.616C186.569 130.755 186.329 130.957 186.137 131.224V137H183.945ZM199.75 137.16C198.918 137.16 198.16 136.968 197.478 136.584C196.806 136.2 196.272 135.683 195.878 135.032C195.483 134.381 195.286 133.651 195.286 132.84C195.286 132.029 195.472 131.299 195.846 130.648C196.23 129.997 196.747 129.48 197.398 129.096C198.048 128.712 198.774 128.52 199.574 128.52C200.374 128.52 201.083 128.717 201.702 129.112C202.32 129.507 202.806 130.04 203.158 130.712C203.52 131.384 203.702 132.147 203.702 133V133.576H197.526C197.622 133.907 197.776 134.205 197.99 134.472C198.214 134.739 198.486 134.947 198.806 135.096C199.136 135.245 199.488 135.32 199.862 135.32C200.235 135.32 200.576 135.261 200.886 135.144C201.206 135.027 201.478 134.861 201.702 134.648L203.142 135.96C202.63 136.376 202.102 136.68 201.558 136.872C201.024 137.064 200.422 137.16 199.75 137.16ZM197.494 132.008H201.542C201.467 131.677 201.328 131.389 201.126 131.144C200.934 130.888 200.699 130.691 200.422 130.552C200.155 130.403 199.856 130.328 199.526 130.328C199.184 130.328 198.875 130.397 198.598 130.536C198.32 130.675 198.086 130.872 197.894 131.128C197.712 131.373 197.579 131.667 197.494 132.008ZM207.866 140.44C207.674 140.44 207.488 140.429 207.306 140.408C207.136 140.397 206.992 140.381 206.874 140.36V138.472C207.088 138.515 207.344 138.536 207.642 138.536C208.442 138.536 208.997 138.157 209.306 137.4L209.434 137.08L206.186 128.664H208.602L210.682 134.344L213.034 128.664H215.402L211.562 137.672C211.274 138.344 210.96 138.883 210.618 139.288C210.277 139.693 209.882 139.987 209.434 140.168C208.997 140.349 208.474 140.44 207.866 140.44ZM218.458 137.16C218.106 137.16 217.802 137.032 217.546 136.776C217.29 136.52 217.162 136.216 217.162 135.864C217.162 135.501 217.29 135.192 217.546 134.936C217.802 134.68 218.106 134.552 218.458 134.552C218.81 134.552 219.114 134.68 219.37 134.936C219.626 135.192 219.754 135.501 219.754 135.864C219.754 136.216 219.626 136.52 219.37 136.776C219.114 137.032 218.81 137.16 218.458 137.16Z" fill="white"/>
<g filter="url(#filter0_d_1454_1025)">
<rect x="33" y="391" width="309" height="52" rx="10" fill="#EEEEEE"/>
</g>
<g clip-path="url(#clip1_1454_1025)">
<path d="M91.7862 417.253C91.7862 416.506 91.7256 415.754 91.5963 415.018H81.2207V419.254H87.1623C86.9157 420.62 86.1235 421.829 84.9635 422.597V425.345H88.5082C90.5898 423.429 91.7862 420.6 91.7862 417.253Z" fill="#4285F4"/>
<path d="M81.2205 428.001C84.1872 428.001 86.6892 427.027 88.5121 425.345L84.9673 422.597C83.9811 423.268 82.7079 423.648 81.2245 423.648C78.3548 423.648 75.9216 421.712 75.0485 419.109H71.3906V421.942C73.258 425.656 77.0614 428.001 81.2205 428.001Z" fill="#34A853"/>
<path d="M75.0447 419.109C74.5839 417.742 74.5839 416.263 75.0447 414.897V412.064H71.3908C69.8307 415.172 69.8307 418.834 71.3908 421.942L75.0447 419.109Z" fill="#FBBC04"/>
<path d="M81.2205 410.354C82.7888 410.33 84.3045 410.92 85.4402 412.003L88.5808 408.862C86.5922 406.995 83.9528 405.968 81.2205 406.001C77.0614 406.001 73.258 408.345 71.3906 412.064L75.0445 414.897C75.9135 412.29 78.3508 410.354 81.2205 410.354Z" fill="#EA4335"/>
</g>
<path d="M109.696 421.12C109.024 421.12 108.376 420.988 107.752 420.724C107.128 420.46 106.576 420.088 106.096 419.608L106.864 418.72C107.32 419.168 107.784 419.5 108.256 419.716C108.736 419.932 109.236 420.04 109.756 420.04C110.164 420.04 110.52 419.984 110.824 419.872C111.136 419.752 111.376 419.584 111.544 419.368C111.712 419.152 111.796 418.908 111.796 418.636C111.796 418.26 111.664 417.972 111.4 417.772C111.136 417.572 110.7 417.42 110.092 417.316L108.688 417.088C107.92 416.952 107.344 416.704 106.96 416.344C106.584 415.984 106.396 415.504 106.396 414.904C106.396 414.424 106.524 414.004 106.78 413.644C107.036 413.276 107.396 412.992 107.86 412.792C108.332 412.592 108.876 412.492 109.492 412.492C110.1 412.492 110.696 412.592 111.28 412.792C111.872 412.984 112.404 413.264 112.876 413.632L112.18 414.592C111.276 413.904 110.36 413.56 109.432 413.56C109.064 413.56 108.744 413.612 108.472 413.716C108.2 413.82 107.988 413.968 107.836 414.16C107.684 414.344 107.608 414.56 107.608 414.808C107.608 415.152 107.724 415.416 107.956 415.6C108.188 415.776 108.572 415.904 109.108 415.984L110.464 416.212C111.352 416.356 112.004 416.616 112.42 416.992C112.836 417.368 113.044 417.884 113.044 418.54C113.044 419.052 112.904 419.504 112.624 419.896C112.344 420.28 111.952 420.58 111.448 420.796C110.944 421.012 110.36 421.12 109.696 421.12ZM115.651 421V412.6H116.911V421H115.651ZM124.1 421.132C123.484 421.132 122.908 421.02 122.372 420.796C121.844 420.572 121.38 420.264 120.98 419.872C120.58 419.472 120.268 419.012 120.044 418.492C119.82 417.964 119.708 417.4 119.708 416.8C119.708 416.2 119.816 415.64 120.032 415.12C120.256 414.592 120.568 414.132 120.968 413.74C121.368 413.34 121.832 413.028 122.36 412.804C122.888 412.58 123.46 412.468 124.076 412.468C124.74 412.468 125.368 412.596 125.96 412.852C126.552 413.108 127.052 413.464 127.46 413.92L126.596 414.76C126.292 414.4 125.916 414.124 125.468 413.932C125.028 413.732 124.564 413.632 124.076 413.632C123.636 413.632 123.228 413.712 122.852 413.872C122.484 414.032 122.16 414.256 121.88 414.544C121.6 414.824 121.38 415.156 121.22 415.54C121.068 415.924 120.992 416.344 120.992 416.8C120.992 417.248 121.068 417.668 121.22 418.06C121.38 418.444 121.6 418.78 121.88 419.068C122.168 419.356 122.5 419.58 122.876 419.74C123.252 419.9 123.66 419.98 124.1 419.98C124.596 419.98 125.044 419.876 125.444 419.668C125.852 419.46 126.184 419.176 126.44 418.816C126.696 418.448 126.852 418.036 126.908 417.58H124.112V416.476H128.228V416.908C128.228 417.508 128.124 418.064 127.916 418.576C127.708 419.088 127.416 419.536 127.04 419.92C126.672 420.304 126.236 420.604 125.732 420.82C125.228 421.028 124.684 421.132 124.1 421.132ZM130.988 421V412.6H132.212L136.904 418.84V412.6H138.092V421H136.988L132.188 414.568V421H130.988ZM148.62 421.132C147.892 421.132 147.26 420.98 146.724 420.676C146.188 420.372 145.776 419.944 145.488 419.392C145.2 418.832 145.056 418.172 145.056 417.412V412.6H146.316V417.412C146.316 417.932 146.408 418.384 146.592 418.768C146.784 419.152 147.052 419.448 147.396 419.656C147.748 419.864 148.156 419.968 148.62 419.968C149.1 419.968 149.512 419.864 149.856 419.656C150.2 419.448 150.464 419.152 150.648 418.768C150.84 418.384 150.936 417.932 150.936 417.412V412.6H152.196V417.412C152.196 418.172 152.048 418.832 151.752 419.392C151.464 419.944 151.052 420.372 150.516 420.676C149.98 420.98 149.348 421.132 148.62 421.132ZM155.195 421V412.6H159.083C159.635 412.6 160.115 412.708 160.523 412.924C160.931 413.132 161.251 413.424 161.483 413.8C161.715 414.176 161.831 414.612 161.831 415.108C161.831 415.604 161.715 416.04 161.483 416.416C161.251 416.792 160.927 417.088 160.511 417.304C160.103 417.512 159.627 417.616 159.083 417.616H156.455V421H155.195ZM156.455 416.548H158.951C159.447 416.548 159.839 416.42 160.127 416.164C160.423 415.9 160.571 415.552 160.571 415.12C160.571 414.688 160.423 414.344 160.127 414.088C159.839 413.832 159.447 413.704 158.951 413.704H156.455V416.548ZM169.873 421L168.037 412.6H169.333L170.641 419.02L172.537 412.6H173.737L175.633 419.008L176.953 412.6H178.189L176.353 421H175.057L173.125 414.4L171.181 421H169.873ZM180.855 421V412.6H182.115V421H180.855ZM187.576 421V413.716H184.624V412.6H191.788V413.716H188.836V421H187.576ZM194.282 421V412.6H195.542V416.2H200.006V412.6H201.266V421H200.006V417.34H195.542V421H194.282ZM212.397 421.132C211.781 421.132 211.205 421.02 210.669 420.796C210.141 420.572 209.677 420.264 209.277 419.872C208.877 419.472 208.565 419.012 208.341 418.492C208.117 417.964 208.005 417.4 208.005 416.8C208.005 416.2 208.113 415.64 208.329 415.12C208.553 414.592 208.865 414.132 209.265 413.74C209.665 413.34 210.129 413.028 210.657 412.804C211.185 412.58 211.757 412.468 212.373 412.468C213.037 412.468 213.665 412.596 214.257 412.852C214.849 413.108 215.349 413.464 215.757 413.92L214.893 414.76C214.589 414.4 214.213 414.124 213.765 413.932C213.325 413.732 212.861 413.632 212.373 413.632C211.933 413.632 211.525 413.712 211.149 413.872C210.781 414.032 210.457 414.256 210.177 414.544C209.897 414.824 209.677 415.156 209.517 415.54C209.365 415.924 209.289 416.344 209.289 416.8C209.289 417.248 209.365 417.668 209.517 418.06C209.677 418.444 209.897 418.78 210.177 419.068C210.465 419.356 210.797 419.58 211.173 419.74C211.549 419.9 211.957 419.98 212.397 419.98C212.893 419.98 213.341 419.876 213.741 419.668C214.149 419.46 214.481 419.176 214.737 418.816C214.993 418.448 215.149 418.036 215.205 417.58H212.409V416.476H216.525V416.908C216.525 417.508 216.421 418.064 216.213 418.576C216.005 419.088 215.713 419.536 215.337 419.92C214.969 420.304 214.533 420.604 214.029 420.82C213.525 421.028 212.981 421.132 212.397 421.132ZM223.293 421.132C222.685 421.132 222.117 421.024 221.589 420.808C221.061 420.584 220.593 420.276 220.185 419.884C219.785 419.484 219.473 419.024 219.249 418.504C219.033 417.976 218.925 417.408 218.925 416.8C218.925 416.192 219.033 415.628 219.249 415.108C219.473 414.58 219.785 414.12 220.185 413.728C220.593 413.328 221.061 413.02 221.589 412.804C222.117 412.58 222.685 412.468 223.293 412.468C223.901 412.468 224.469 412.58 224.997 412.804C225.533 413.02 226.001 413.328 226.401 413.728C226.801 414.12 227.113 414.58 227.337 415.108C227.561 415.628 227.673 416.192 227.673 416.8C227.673 417.408 227.561 417.976 227.337 418.504C227.113 419.024 226.801 419.484 226.401 419.884C226.001 420.276 225.533 420.584 224.997 420.808C224.469 421.024 223.901 421.132 223.293 421.132ZM223.305 419.968C223.737 419.968 224.137 419.888 224.505 419.728C224.881 419.568 225.209 419.348 225.489 419.068C225.769 418.78 225.989 418.444 226.149 418.06C226.309 417.668 226.389 417.248 226.389 416.8C226.389 416.344 226.309 415.924 226.149 415.54C225.989 415.156 225.769 414.824 225.489 414.544C225.209 414.256 224.881 414.032 224.505 413.872C224.137 413.712 223.737 413.632 223.305 413.632C222.865 413.632 222.457 413.712 222.081 413.872C221.705 414.032 221.377 414.256 221.097 414.544C220.817 414.824 220.597 415.156 220.437 415.54C220.285 415.924 220.209 416.34 220.209 416.788C220.209 417.244 220.285 417.668 220.437 418.06C220.597 418.444 220.817 418.78 221.097 419.068C221.377 419.348 221.705 419.568 222.081 419.728C222.457 419.888 222.865 419.968 223.305 419.968ZM234.448 421.132C233.84 421.132 233.272 421.024 232.744 420.808C232.216 420.584 231.748 420.276 231.34 419.884C230.94 419.484 230.628 419.024 230.404 418.504C230.188 417.976 230.08 417.408 230.08 416.8C230.08 416.192 230.188 415.628 230.404 415.108C230.628 414.58 230.94 414.12 231.34 413.728C231.748 413.328 232.216 413.02 232.744 412.804C233.272 412.58 233.84 412.468 234.448 412.468C235.056 412.468 235.624 412.58 236.152 412.804C236.688 413.02 237.156 413.328 237.556 413.728C237.956 414.12 238.268 414.58 238.492 415.108C238.716 415.628 238.828 416.192 238.828 416.8C238.828 417.408 238.716 417.976 238.492 418.504C238.268 419.024 237.956 419.484 237.556 419.884C237.156 420.276 236.688 420.584 236.152 420.808C235.624 421.024 235.056 421.132 234.448 421.132ZM234.46 419.968C234.892 419.968 235.292 419.888 235.66 419.728C236.036 419.568 236.364 419.348 236.644 419.068C236.924 418.78 237.144 418.444 237.304 418.06C237.464 417.668 237.544 417.248 237.544 416.8C237.544 416.344 237.464 415.924 237.304 415.54C237.144 415.156 236.924 414.824 236.644 414.544C236.364 414.256 236.036 414.032 235.66 413.872C235.292 413.712 234.892 413.632 234.46 413.632C234.02 413.632 233.612 413.712 233.236 413.872C232.86 414.032 232.532 414.256 232.252 414.544C231.972 414.824 231.752 415.156 231.592 415.54C231.44 415.924 231.364 416.34 231.364 416.788C231.364 417.244 231.44 417.668 231.592 418.06C231.752 418.444 231.972 418.78 232.252 419.068C232.532 419.348 232.86 419.568 233.236 419.728C233.612 419.888 234.02 419.968 234.46 419.968ZM245.627 421.132C245.011 421.132 244.435 421.02 243.899 420.796C243.371 420.572 242.907 420.264 242.507 419.872C242.107 419.472 241.795 419.012 241.571 418.492C241.347 417.964 241.235 417.4 241.235 416.8C241.235 416.2 241.343 415.64 241.559 415.12C241.783 414.592 242.095 414.132 242.495 413.74C242.895 413.34 243.359 413.028 243.887 412.804C244.415 412.58 244.987 412.468 245.603 412.468C246.267 412.468 246.895 412.596 247.487 412.852C248.079 413.108 248.579 413.464 248.987 413.92L248.123 414.76C247.819 414.4 247.443 414.124 246.995 413.932C246.555 413.732 246.091 413.632 245.603 413.632C245.163 413.632 244.755 413.712 244.379 413.872C244.011 414.032 243.687 414.256 243.407 414.544C243.127 414.824 242.907 415.156 242.747 415.54C242.595 415.924 242.519 416.344 242.519 416.8C242.519 417.248 242.595 417.668 242.747 418.06C242.907 418.444 243.127 418.78 243.407 419.068C243.695 419.356 244.027 419.58 244.403 419.74C244.779 419.9 245.187 419.98 245.627 419.98C246.123 419.98 246.571 419.876 246.971 419.668C247.379 419.46 247.711 419.176 247.967 418.816C248.223 418.448 248.379 418.036 248.435 417.58H245.639V416.476H249.755V416.908C249.755 417.508 249.651 418.064 249.443 418.576C249.235 419.088 248.943 419.536 248.567 419.92C248.199 420.304 247.763 420.604 247.259 420.82C246.755 421.028 246.211 421.132 245.627 421.132ZM252.516 421V412.6H253.776V419.884H258.612V421H252.516ZM261.327 421V412.6H267.519V413.704H262.587V416.224H265.827V417.292H262.587V419.896H267.567V421H261.327Z" fill="black"/>
<rect x="33" y="466" width="309" height="52" rx="10" fill="#EEEEEE"/>
<g filter="url(#filter1_d_1454_1025)">
<rect x="33" y="465" width="309" height="52" rx="10" fill="#EEEEEE"/>
</g>
<g clip-path="url(#clip2_1454_1025)">
<path d="M85 491C85 484.925 80.0751 480 74 480C67.9249 480 63 484.925 63 491C63 496.49 67.0225 501.041 72.2812 501.866V494.18H69.4883V491H72.2812V488.577C72.2812 485.82 73.9235 484.297 76.4361 484.297C77.6392 484.297 78.8984 484.512 78.8984 484.512V487.219H77.5114C76.145 487.219 75.7188 488.067 75.7188 488.938V491H78.7695L78.2818 494.18H75.7188V501.866C80.9775 501.041 85 496.49 85 491Z" fill="#1877F2"/>
<path d="M78.2818 494.18L78.7695 491H75.7188V488.938C75.7188 488.068 76.145 487.219 77.5114 487.219H78.8984V484.512C78.8984 484.512 77.6397 484.297 76.4361 484.297C73.9235 484.297 72.2812 485.82 72.2812 488.577V491H69.4883V494.18H72.2812V501.866C73.4202 502.045 74.5798 502.045 75.7188 501.866V494.18H78.2818Z" fill="white"/>
</g>
<path d="M102.696 495.12C102.024 495.12 101.376 494.988 100.752 494.724C100.128 494.46 99.576 494.088 99.096 493.608L99.864 492.72C100.32 493.168 100.784 493.5 101.256 493.716C101.736 493.932 102.236 494.04 102.756 494.04C103.164 494.04 103.52 493.984 103.824 493.872C104.136 493.752 104.376 493.584 104.544 493.368C104.712 493.152 104.796 492.908 104.796 492.636C104.796 492.26 104.664 491.972 104.4 491.772C104.136 491.572 103.7 491.42 103.092 491.316L101.688 491.088C100.92 490.952 100.344 490.704 99.96 490.344C99.584 489.984 99.396 489.504 99.396 488.904C99.396 488.424 99.524 488.004 99.78 487.644C100.036 487.276 100.396 486.992 100.86 486.792C101.332 486.592 101.876 486.492 102.492 486.492C103.1 486.492 103.696 486.592 104.28 486.792C104.872 486.984 105.404 487.264 105.876 487.632L105.18 488.592C104.276 487.904 103.36 487.56 102.432 487.56C102.064 487.56 101.744 487.612 101.472 487.716C101.2 487.82 100.988 487.968 100.836 488.16C100.684 488.344 100.608 488.56 100.608 488.808C100.608 489.152 100.724 489.416 100.956 489.6C101.188 489.776 101.572 489.904 102.108 489.984L103.464 490.212C104.352 490.356 105.004 490.616 105.42 490.992C105.836 491.368 106.044 491.884 106.044 492.54C106.044 493.052 105.904 493.504 105.624 493.896C105.344 494.28 104.952 494.58 104.448 494.796C103.944 495.012 103.36 495.12 102.696 495.12ZM108.651 495V486.6H109.911V495H108.651ZM117.1 495.132C116.484 495.132 115.908 495.02 115.372 494.796C114.844 494.572 114.38 494.264 113.98 493.872C113.58 493.472 113.268 493.012 113.044 492.492C112.82 491.964 112.708 491.4 112.708 490.8C112.708 490.2 112.816 489.64 113.032 489.12C113.256 488.592 113.568 488.132 113.968 487.74C114.368 487.34 114.832 487.028 115.36 486.804C115.888 486.58 116.46 486.468 117.076 486.468C117.74 486.468 118.368 486.596 118.96 486.852C119.552 487.108 120.052 487.464 120.46 487.92L119.596 488.76C119.292 488.4 118.916 488.124 118.468 487.932C118.028 487.732 117.564 487.632 117.076 487.632C116.636 487.632 116.228 487.712 115.852 487.872C115.484 488.032 115.16 488.256 114.88 488.544C114.6 488.824 114.38 489.156 114.22 489.54C114.068 489.924 113.992 490.344 113.992 490.8C113.992 491.248 114.068 491.668 114.22 492.06C114.38 492.444 114.6 492.78 114.88 493.068C115.168 493.356 115.5 493.58 115.876 493.74C116.252 493.9 116.66 493.98 117.1 493.98C117.596 493.98 118.044 493.876 118.444 493.668C118.852 493.46 119.184 493.176 119.44 492.816C119.696 492.448 119.852 492.036 119.908 491.58H117.112V490.476H121.228V490.908C121.228 491.508 121.124 492.064 120.916 492.576C120.708 493.088 120.416 493.536 120.04 493.92C119.672 494.304 119.236 494.604 118.732 494.82C118.228 495.028 117.684 495.132 117.1 495.132ZM123.988 495V486.6H125.212L129.904 492.84V486.6H131.092V495H129.988L125.188 488.568V495H123.988ZM141.62 495.132C140.892 495.132 140.26 494.98 139.724 494.676C139.188 494.372 138.776 493.944 138.488 493.392C138.2 492.832 138.056 492.172 138.056 491.412V486.6H139.316V491.412C139.316 491.932 139.408 492.384 139.592 492.768C139.784 493.152 140.052 493.448 140.396 493.656C140.748 493.864 141.156 493.968 141.62 493.968C142.1 493.968 142.512 493.864 142.856 493.656C143.2 493.448 143.464 493.152 143.648 492.768C143.84 492.384 143.936 491.932 143.936 491.412V486.6H145.196V491.412C145.196 492.172 145.048 492.832 144.752 493.392C144.464 493.944 144.052 494.372 143.516 494.676C142.98 494.98 142.348 495.132 141.62 495.132ZM148.195 495V486.6H152.083C152.635 486.6 153.115 486.708 153.523 486.924C153.931 487.132 154.251 487.424 154.483 487.8C154.715 488.176 154.831 488.612 154.831 489.108C154.831 489.604 154.715 490.04 154.483 490.416C154.251 490.792 153.927 491.088 153.511 491.304C153.103 491.512 152.627 491.616 152.083 491.616H149.455V495H148.195ZM149.455 490.548H151.951C152.447 490.548 152.839 490.42 153.127 490.164C153.423 489.9 153.571 489.552 153.571 489.12C153.571 488.688 153.423 488.344 153.127 488.088C152.839 487.832 152.447 487.704 151.951 487.704H149.455V490.548ZM162.873 495L161.037 486.6H162.333L163.641 493.02L165.537 486.6H166.737L168.633 493.008L169.953 486.6H171.189L169.353 495H168.057L166.125 488.4L164.181 495H162.873ZM173.855 495V486.6H175.115V495H173.855ZM180.576 495V487.716H177.624V486.6H184.788V487.716H181.836V495H180.576ZM187.282 495V486.6H188.542V490.2H193.006V486.6H194.266V495H193.006V491.34H188.542V495H187.282ZM201.365 495V486.6H207.581V487.704H202.625V490.284H205.889V491.352H202.625V495H201.365ZM207.895 495L211.363 486.6H212.851L216.283 495H214.915L213.943 492.54H210.187L209.203 495H207.895ZM210.595 491.496H213.535L212.071 487.8L210.595 491.496ZM222.199 495.132C221.575 495.132 220.995 495.024 220.459 494.808C219.931 494.584 219.463 494.276 219.055 493.884C218.655 493.484 218.343 493.024 218.119 492.504C217.903 491.976 217.795 491.408 217.795 490.8C217.795 490.192 217.903 489.628 218.119 489.108C218.343 488.58 218.655 488.12 219.055 487.728C219.463 487.328 219.935 487.02 220.471 486.804C221.007 486.58 221.583 486.468 222.199 486.468C222.639 486.468 223.067 486.528 223.483 486.648C223.907 486.76 224.295 486.924 224.647 487.14C225.007 487.356 225.319 487.616 225.583 487.92L224.743 488.784C224.431 488.408 224.051 488.124 223.603 487.932C223.155 487.732 222.687 487.632 222.199 487.632C221.751 487.632 221.335 487.712 220.951 487.872C220.575 488.032 220.247 488.256 219.967 488.544C219.687 488.824 219.467 489.156 219.307 489.54C219.155 489.924 219.079 490.344 219.079 490.8C219.079 491.248 219.155 491.664 219.307 492.048C219.467 492.432 219.691 492.768 219.979 493.056C220.267 493.344 220.603 493.568 220.987 493.728C221.371 493.888 221.787 493.968 222.235 493.968C222.723 493.968 223.183 493.872 223.615 493.68C224.055 493.48 224.427 493.2 224.731 492.84L225.559 493.68C225.279 493.976 224.959 494.236 224.599 494.46C224.247 494.676 223.863 494.844 223.447 494.964C223.039 495.076 222.623 495.132 222.199 495.132ZM228.232 495V486.6H234.424V487.704H229.492V490.224H232.732V491.292H229.492V493.896H234.472V495H228.232ZM237.207 495V486.6H240.843C241.395 486.6 241.875 486.692 242.283 486.876C242.691 487.06 243.007 487.32 243.231 487.656C243.455 487.984 243.567 488.372 243.567 488.82C243.567 489.228 243.463 489.588 243.255 489.9C243.047 490.212 242.755 490.46 242.379 490.644C242.851 490.812 243.219 491.068 243.483 491.412C243.755 491.748 243.891 492.144 243.891 492.6C243.891 493.088 243.771 493.512 243.531 493.872C243.299 494.232 242.963 494.512 242.523 494.712C242.091 494.904 241.583 495 240.999 495H237.207ZM238.467 490.164H240.771C241.243 490.164 241.619 490.052 241.899 489.828C242.179 489.604 242.319 489.3 242.319 488.916C242.319 488.532 242.179 488.228 241.899 488.004C241.619 487.78 241.243 487.668 240.771 487.668H238.467V490.164ZM238.467 493.932H240.903C241.431 493.932 241.847 493.808 242.151 493.56C242.463 493.312 242.619 492.976 242.619 492.552C242.619 492.136 242.463 491.804 242.151 491.556C241.847 491.3 241.431 491.172 240.903 491.172H238.467V493.932ZM250.589 495.132C249.981 495.132 249.413 495.024 248.885 494.808C248.357 494.584 247.889 494.276 247.481 493.884C247.081 493.484 246.769 493.024 246.545 492.504C246.329 491.976 246.221 491.408 246.221 490.8C246.221 490.192 246.329 489.628 246.545 489.108C246.769 488.58 247.081 488.12 247.481 487.728C247.889 487.328 248.357 487.02 248.885 486.804C249.413 486.58 249.981 486.468 250.589 486.468C251.197 486.468 251.765 486.58 252.293 486.804C252.829 487.02 253.297 487.328 253.697 487.728C254.097 488.12 254.409 488.58 254.633 489.108C254.857 489.628 254.969 490.192 254.969 490.8C254.969 491.408 254.857 491.976 254.633 492.504C254.409 493.024 254.097 493.484 253.697 493.884C253.297 494.276 252.829 494.584 252.293 494.808C251.765 495.024 251.197 495.132 250.589 495.132ZM250.601 493.968C251.033 493.968 251.433 493.888 251.801 493.728C252.177 493.568 252.505 493.348 252.785 493.068C253.065 492.78 253.285 492.444 253.445 492.06C253.605 491.668 253.685 491.248 253.685 490.8C253.685 490.344 253.605 489.924 253.445 489.54C253.285 489.156 253.065 488.824 252.785 488.544C252.505 488.256 252.177 488.032 251.801 487.872C251.433 487.712 251.033 487.632 250.601 487.632C250.161 487.632 249.753 487.712 249.377 487.872C249.001 488.032 248.673 488.256 248.393 488.544C248.113 488.824 247.893 489.156 247.733 489.54C247.581 489.924 247.505 490.34 247.505 490.788C247.505 491.244 247.581 491.668 247.733 492.06C247.893 492.444 248.113 492.78 248.393 493.068C248.673 493.348 249.001 493.568 249.377 493.728C249.753 493.888 250.161 493.968 250.601 493.968ZM261.743 495.132C261.135 495.132 260.567 495.024 260.039 494.808C259.511 494.584 259.043 494.276 258.635 493.884C258.235 493.484 257.923 493.024 257.699 492.504C257.483 491.976 257.375 491.408 257.375 490.8C257.375 490.192 257.483 489.628 257.699 489.108C257.923 488.58 258.235 488.12 258.635 487.728C259.043 487.328 259.511 487.02 260.039 486.804C260.567 486.58 261.135 486.468 261.743 486.468C262.351 486.468 262.919 486.58 263.447 486.804C263.983 487.02 264.451 487.328 264.851 487.728C265.251 488.12 265.563 488.58 265.787 489.108C266.011 489.628 266.123 490.192 266.123 490.8C266.123 491.408 266.011 491.976 265.787 492.504C265.563 493.024 265.251 493.484 264.851 493.884C264.451 494.276 263.983 494.584 263.447 494.808C262.919 495.024 262.351 495.132 261.743 495.132ZM261.755 493.968C262.187 493.968 262.587 493.888 262.955 493.728C263.331 493.568 263.659 493.348 263.939 493.068C264.219 492.78 264.439 492.444 264.599 492.06C264.759 491.668 264.839 491.248 264.839 490.8C264.839 490.344 264.759 489.924 264.599 489.54C264.439 489.156 264.219 488.824 263.939 488.544C263.659 488.256 263.331 488.032 262.955 487.872C262.587 487.712 262.187 487.632 261.755 487.632C261.315 487.632 260.907 487.712 260.531 487.872C260.155 488.032 259.827 488.256 259.547 488.544C259.267 488.824 259.047 489.156 258.887 489.54C258.735 489.924 258.659 490.34 258.659 490.788C258.659 491.244 258.735 491.668 258.887 492.06C259.047 492.444 259.267 492.78 259.547 493.068C259.827 493.348 260.155 493.568 260.531 493.728C260.907 493.888 261.315 493.968 261.755 493.968ZM268.89 495V486.6H270.15V490.488L274.218 486.6H275.814L271.446 490.668L275.946 495H274.218L270.15 491.016V495H268.89Z" fill="black"/>
<g filter="url(#filter2_d_1454_1025)">
<rect x="33" y="539" width="309" height="52" rx="10" fill="#EEEEEE"/>
</g>
<path d="M100.917 559.583L106.821 565.488C107.472 566.139 108.528 566.139 109.179 565.488L115.083 559.583M101.333 570.833H114.667C115.127 570.833 115.5 570.46 115.5 570V560C115.5 559.54 115.127 559.167 114.667 559.167H101.333C100.873 559.167 100.5 559.54 100.5 560V570C100.5 570.46 100.873 570.833 101.333 570.833Z" stroke="black" stroke-width="1.5" stroke-linecap="round" stroke-linejoin="round"/>
<path d="M132.852 569V560.6H139.044V561.704H134.112V564.224H137.352V565.292H134.112V567.896H139.092V569H132.852ZM141.176 566.132V565.088H145.496V566.132H141.176ZM148.341 569V560.6H150.033L152.661 565.976L155.289 560.6H156.969V569H155.781V562.136L152.649 568.4L149.517 562.136V569H148.341ZM159.277 569L162.745 560.6H164.233L167.665 569H166.297L165.325 566.54H161.569L160.585 569H159.277ZM161.977 565.496H164.917L163.453 561.8L161.977 565.496ZM169.971 569V560.6H171.231V569H169.971ZM174.388 569V560.6H175.648V567.884H180.484V569H174.388ZM186.307 569L189.775 560.6H191.263L194.695 569H193.327L192.355 566.54H188.599L187.615 569H186.307ZM189.007 565.496H191.947L190.483 561.8L189.007 565.496ZM198.261 567.872H199.989C200.429 567.872 200.837 567.796 201.213 567.644C201.589 567.484 201.917 567.268 202.197 566.996C202.485 566.716 202.705 566.392 202.857 566.024C203.017 565.648 203.097 565.24 203.097 564.8C203.097 564.368 203.017 563.964 202.857 563.588C202.705 563.212 202.485 562.888 202.197 562.616C201.917 562.336 201.589 562.12 201.213 561.968C200.837 561.808 200.429 561.728 199.989 561.728H198.261V567.872ZM197.001 569V560.6H199.965C200.597 560.6 201.181 560.708 201.717 560.924C202.253 561.132 202.721 561.424 203.121 561.8C203.521 562.176 203.833 562.62 204.057 563.132C204.281 563.644 204.393 564.2 204.393 564.8C204.393 565.408 204.281 565.968 204.057 566.48C203.841 566.984 203.533 567.424 203.133 567.8C202.733 568.176 202.261 568.472 201.717 568.688C201.181 568.896 200.597 569 199.965 569H197.001ZM208.42 567.872H210.148C210.588 567.872 210.996 567.796 211.372 567.644C211.748 567.484 212.076 567.268 212.356 566.996C212.644 566.716 212.864 566.392 213.016 566.024C213.176 565.648 213.256 565.24 213.256 564.8C213.256 564.368 213.176 563.964 213.016 563.588C212.864 563.212 212.644 562.888 212.356 562.616C212.076 562.336 211.748 562.12 211.372 561.968C210.996 561.808 210.588 561.728 210.148 561.728H208.42V567.872ZM207.16 569V560.6H210.124C210.756 560.6 211.34 560.708 211.876 560.924C212.412 561.132 212.88 561.424 213.28 561.8C213.68 562.176 213.992 562.62 214.216 563.132C214.44 563.644 214.552 564.2 214.552 564.8C214.552 565.408 214.44 565.968 214.216 566.48C214 566.984 213.692 567.424 213.292 567.8C212.892 568.176 212.42 568.472 211.876 568.688C211.34 568.896 210.756 569 210.124 569H207.16ZM217.318 569V560.6H221.122C221.682 560.6 222.17 560.704 222.586 560.912C223.01 561.12 223.338 561.412 223.57 561.788C223.81 562.156 223.93 562.588 223.93 563.084C223.93 563.636 223.774 564.112 223.462 564.512C223.15 564.912 222.73 565.2 222.202 565.376L224.074 569H222.682L220.942 565.556H218.578V569H217.318ZM218.578 564.5H221.026C221.522 564.5 221.918 564.376 222.214 564.128C222.518 563.872 222.67 563.528 222.67 563.096C222.67 562.68 222.518 562.344 222.214 562.088C221.918 561.832 221.522 561.704 221.026 561.704H218.578V564.5ZM226.669 569V560.6H232.861V561.704H227.929V564.224H231.169V565.292H227.929V567.896H232.909V569H226.669ZM238.488 569.12C237.816 569.12 237.168 568.988 236.544 568.724C235.92 568.46 235.368 568.088 234.888 567.608L235.656 566.72C236.112 567.168 236.576 567.5 237.048 567.716C237.528 567.932 238.028 568.04 238.548 568.04C238.956 568.04 239.312 567.984 239.616 567.872C239.928 567.752 240.168 567.584 240.336 567.368C240.504 567.152 240.588 566.908 240.588 566.636C240.588 566.26 240.456 565.972 240.192 565.772C239.928 565.572 239.492 565.42 238.884 565.316L237.48 565.088C236.712 564.952 236.136 564.704 235.752 564.344C235.376 563.984 235.188 563.504 235.188 562.904C235.188 562.424 235.316 562.004 235.572 561.644C235.828 561.276 236.188 560.992 236.652 560.792C237.124 560.592 237.668 560.492 238.284 560.492C238.892 560.492 239.488 560.592 240.072 560.792C240.664 560.984 241.196 561.264 241.668 561.632L240.972 562.592C240.068 561.904 239.152 561.56 238.224 561.56C237.856 561.56 237.536 561.612 237.264 561.716C236.992 561.82 236.78 561.968 236.628 562.16C236.476 562.344 236.4 562.56 236.4 562.808C236.4 563.152 236.516 563.416 236.748 563.6C236.98 563.776 237.364 563.904 237.9 563.984L239.256 564.212C240.144 564.356 240.796 564.616 241.212 564.992C241.628 565.368 241.836 565.884 241.836 566.54C241.836 567.052 241.696 567.504 241.416 567.896C241.136 568.28 240.744 568.58 240.24 568.796C239.736 569.012 239.152 569.12 238.488 569.12ZM247.404 569.12C246.732 569.12 246.084 568.988 245.46 568.724C244.836 568.46 244.284 568.088 243.804 567.608L244.572 566.72C245.028 567.168 245.492 567.5 245.964 567.716C246.444 567.932 246.944 568.04 247.464 568.04C247.872 568.04 248.228 567.984 248.532 567.872C248.844 567.752 249.084 567.584 249.252 567.368C249.42 567.152 249.504 566.908 249.504 566.636C249.504 566.26 249.372 565.972 249.108 565.772C248.844 565.572 248.408 565.42 247.8 565.316L246.396 565.088C245.628 564.952 245.052 564.704 244.668 564.344C244.292 563.984 244.104 563.504 244.104 562.904C244.104 562.424 244.232 562.004 244.488 561.644C244.744 561.276 245.104 560.992 245.568 560.792C246.04 560.592 246.584 560.492 247.2 560.492C247.808 560.492 248.404 560.592 248.988 560.792C249.58 560.984 250.112 561.264 250.584 561.632L249.888 562.592C248.984 561.904 248.068 561.56 247.14 561.56C246.772 561.56 246.452 561.612 246.18 561.716C245.908 561.82 245.696 561.968 245.544 562.16C245.392 562.344 245.316 562.56 245.316 562.808C245.316 563.152 245.432 563.416 245.664 563.6C245.896 563.776 246.28 563.904 246.816 563.984L248.172 564.212C249.06 564.356 249.712 564.616 250.128 564.992C250.544 565.368 250.752 565.884 250.752 566.54C250.752 567.052 250.612 567.504 250.332 567.896C250.052 568.28 249.66 568.58 249.156 568.796C248.652 569.012 248.068 569.12 247.404 569.12Z" fill="black"/>
<path d="M25.693 748V740.3H29.312C29.8327 740.3 30.2873 740.388 30.676 740.564C31.0647 740.74 31.369 740.989 31.589 741.312C31.809 741.627 31.919 741.994 31.919 742.412C31.919 742.749 31.831 743.061 31.655 743.347C31.4863 743.626 31.2553 743.853 30.962 744.029C31.336 744.205 31.633 744.443 31.853 744.744C32.073 745.045 32.183 745.386 32.183 745.767C32.183 746.207 32.0693 746.596 31.842 746.933C31.622 747.27 31.3067 747.534 30.896 747.725C30.4927 747.908 30.0233 748 29.488 748H25.693ZM27.288 743.446H29.213C29.5577 743.446 29.829 743.365 30.027 743.204C30.2323 743.035 30.335 742.812 30.335 742.533C30.335 742.254 30.2323 742.034 30.027 741.873C29.829 741.704 29.5577 741.62 29.213 741.62H27.288V743.446ZM27.288 746.68H29.367C29.7337 746.68 30.027 746.592 30.247 746.416C30.467 746.233 30.577 745.991 30.577 745.69C30.577 745.382 30.467 745.14 30.247 744.964C30.027 744.781 29.7337 744.689 29.367 744.689H27.288V746.68ZM34.6443 750.365C34.5123 750.365 34.384 750.358 34.2593 750.343C34.142 750.336 34.043 750.325 33.9623 750.31V749.012C34.109 749.041 34.285 749.056 34.4903 749.056C35.0403 749.056 35.4217 748.796 35.6343 748.275L35.7223 748.055L33.4893 742.269H35.1503L36.5803 746.174L38.1973 742.269H39.8253L37.1853 748.462C36.9873 748.924 36.771 749.294 36.5363 749.573C36.3017 749.852 36.0303 750.053 35.7223 750.178C35.4217 750.303 35.0623 750.365 34.6443 750.365ZM47.4739 748.11C46.9092 748.11 46.3995 747.982 45.9449 747.725C45.4902 747.461 45.1309 747.105 44.8669 746.658C44.6029 746.203 44.4709 745.697 44.4709 745.14C44.4709 744.575 44.6029 744.069 44.8669 743.622C45.1309 743.175 45.4902 742.819 45.9449 742.555C46.3995 742.291 46.9092 742.159 47.4739 742.159C47.9285 742.159 48.3612 742.247 48.7719 742.423C49.1899 742.599 49.5492 742.852 49.8499 743.182L48.9259 744.161C48.7132 743.926 48.4895 743.754 48.2549 743.644C48.0275 743.527 47.7782 743.468 47.5069 743.468C47.2135 743.468 46.9495 743.541 46.7149 743.688C46.4875 743.835 46.3042 744.033 46.1649 744.282C46.0329 744.531 45.9669 744.817 45.9669 745.14C45.9669 745.448 46.0329 745.73 46.1649 745.987C46.3042 746.236 46.4949 746.434 46.7369 746.581C46.9789 746.72 47.2465 746.79 47.5399 746.79C47.7965 746.79 48.0349 746.739 48.2549 746.636C48.4822 746.526 48.6985 746.365 48.9039 746.152L49.8059 747.098C49.5125 747.413 49.1605 747.663 48.7499 747.846C48.3392 748.022 47.9139 748.11 47.4739 748.11ZM54.2672 748.11C53.6952 748.11 53.1782 747.978 52.7162 747.714C52.2542 747.45 51.8876 747.094 51.6162 746.647C51.3449 746.2 51.2092 745.697 51.2092 745.14C51.2092 744.583 51.3412 744.08 51.6052 743.633C51.8766 743.178 52.2432 742.819 52.7052 742.555C53.1746 742.291 53.6952 742.159 54.2672 742.159C54.8392 742.159 55.3562 742.291 55.8182 742.555C56.2876 742.819 56.6542 743.178 56.9182 743.633C57.1896 744.08 57.3252 744.583 57.3252 745.14C57.3252 745.697 57.1896 746.2 56.9182 746.647C56.6542 747.094 56.2912 747.45 55.8292 747.714C55.3672 747.978 54.8466 748.11 54.2672 748.11ZM54.2672 746.801C54.5679 746.801 54.8356 746.728 55.0702 746.581C55.3122 746.434 55.5029 746.236 55.6422 745.987C55.7889 745.73 55.8622 745.448 55.8622 745.14C55.8622 744.825 55.7889 744.542 55.6422 744.293C55.5029 744.044 55.3122 743.846 55.0702 743.699C54.8356 743.545 54.5679 743.468 54.2672 743.468C53.9739 743.468 53.7062 743.545 53.4642 743.699C53.2222 743.846 53.0316 744.044 52.8922 744.293C52.7529 744.542 52.6832 744.825 52.6832 745.14C52.6832 745.448 52.7529 745.73 52.8922 745.987C53.0316 746.236 53.2222 746.434 53.4642 746.581C53.7062 746.728 53.9739 746.801 54.2672 746.801ZM59.2965 748V742.269H60.8035V742.742C61.2362 742.353 61.7715 742.159 62.4095 742.159C62.8569 742.159 63.2492 742.258 63.5865 742.456C63.9312 742.647 64.1989 742.914 64.3895 743.259C64.5802 743.596 64.6755 743.992 64.6755 744.447V748H63.1685V744.667C63.1685 744.293 63.0622 744 62.8495 743.787C62.6369 743.567 62.3472 743.457 61.9805 743.457C61.7239 743.457 61.4965 743.508 61.2985 743.611C61.1005 743.706 60.9355 743.846 60.8035 744.029V748H59.2965ZM69.4179 748.088C68.7799 748.088 68.2959 747.945 67.9659 747.659C67.6432 747.366 67.4819 746.94 67.4819 746.383V743.523H66.3049V742.269H67.4819V740.806L68.9889 740.465V742.269H70.6279V743.523H68.9889V746.075C68.9889 746.339 69.0476 746.53 69.1649 746.647C69.2822 746.757 69.4876 746.812 69.7809 746.812C69.9276 746.812 70.0596 746.805 70.1769 746.79C70.3016 746.768 70.4372 746.731 70.5839 746.68V747.923C70.4299 747.974 70.2356 748.015 70.0009 748.044C69.7736 748.073 69.5792 748.088 69.4179 748.088ZM72.408 748V742.269H73.915V748H72.408ZM73.156 741.587C72.9214 741.587 72.7197 741.503 72.551 741.334C72.3824 741.165 72.298 740.964 72.298 740.729C72.298 740.487 72.3824 740.285 72.551 740.124C72.7197 739.955 72.9214 739.871 73.156 739.871C73.398 739.871 73.5997 739.955 73.761 740.124C73.9297 740.285 74.014 740.487 74.014 740.729C74.014 740.964 73.9297 741.165 73.761 741.334C73.5997 741.503 73.398 741.587 73.156 741.587ZM76.1386 748V742.269H77.6456V742.742C78.0782 742.353 78.6136 742.159 79.2516 742.159C79.6989 742.159 80.0912 742.258 80.4286 742.456C80.7732 742.647 81.0409 742.914 81.2316 743.259C81.4222 743.596 81.5176 743.992 81.5176 744.447V748H80.0106V744.667C80.0106 744.293 79.9042 744 79.6916 743.787C79.4789 743.567 79.1892 743.457 78.8226 743.457C78.5659 743.457 78.3386 743.508 78.1406 743.611C77.9426 743.706 77.7776 743.846 77.6456 744.029V748H76.1386ZM85.8724 748.11C85.4324 748.11 85.04 748.015 84.6954 747.824C84.358 747.626 84.0904 747.355 83.8924 747.01C83.7017 746.665 83.6064 746.269 83.6064 745.822V742.269H85.1134V745.602C85.1134 745.969 85.2197 746.262 85.4324 746.482C85.6524 746.702 85.9457 746.812 86.3124 746.812C86.5617 746.812 86.7854 746.764 86.9834 746.669C87.1887 746.566 87.3574 746.423 87.4894 746.24V742.269H88.9964V748H87.4894V747.538C87.0494 747.919 86.5104 748.11 85.8724 748.11ZM91.2159 748V742.269H92.7229V748H91.2159ZM91.9639 741.587C91.7292 741.587 91.5275 741.503 91.3589 741.334C91.1902 741.165 91.1059 740.964 91.1059 740.729C91.1059 740.487 91.1902 740.285 91.3589 740.124C91.5275 739.955 91.7292 739.871 91.9639 739.871C92.2059 739.871 92.4075 739.955 92.5689 740.124C92.7375 740.285 92.8219 740.487 92.8219 740.729C92.8219 740.964 92.7375 741.165 92.5689 741.334C92.4075 741.503 92.2059 741.587 91.9639 741.587ZM94.9464 748V742.269H96.4534V742.742C96.8861 742.353 97.4214 742.159 98.0594 742.159C98.5068 742.159 98.8991 742.258 99.2364 742.456C99.5811 742.647 99.8488 742.914 100.039 743.259C100.23 743.596 100.325 743.992 100.325 744.447V748H98.8184V744.667C98.8184 744.293 98.7121 744 98.4994 743.787C98.2868 743.567 97.9971 743.457 97.6304 743.457C97.3738 743.457 97.1464 743.508 96.9484 743.611C96.7504 743.706 96.5854 743.846 96.4534 744.029V748H94.9464ZM105.394 750.354C104.954 750.354 104.529 750.306 104.118 750.211C103.707 750.123 103.337 749.995 103.007 749.826L103.535 748.66C103.85 748.814 104.158 748.928 104.459 749.001C104.76 749.074 105.06 749.111 105.361 749.111C105.808 749.111 106.146 749.016 106.373 748.825C106.608 748.634 106.725 748.348 106.725 747.967V747.516C106.256 747.861 105.731 748.033 105.152 748.033C104.609 748.033 104.118 747.905 103.678 747.648C103.245 747.384 102.897 747.028 102.633 746.581C102.376 746.134 102.248 745.639 102.248 745.096C102.248 744.553 102.376 744.062 102.633 743.622C102.897 743.182 103.253 742.834 103.7 742.577C104.147 742.313 104.646 742.181 105.196 742.181C105.475 742.181 105.746 742.221 106.01 742.302C106.274 742.383 106.52 742.496 106.747 742.643V742.269H108.232V747.989C108.232 748.744 107.986 749.327 107.495 749.738C107.011 750.149 106.311 750.354 105.394 750.354ZM105.383 746.757C105.662 746.757 105.915 746.713 106.142 746.625C106.369 746.53 106.564 746.398 106.725 746.229V743.985C106.564 743.824 106.366 743.699 106.131 743.611C105.904 743.516 105.658 743.468 105.394 743.468C105.079 743.468 104.796 743.541 104.547 743.688C104.298 743.827 104.1 744.022 103.953 744.271C103.806 744.513 103.733 744.788 103.733 745.096C103.733 745.411 103.803 745.694 103.942 745.943C104.089 746.192 104.287 746.39 104.536 746.537C104.793 746.684 105.075 746.757 105.383 746.757ZM109.892 749.661L110.64 746.768H112.202L111.025 749.661H109.892ZM118.067 750.365C117.935 750.365 117.807 750.358 117.682 750.343C117.565 750.336 117.466 750.325 117.385 750.31V749.012C117.532 749.041 117.708 749.056 117.913 749.056C118.463 749.056 118.845 748.796 119.057 748.275L119.145 748.055L116.912 742.269H118.573L120.003 746.174L121.62 742.269H123.248L120.608 748.462C120.41 748.924 120.194 749.294 119.959 749.573C119.725 749.852 119.453 750.053 119.145 750.178C118.845 750.303 118.485 750.365 118.067 750.365ZM127.533 748.11C126.961 748.11 126.444 747.978 125.982 747.714C125.52 747.45 125.153 747.094 124.882 746.647C124.61 746.2 124.475 745.697 124.475 745.14C124.475 744.583 124.607 744.08 124.871 743.633C125.142 743.178 125.509 742.819 125.971 742.555C126.44 742.291 126.961 742.159 127.533 742.159C128.105 742.159 128.622 742.291 129.084 742.555C129.553 742.819 129.92 743.178 130.184 743.633C130.455 744.08 130.591 744.583 130.591 745.14C130.591 745.697 130.455 746.2 130.184 746.647C129.92 747.094 129.557 747.45 129.095 747.714C128.633 747.978 128.112 748.11 127.533 748.11ZM127.533 746.801C127.833 746.801 128.101 746.728 128.336 746.581C128.578 746.434 128.768 746.236 128.908 745.987C129.054 745.73 129.128 745.448 129.128 745.14C129.128 744.825 129.054 744.542 128.908 744.293C128.768 744.044 128.578 743.846 128.336 743.699C128.101 743.545 127.833 743.468 127.533 743.468C127.239 743.468 126.972 743.545 126.73 743.699C126.488 743.846 126.297 744.044 126.158 744.293C126.018 744.542 125.949 744.825 125.949 745.14C125.949 745.448 126.018 745.73 126.158 745.987C126.297 746.236 126.488 746.434 126.73 746.581C126.972 746.728 127.239 746.801 127.533 746.801ZM134.784 748.11C134.344 748.11 133.952 748.015 133.607 747.824C133.27 747.626 133.002 747.355 132.804 747.01C132.613 746.665 132.518 746.269 132.518 745.822V742.269H134.025V745.602C134.025 745.969 134.131 746.262 134.344 746.482C134.564 746.702 134.857 746.812 135.224 746.812C135.473 746.812 135.697 746.764 135.895 746.669C136.1 746.566 136.269 746.423 136.401 746.24V742.269H137.908V748H136.401V747.538C135.961 747.919 135.422 748.11 134.784 748.11ZM145.212 748.099C144.801 748.099 144.438 748.026 144.123 747.879C143.807 747.725 143.562 747.516 143.386 747.252C143.21 746.988 143.122 746.684 143.122 746.339C143.122 745.789 143.327 745.364 143.738 745.063C144.156 744.755 144.728 744.601 145.454 744.601C145.952 744.601 146.422 744.678 146.862 744.832V744.414C146.862 744.084 146.759 743.835 146.554 743.666C146.348 743.497 146.048 743.413 145.652 743.413C145.41 743.413 145.149 743.453 144.871 743.534C144.592 743.607 144.269 743.725 143.903 743.886L143.353 742.775C143.807 742.57 144.24 742.416 144.651 742.313C145.069 742.21 145.487 742.159 145.905 742.159C146.675 742.159 147.272 742.346 147.698 742.72C148.13 743.087 148.347 743.607 148.347 744.282V748H146.862V747.593C146.627 747.769 146.374 747.897 146.103 747.978C145.831 748.059 145.534 748.099 145.212 748.099ZM144.552 746.306C144.552 746.526 144.647 746.702 144.838 746.834C145.028 746.959 145.281 747.021 145.597 747.021C145.846 747.021 146.077 746.992 146.29 746.933C146.502 746.867 146.693 746.772 146.862 746.647V745.811C146.678 745.738 146.488 745.683 146.29 745.646C146.092 745.609 145.879 745.591 145.652 745.591C145.307 745.591 145.036 745.657 144.838 745.789C144.647 745.914 144.552 746.086 144.552 746.306ZM153.414 750.354C152.974 750.354 152.549 750.306 152.138 750.211C151.727 750.123 151.357 749.995 151.027 749.826L151.555 748.66C151.87 748.814 152.178 748.928 152.479 749.001C152.78 749.074 153.08 749.111 153.381 749.111C153.828 749.111 154.166 749.016 154.393 748.825C154.628 748.634 154.745 748.348 154.745 747.967V747.516C154.276 747.861 153.751 748.033 153.172 748.033C152.629 748.033 152.138 747.905 151.698 747.648C151.265 747.384 150.917 747.028 150.653 746.581C150.396 746.134 150.268 745.639 150.268 745.096C150.268 744.553 150.396 744.062 150.653 743.622C150.917 743.182 151.273 742.834 151.72 742.577C152.167 742.313 152.666 742.181 153.216 742.181C153.495 742.181 153.766 742.221 154.03 742.302C154.294 742.383 154.54 742.496 154.767 742.643V742.269H156.252V747.989C156.252 748.744 156.006 749.327 155.515 749.738C155.031 750.149 154.331 750.354 153.414 750.354ZM153.403 746.757C153.682 746.757 153.935 746.713 154.162 746.625C154.389 746.53 154.584 746.398 154.745 746.229V743.985C154.584 743.824 154.386 743.699 154.151 743.611C153.924 743.516 153.678 743.468 153.414 743.468C153.099 743.468 152.816 743.541 152.567 743.688C152.318 743.827 152.12 744.022 151.973 744.271C151.826 744.513 151.753 744.788 151.753 745.096C151.753 745.411 151.823 745.694 151.962 745.943C152.109 746.192 152.307 746.39 152.556 746.537C152.813 746.684 153.095 746.757 153.403 746.757ZM158.474 748V742.269H159.981V742.907C160.164 742.658 160.384 742.467 160.641 742.335C160.897 742.203 161.187 742.137 161.51 742.137C161.788 742.144 161.997 742.188 162.137 742.269V743.589C162.027 743.538 161.906 743.501 161.774 743.479C161.642 743.45 161.506 743.435 161.367 743.435C161.073 743.435 160.806 743.508 160.564 743.655C160.322 743.802 160.127 744.011 159.981 744.282V748H158.474ZM166.588 748.11C166.016 748.11 165.496 747.978 165.026 747.714C164.564 747.45 164.198 747.094 163.926 746.647C163.655 746.2 163.519 745.697 163.519 745.14C163.519 744.583 163.648 744.08 163.904 743.633C164.168 743.186 164.524 742.83 164.971 742.566C165.419 742.302 165.917 742.17 166.467 742.17C167.017 742.17 167.505 742.306 167.93 742.577C168.356 742.848 168.689 743.215 168.931 743.677C169.181 744.139 169.305 744.663 169.305 745.25V745.646H165.059C165.125 745.873 165.232 746.079 165.378 746.262C165.532 746.445 165.719 746.588 165.939 746.691C166.167 746.794 166.409 746.845 166.665 746.845C166.922 746.845 167.157 746.805 167.369 746.724C167.589 746.643 167.776 746.53 167.93 746.383L168.92 747.285C168.568 747.571 168.205 747.78 167.831 747.912C167.465 748.044 167.05 748.11 166.588 748.11ZM165.037 744.568H167.82C167.769 744.341 167.674 744.143 167.534 743.974C167.402 743.798 167.241 743.662 167.05 743.567C166.867 743.464 166.662 743.413 166.434 743.413C166.2 743.413 165.987 743.461 165.796 743.556C165.606 743.651 165.444 743.787 165.312 743.963C165.188 744.132 165.096 744.333 165.037 744.568ZM174.122 748.11C173.55 748.11 173.029 747.978 172.56 747.714C172.098 747.45 171.731 747.094 171.46 746.647C171.188 746.2 171.053 745.697 171.053 745.14C171.053 744.583 171.181 744.08 171.438 743.633C171.702 743.186 172.057 742.83 172.505 742.566C172.952 742.302 173.451 742.17 174.001 742.17C174.551 742.17 175.038 742.306 175.464 742.577C175.889 742.848 176.223 743.215 176.465 743.677C176.714 744.139 176.839 744.663 176.839 745.25V745.646H172.593C172.659 745.873 172.765 746.079 172.912 746.262C173.066 746.445 173.253 746.588 173.473 746.691C173.7 746.794 173.942 746.845 174.199 746.845C174.455 746.845 174.69 746.805 174.903 746.724C175.123 746.643 175.31 746.53 175.464 746.383L176.454 747.285C176.102 747.571 175.739 747.78 175.365 747.912C174.998 748.044 174.584 748.11 174.122 748.11ZM172.571 744.568H175.354C175.302 744.341 175.207 744.143 175.068 743.974C174.936 743.798 174.774 743.662 174.584 743.567C174.4 743.464 174.195 743.413 173.968 743.413C173.733 743.413 173.52 743.461 173.33 743.556C173.139 743.651 172.978 743.787 172.846 743.963C172.721 744.132 172.629 744.333 172.571 744.568ZM184.782 748.088C184.144 748.088 183.66 747.945 183.33 747.659C183.007 747.366 182.846 746.94 182.846 746.383V743.523H181.669V742.269H182.846V740.806L184.353 740.465V742.269H185.992V743.523H184.353V746.075C184.353 746.339 184.411 746.53 184.529 746.647C184.646 746.757 184.851 746.812 185.145 746.812C185.291 746.812 185.423 746.805 185.541 746.79C185.665 746.768 185.801 746.731 185.948 746.68V747.923C185.794 747.974 185.599 748.015 185.365 748.044C185.137 748.073 184.943 748.088 184.782 748.088ZM190.501 748.11C189.929 748.11 189.412 747.978 188.95 747.714C188.488 747.45 188.122 747.094 187.85 746.647C187.579 746.2 187.443 745.697 187.443 745.14C187.443 744.583 187.575 744.08 187.839 743.633C188.111 743.178 188.477 742.819 188.939 742.555C189.409 742.291 189.929 742.159 190.501 742.159C191.073 742.159 191.59 742.291 192.052 742.555C192.522 742.819 192.888 743.178 193.152 743.633C193.424 744.08 193.559 744.583 193.559 745.14C193.559 745.697 193.424 746.2 193.152 746.647C192.888 747.094 192.525 747.45 192.063 747.714C191.601 747.978 191.081 748.11 190.501 748.11ZM190.501 746.801C190.802 746.801 191.07 746.728 191.304 746.581C191.546 746.434 191.737 746.236 191.876 745.987C192.023 745.73 192.096 745.448 192.096 745.14C192.096 744.825 192.023 744.542 191.876 744.293C191.737 744.044 191.546 743.846 191.304 743.699C191.07 743.545 190.802 743.468 190.501 743.468C190.208 743.468 189.94 743.545 189.698 743.699C189.456 743.846 189.266 744.044 189.126 744.293C188.987 744.542 188.917 744.825 188.917 745.14C188.917 745.448 188.987 745.73 189.126 745.987C189.266 746.236 189.456 746.434 189.698 746.581C189.94 746.728 190.208 746.801 190.501 746.801ZM198.162 748L201.099 744.018L198.316 740.3H200.219L202.045 742.83L203.86 740.3H205.697L202.958 744.018L205.928 748H204.025L202.012 745.206L199.999 748H198.162ZM210.892 748.121C210.32 748.121 209.788 748.022 209.297 747.824C208.806 747.619 208.373 747.336 207.999 746.977C207.632 746.61 207.343 746.189 207.13 745.712C206.925 745.228 206.822 744.707 206.822 744.15C206.822 743.593 206.925 743.076 207.13 742.599C207.343 742.115 207.632 741.693 207.999 741.334C208.373 740.967 208.806 740.685 209.297 740.487C209.788 740.282 210.32 740.179 210.892 740.179C211.464 740.179 211.996 740.282 212.487 740.487C212.986 740.685 213.418 740.967 213.785 741.334C214.159 741.693 214.449 742.115 214.654 742.599C214.859 743.076 214.962 743.593 214.962 744.15C214.962 744.707 214.859 745.228 214.654 745.712C214.449 746.189 214.159 746.61 213.785 746.977C213.418 747.336 212.986 747.619 212.487 747.824C211.996 748.022 211.464 748.121 210.892 748.121ZM210.892 746.658C211.244 746.658 211.567 746.596 211.86 746.471C212.153 746.339 212.41 746.163 212.63 745.943C212.85 745.716 213.022 745.448 213.147 745.14C213.272 744.832 213.334 744.502 213.334 744.15C213.334 743.791 213.272 743.461 213.147 743.16C213.022 742.852 212.85 742.588 212.63 742.368C212.41 742.141 212.153 741.965 211.86 741.84C211.567 741.708 211.244 741.642 210.892 741.642C210.547 741.642 210.228 741.708 209.935 741.84C209.642 741.965 209.385 742.141 209.165 742.368C208.945 742.588 208.773 742.852 208.648 743.16C208.523 743.461 208.461 743.787 208.461 744.139C208.461 744.498 208.523 744.832 208.648 745.14C208.773 745.448 208.945 745.716 209.165 745.943C209.385 746.163 209.642 746.339 209.935 746.471C210.228 746.596 210.547 746.658 210.892 746.658ZM217.112 748V740.3H218.63L222.458 745.272V740.3H223.954V748H222.546L218.619 742.852V748H217.112ZM226.397 748V740.3H232.315V741.686H227.992V743.446H230.841V744.788H227.992V746.614H232.359V748H226.397ZM234.674 743.325L234.487 740.245H235.95L235.774 743.325H234.674ZM240.383 748.11C239.855 748.11 239.368 748.044 238.92 747.912C238.473 747.773 238.084 747.575 237.754 747.318L238.502 746.317C238.832 746.537 239.148 746.702 239.448 746.812C239.756 746.922 240.061 746.977 240.361 746.977C240.699 746.977 240.966 746.922 241.164 746.812C241.37 746.695 241.472 746.544 241.472 746.361C241.472 746.214 241.414 746.097 241.296 746.009C241.186 745.921 241.007 745.859 240.757 745.822L239.657 745.657C239.085 745.569 238.653 745.386 238.359 745.107C238.066 744.821 237.919 744.447 237.919 743.985C237.919 743.611 238.015 743.292 238.205 743.028C238.403 742.757 238.678 742.548 239.03 742.401C239.39 742.247 239.815 742.17 240.306 742.17C240.724 742.17 241.131 742.229 241.527 742.346C241.931 742.463 242.308 742.643 242.66 742.885L241.934 743.864C241.619 743.666 241.318 743.523 241.032 743.435C240.746 743.347 240.457 743.303 240.163 743.303C239.892 743.303 239.672 743.354 239.503 743.457C239.342 743.56 239.261 743.695 239.261 743.864C239.261 744.018 239.32 744.139 239.437 744.227C239.555 744.315 239.756 744.377 240.042 744.414L241.131 744.579C241.703 744.66 242.14 744.843 242.44 745.129C242.741 745.408 242.891 745.771 242.891 746.218C242.891 746.585 242.781 746.911 242.561 747.197C242.341 747.476 242.044 747.699 241.67 747.868C241.296 748.029 240.867 748.11 240.383 748.11ZM118.641 763.099C118.23 763.099 117.867 763.026 117.552 762.879C117.237 762.725 116.991 762.516 116.815 762.252C116.639 761.988 116.551 761.684 116.551 761.339C116.551 760.789 116.756 760.364 117.167 760.063C117.585 759.755 118.157 759.601 118.883 759.601C119.382 759.601 119.851 759.678 120.291 759.832V759.414C120.291 759.084 120.188 758.835 119.983 758.666C119.778 758.497 119.477 758.413 119.081 758.413C118.839 758.413 118.579 758.453 118.3 758.534C118.021 758.607 117.699 758.725 117.332 758.886L116.782 757.775C117.237 757.57 117.669 757.416 118.08 757.313C118.498 757.21 118.916 757.159 119.334 757.159C120.104 757.159 120.702 757.346 121.127 757.72C121.56 758.087 121.776 758.607 121.776 759.282V763H120.291V762.593C120.056 762.769 119.803 762.897 119.532 762.978C119.261 763.059 118.964 763.099 118.641 763.099ZM117.981 761.306C117.981 761.526 118.076 761.702 118.267 761.834C118.458 761.959 118.711 762.021 119.026 762.021C119.275 762.021 119.506 761.992 119.719 761.933C119.932 761.867 120.122 761.772 120.291 761.647V760.811C120.108 760.738 119.917 760.683 119.719 760.646C119.521 760.609 119.308 760.591 119.081 760.591C118.736 760.591 118.465 760.657 118.267 760.789C118.076 760.914 117.981 761.086 117.981 761.306ZM123.962 763V757.269H125.469V757.742C125.901 757.353 126.437 757.159 127.075 757.159C127.522 757.159 127.914 757.258 128.252 757.456C128.596 757.647 128.864 757.914 129.055 758.259C129.245 758.596 129.341 758.992 129.341 759.447V763H127.834V759.667C127.834 759.293 127.727 759 127.515 758.787C127.302 758.567 127.012 758.457 126.646 758.457C126.389 758.457 126.162 758.508 125.964 758.611C125.766 758.706 125.601 758.846 125.469 759.029V763H123.962ZM134.178 763.077C133.635 763.077 133.144 762.945 132.704 762.681C132.264 762.417 131.912 762.065 131.648 761.625C131.391 761.178 131.263 760.679 131.263 760.129C131.263 759.579 131.391 759.084 131.648 758.644C131.912 758.197 132.268 757.845 132.715 757.588C133.162 757.324 133.665 757.192 134.222 757.192C134.508 757.192 134.783 757.232 135.047 757.313C135.311 757.386 135.557 757.496 135.784 757.643V755.3L137.291 755.047V763H135.806V762.527C135.337 762.894 134.794 763.077 134.178 763.077ZM134.42 761.79C134.699 761.79 134.952 761.746 135.179 761.658C135.414 761.563 135.615 761.423 135.784 761.24V759.007C135.615 758.838 135.414 758.706 135.179 758.611C134.944 758.516 134.691 758.468 134.42 758.468C134.105 758.468 133.819 758.541 133.562 758.688C133.313 758.827 133.115 759.025 132.968 759.282C132.821 759.531 132.748 759.814 132.748 760.129C132.748 760.444 132.821 760.727 132.968 760.976C133.115 761.225 133.313 761.423 133.562 761.57C133.819 761.717 134.105 761.79 134.42 761.79ZM230.873 763.11C230.631 763.11 230.422 763.022 230.246 762.846C230.07 762.67 229.982 762.461 229.982 762.219C229.982 761.97 230.07 761.757 230.246 761.581C230.422 761.405 230.631 761.317 230.873 761.317C231.115 761.317 231.324 761.405 231.5 761.581C231.676 761.757 231.764 761.97 231.764 762.219C231.764 762.461 231.676 762.67 231.5 762.846C231.324 763.022 231.115 763.11 230.873 763.11Z" fill="white" fill-opacity="0.74"/>
<path d="M250.144 748V741.708H247.548V740.3H254.324V741.708H251.739V748H250.144ZM257.67 748.11C257.098 748.11 256.578 747.978 256.108 747.714C255.646 747.45 255.28 747.094 255.008 746.647C254.737 746.2 254.601 745.697 254.601 745.14C254.601 744.583 254.73 744.08 254.986 743.633C255.25 743.186 255.606 742.83 256.053 742.566C256.501 742.302 256.999 742.17 257.549 742.17C258.099 742.17 258.587 742.306 259.012 742.577C259.438 742.848 259.771 743.215 260.013 743.677C260.263 744.139 260.387 744.663 260.387 745.25V745.646H256.141C256.207 745.873 256.314 746.079 256.46 746.262C256.614 746.445 256.801 746.588 257.021 746.691C257.249 746.794 257.491 746.845 257.747 746.845C258.004 746.845 258.239 746.805 258.451 746.724C258.671 746.643 258.858 746.53 259.012 746.383L260.002 747.285C259.65 747.571 259.287 747.78 258.913 747.912C258.547 748.044 258.132 748.11 257.67 748.11ZM256.119 744.568H258.902C258.851 744.341 258.756 744.143 258.616 743.974C258.484 743.798 258.323 743.662 258.132 743.567C257.949 743.464 257.744 743.413 257.516 743.413C257.282 743.413 257.069 743.461 256.878 743.556C256.688 743.651 256.526 743.787 256.394 743.963C256.27 744.132 256.178 744.333 256.119 744.568ZM262.356 748V742.269H263.863V742.907C264.046 742.658 264.266 742.467 264.523 742.335C264.779 742.203 265.069 742.137 265.392 742.137C265.67 742.144 265.879 742.188 266.019 742.269V743.589C265.909 743.538 265.788 743.501 265.656 743.479C265.524 743.45 265.388 743.435 265.249 743.435C264.955 743.435 264.688 743.508 264.446 743.655C264.204 743.802 264.009 744.011 263.863 744.282V748H262.356ZM267.891 748V742.269H269.398V742.709C269.809 742.342 270.307 742.159 270.894 742.159C271.268 742.159 271.602 742.236 271.895 742.39C272.188 742.537 272.43 742.746 272.621 743.017C272.856 742.738 273.131 742.526 273.446 742.379C273.769 742.232 274.124 742.159 274.513 742.159C274.946 742.159 275.323 742.258 275.646 742.456C275.976 742.647 276.233 742.914 276.416 743.259C276.607 743.596 276.702 743.992 276.702 744.447V748H275.206V744.667C275.206 744.293 275.107 744 274.909 743.787C274.711 743.567 274.447 743.457 274.117 743.457C273.89 743.457 273.681 743.505 273.49 743.6C273.307 743.695 273.149 743.838 273.017 744.029C273.024 744.095 273.032 744.161 273.039 744.227C273.046 744.293 273.05 744.366 273.05 744.447V748H271.543V744.667C271.543 744.293 271.444 744 271.246 743.787C271.055 743.567 270.795 743.457 270.465 743.457C270.238 743.457 270.032 743.501 269.849 743.589C269.673 743.677 269.523 743.809 269.398 743.985V748H267.891ZM281.039 748.11C280.511 748.11 280.023 748.044 279.576 747.912C279.129 747.773 278.74 747.575 278.41 747.318L279.158 746.317C279.488 746.537 279.803 746.702 280.104 746.812C280.412 746.922 280.716 746.977 281.017 746.977C281.354 746.977 281.622 746.922 281.82 746.812C282.025 746.695 282.128 746.544 282.128 746.361C282.128 746.214 282.069 746.097 281.952 746.009C281.842 745.921 281.662 745.859 281.413 745.822L280.313 745.657C279.741 745.569 279.308 745.386 279.015 745.107C278.722 744.821 278.575 744.447 278.575 743.985C278.575 743.611 278.67 743.292 278.861 743.028C279.059 742.757 279.334 742.548 279.686 742.401C280.045 742.247 280.471 742.17 280.962 742.17C281.38 742.17 281.787 742.229 282.183 742.346C282.586 742.463 282.964 742.643 283.316 742.885L282.59 743.864C282.275 743.666 281.974 743.523 281.688 743.435C281.402 743.347 281.112 743.303 280.819 743.303C280.548 743.303 280.328 743.354 280.159 743.457C279.998 743.56 279.917 743.695 279.917 743.864C279.917 744.018 279.976 744.139 280.093 744.227C280.21 744.315 280.412 744.377 280.698 744.414L281.787 744.579C282.359 744.66 282.795 744.843 283.096 745.129C283.397 745.408 283.547 745.771 283.547 746.218C283.547 746.585 283.437 746.911 283.217 747.197C282.997 747.476 282.7 747.699 282.326 747.868C281.952 748.029 281.523 748.11 281.039 748.11ZM291.394 748.11C290.822 748.11 290.305 747.978 289.843 747.714C289.381 747.45 289.014 747.094 288.743 746.647C288.472 746.2 288.336 745.697 288.336 745.14C288.336 744.583 288.468 744.08 288.732 743.633C289.003 743.178 289.37 742.819 289.832 742.555C290.301 742.291 290.822 742.159 291.394 742.159C291.966 742.159 292.483 742.291 292.945 742.555C293.414 742.819 293.781 743.178 294.045 743.633C294.316 744.08 294.452 744.583 294.452 745.14C294.452 745.697 294.316 746.2 294.045 746.647C293.781 747.094 293.418 747.45 292.956 747.714C292.494 747.978 291.973 748.11 291.394 748.11ZM291.394 746.801C291.695 746.801 291.962 746.728 292.197 746.581C292.439 746.434 292.63 746.236 292.769 745.987C292.916 745.73 292.989 745.448 292.989 745.14C292.989 744.825 292.916 744.542 292.769 744.293C292.63 744.044 292.439 743.846 292.197 743.699C291.962 743.545 291.695 743.468 291.394 743.468C291.101 743.468 290.833 743.545 290.591 743.699C290.349 743.846 290.158 744.044 290.019 744.293C289.88 744.542 289.81 744.825 289.81 745.14C289.81 745.448 289.88 745.73 290.019 745.987C290.158 746.236 290.349 746.434 290.591 746.581C290.833 746.728 291.101 746.801 291.394 746.801ZM297.078 748V743.523H295.802V742.269H297.078V741.719C297.078 741.074 297.265 740.582 297.639 740.245C298.013 739.9 298.552 739.728 299.256 739.728C299.41 739.728 299.568 739.735 299.729 739.75C299.89 739.765 300.03 739.79 300.147 739.827V741.092C300.008 741.063 299.887 741.041 299.784 741.026C299.681 741.011 299.568 741.004 299.443 741.004C299.157 741.004 298.941 741.066 298.794 741.191C298.655 741.308 298.585 741.495 298.585 741.752V742.269H300.147V743.523H298.585V748H297.078ZM308.087 748.11C307.464 748.11 306.855 747.996 306.261 747.769C305.667 747.534 305.139 747.204 304.677 746.779L305.59 745.635C306.037 746.031 306.466 746.317 306.877 746.493C307.295 746.669 307.735 746.757 308.197 746.757C308.52 746.757 308.798 746.72 309.033 746.647C309.268 746.566 309.447 746.453 309.572 746.306C309.704 746.159 309.77 745.987 309.77 745.789C309.77 745.525 309.675 745.323 309.484 745.184C309.293 745.037 308.967 744.924 308.505 744.843L306.976 744.579C306.323 744.469 305.825 744.238 305.48 743.886C305.143 743.534 304.974 743.079 304.974 742.522C304.974 742.045 305.095 741.631 305.337 741.279C305.586 740.927 305.935 740.659 306.382 740.476C306.837 740.285 307.376 740.19 307.999 740.19C308.564 740.19 309.125 740.285 309.682 740.476C310.247 740.667 310.745 740.931 311.178 741.268L310.32 742.456C309.513 741.84 308.703 741.532 307.889 741.532C307.603 741.532 307.354 741.569 307.141 741.642C306.928 741.715 306.763 741.818 306.646 741.95C306.536 742.075 306.481 742.225 306.481 742.401C306.481 742.636 306.565 742.819 306.734 742.951C306.903 743.076 307.185 743.171 307.581 743.237L309.033 743.479C309.803 743.604 310.379 743.849 310.76 744.216C311.141 744.575 311.332 745.052 311.332 745.646C311.332 746.145 311.2 746.581 310.936 746.955C310.672 747.322 310.294 747.608 309.803 747.813C309.319 748.011 308.747 748.11 308.087 748.11ZM316.135 748.11C315.563 748.11 315.042 747.978 314.573 747.714C314.111 747.45 313.744 747.094 313.473 746.647C313.202 746.2 313.066 745.697 313.066 745.14C313.066 744.583 313.194 744.08 313.451 743.633C313.715 743.186 314.071 742.83 314.518 742.566C314.965 742.302 315.464 742.17 316.014 742.17C316.564 742.17 317.052 742.306 317.477 742.577C317.902 742.848 318.236 743.215 318.478 743.677C318.727 744.139 318.852 744.663 318.852 745.25V745.646H314.606C314.672 745.873 314.778 746.079 314.925 746.262C315.079 746.445 315.266 746.588 315.486 746.691C315.713 746.794 315.955 746.845 316.212 746.845C316.469 746.845 316.703 746.805 316.916 746.724C317.136 746.643 317.323 746.53 317.477 746.383L318.467 747.285C318.115 747.571 317.752 747.78 317.378 747.912C317.011 748.044 316.597 748.11 316.135 748.11ZM314.584 744.568H317.367C317.316 744.341 317.22 744.143 317.081 743.974C316.949 743.798 316.788 743.662 316.597 743.567C316.414 743.464 316.208 743.413 315.981 743.413C315.746 743.413 315.534 743.461 315.343 743.556C315.152 743.651 314.991 743.787 314.859 743.963C314.734 744.132 314.643 744.333 314.584 744.568ZM320.82 748V742.269H322.327V742.907C322.511 742.658 322.731 742.467 322.987 742.335C323.244 742.203 323.534 742.137 323.856 742.137C324.135 742.144 324.344 742.188 324.483 742.269V743.589C324.373 743.538 324.252 743.501 324.12 743.479C323.988 743.45 323.853 743.435 323.713 743.435C323.42 743.435 323.152 743.508 322.91 743.655C322.668 743.802 322.474 744.011 322.327 744.282V748H320.82ZM328.376 748L325.923 742.269H327.562L329.135 746.086L330.697 742.269H332.303L329.839 748H328.376ZM333.942 748V742.269H335.449V748H333.942ZM334.69 741.587C334.456 741.587 334.254 741.503 334.085 741.334C333.917 741.165 333.832 740.964 333.832 740.729C333.832 740.487 333.917 740.285 334.085 740.124C334.254 739.955 334.456 739.871 334.69 739.871C334.932 739.871 335.134 739.955 335.295 740.124C335.464 740.285 335.548 740.487 335.548 740.729C335.548 740.964 335.464 741.165 335.295 741.334C335.134 741.503 334.932 741.587 334.69 741.587ZM340.412 748.11C339.847 748.11 339.338 747.982 338.883 747.725C338.428 747.461 338.069 747.105 337.805 746.658C337.541 746.203 337.409 745.697 337.409 745.14C337.409 744.575 337.541 744.069 337.805 743.622C338.069 743.175 338.428 742.819 338.883 742.555C339.338 742.291 339.847 742.159 340.412 742.159C340.867 742.159 341.299 742.247 341.71 742.423C342.128 742.599 342.487 742.852 342.788 743.182L341.864 744.161C341.651 743.926 341.428 743.754 341.193 743.644C340.966 743.527 340.716 743.468 340.445 743.468C340.152 743.468 339.888 743.541 339.653 743.688C339.426 743.835 339.242 744.033 339.103 744.282C338.971 744.531 338.905 744.817 338.905 745.14C338.905 745.448 338.971 745.73 339.103 745.987C339.242 746.236 339.433 746.434 339.675 746.581C339.917 746.72 340.185 746.79 340.478 746.79C340.735 746.79 340.973 746.739 341.193 746.636C341.42 746.526 341.637 746.365 341.842 746.152L342.744 747.098C342.451 747.413 342.099 747.663 341.688 747.846C341.277 748.022 340.852 748.11 340.412 748.11ZM347.216 748.11C346.644 748.11 346.124 747.978 345.654 747.714C345.192 747.45 344.826 747.094 344.554 746.647C344.283 746.2 344.147 745.697 344.147 745.14C344.147 744.583 344.276 744.08 344.532 743.633C344.796 743.186 345.152 742.83 345.599 742.566C346.047 742.302 346.545 742.17 347.095 742.17C347.645 742.17 348.133 742.306 348.558 742.577C348.984 742.848 349.317 743.215 349.559 743.677C349.809 744.139 349.933 744.663 349.933 745.25V745.646H345.687C345.753 745.873 345.86 746.079 346.006 746.262C346.16 746.445 346.347 746.588 346.567 746.691C346.795 746.794 347.037 746.845 347.293 746.845C347.55 746.845 347.785 746.805 347.997 746.724C348.217 746.643 348.404 746.53 348.558 746.383L349.548 747.285C349.196 747.571 348.833 747.78 348.459 747.912C348.093 748.044 347.678 748.11 347.216 748.11ZM345.665 744.568H348.448C348.397 744.341 348.302 744.143 348.162 743.974C348.03 743.798 347.869 743.662 347.678 743.567C347.495 743.464 347.29 743.413 347.062 743.413C346.828 743.413 346.615 743.461 346.424 743.556C346.234 743.651 346.072 743.787 345.94 743.963C345.816 744.132 345.724 744.333 345.665 744.568ZM142.868 763V755.3H146.729C147.235 755.3 147.679 755.403 148.06 755.608C148.449 755.813 148.753 756.099 148.973 756.466C149.193 756.825 149.303 757.243 149.303 757.72C149.303 758.175 149.193 758.582 148.973 758.941C148.753 759.3 148.449 759.583 148.06 759.788C147.672 759.993 147.228 760.096 146.729 760.096H144.463V763H142.868ZM144.463 758.776H146.553C146.898 758.776 147.173 758.681 147.378 758.49C147.591 758.299 147.697 758.046 147.697 757.731C147.697 757.408 147.591 757.152 147.378 756.961C147.173 756.77 146.898 756.675 146.553 756.675H144.463V758.776ZM151.291 763V757.269H152.798V757.907C152.981 757.658 153.201 757.467 153.458 757.335C153.715 757.203 154.004 757.137 154.327 757.137C154.606 757.144 154.815 757.188 154.954 757.269V758.589C154.844 758.538 154.723 758.501 154.591 758.479C154.459 758.45 154.323 758.435 154.184 758.435C153.891 758.435 153.623 758.508 153.381 758.655C153.139 758.802 152.945 759.011 152.798 759.282V763H151.291ZM156.826 763V757.269H158.333V763H156.826ZM157.574 756.587C157.339 756.587 157.138 756.503 156.969 756.334C156.8 756.165 156.716 755.964 156.716 755.729C156.716 755.487 156.8 755.285 156.969 755.124C157.138 754.955 157.339 754.871 157.574 754.871C157.816 754.871 158.018 754.955 158.179 755.124C158.348 755.285 158.432 755.487 158.432 755.729C158.432 755.964 158.348 756.165 158.179 756.334C158.018 756.503 157.816 756.587 157.574 756.587ZM162.416 763L159.963 757.269H161.602L163.175 761.086L164.737 757.269H166.343L163.879 763H162.416ZM169.647 763.099C169.237 763.099 168.874 763.026 168.558 762.879C168.243 762.725 167.997 762.516 167.821 762.252C167.645 761.988 167.557 761.684 167.557 761.339C167.557 760.789 167.763 760.364 168.173 760.063C168.591 759.755 169.163 759.601 169.889 759.601C170.388 759.601 170.857 759.678 171.297 759.832V759.414C171.297 759.084 171.195 758.835 170.989 758.666C170.784 758.497 170.483 758.413 170.087 758.413C169.845 758.413 169.585 758.453 169.306 758.534C169.028 758.607 168.705 758.725 168.338 758.886L167.788 757.775C168.243 757.57 168.676 757.416 169.086 757.313C169.504 757.21 169.922 757.159 170.34 757.159C171.11 757.159 171.708 757.346 172.133 757.72C172.566 758.087 172.782 758.607 172.782 759.282V763H171.297V762.593C171.063 762.769 170.81 762.897 170.538 762.978C170.267 763.059 169.97 763.099 169.647 763.099ZM168.987 761.306C168.987 761.526 169.083 761.702 169.273 761.834C169.464 761.959 169.717 762.021 170.032 762.021C170.282 762.021 170.513 761.992 170.725 761.933C170.938 761.867 171.129 761.772 171.297 761.647V760.811C171.114 760.738 170.923 760.683 170.725 760.646C170.527 760.609 170.315 760.591 170.087 760.591C169.743 760.591 169.471 760.657 169.273 760.789C169.083 760.914 168.987 761.086 168.987 761.306ZM177.707 763.11C177.142 763.11 176.633 762.982 176.178 762.725C175.723 762.461 175.364 762.105 175.1 761.658C174.836 761.203 174.704 760.697 174.704 760.14C174.704 759.575 174.836 759.069 175.1 758.622C175.364 758.175 175.723 757.819 176.178 757.555C176.633 757.291 177.142 757.159 177.707 757.159C178.162 757.159 178.594 757.247 179.005 757.423C179.423 757.599 179.782 757.852 180.083 758.182L179.159 759.161C178.946 758.926 178.723 758.754 178.488 758.644C178.261 758.527 178.011 758.468 177.74 758.468C177.447 758.468 177.183 758.541 176.948 758.688C176.721 758.835 176.537 759.033 176.398 759.282C176.266 759.531 176.2 759.817 176.2 760.14C176.2 760.448 176.266 760.73 176.398 760.987C176.537 761.236 176.728 761.434 176.97 761.581C177.212 761.72 177.48 761.79 177.773 761.79C178.03 761.79 178.268 761.739 178.488 761.636C178.715 761.526 178.932 761.365 179.137 761.152L180.039 762.098C179.746 762.413 179.394 762.663 178.983 762.846C178.572 763.022 178.147 763.11 177.707 763.11ZM182.428 765.365C182.296 765.365 182.168 765.358 182.043 765.343C181.926 765.336 181.827 765.325 181.746 765.31V764.012C181.893 764.041 182.069 764.056 182.274 764.056C182.824 764.056 183.206 763.796 183.418 763.275L183.506 763.055L181.273 757.269H182.934L184.364 761.174L185.981 757.269H187.609L184.969 763.462C184.771 763.924 184.555 764.294 184.32 764.573C184.086 764.852 183.814 765.053 183.506 765.178C183.206 765.303 182.846 765.365 182.428 765.365ZM192.618 763V755.3H196.479C196.985 755.3 197.429 755.403 197.81 755.608C198.199 755.813 198.503 756.099 198.723 756.466C198.943 756.825 199.053 757.243 199.053 757.72C199.053 758.175 198.943 758.582 198.723 758.941C198.503 759.3 198.199 759.583 197.81 759.788C197.421 759.993 196.978 760.096 196.479 760.096H194.213V763H192.618ZM194.213 758.776H196.303C196.648 758.776 196.923 758.681 197.128 758.49C197.341 758.299 197.447 758.046 197.447 757.731C197.447 757.408 197.341 757.152 197.128 756.961C196.923 756.77 196.648 756.675 196.303 756.675H194.213V758.776ZM203.308 763.11C202.736 763.11 202.219 762.978 201.757 762.714C201.295 762.45 200.929 762.094 200.657 761.647C200.386 761.2 200.25 760.697 200.25 760.14C200.25 759.583 200.382 759.08 200.646 758.633C200.918 758.178 201.284 757.819 201.746 757.555C202.216 757.291 202.736 757.159 203.308 757.159C203.88 757.159 204.397 757.291 204.859 757.555C205.329 757.819 205.695 758.178 205.959 758.633C206.231 759.08 206.366 759.583 206.366 760.14C206.366 760.697 206.231 761.2 205.959 761.647C205.695 762.094 205.332 762.45 204.87 762.714C204.408 762.978 203.888 763.11 203.308 763.11ZM203.308 761.801C203.609 761.801 203.877 761.728 204.111 761.581C204.353 761.434 204.544 761.236 204.683 760.987C204.83 760.73 204.903 760.448 204.903 760.14C204.903 759.825 204.83 759.542 204.683 759.293C204.544 759.044 204.353 758.846 204.111 758.699C203.877 758.545 203.609 758.468 203.308 758.468C203.015 758.468 202.747 758.545 202.505 758.699C202.263 758.846 202.073 759.044 201.933 759.293C201.794 759.542 201.724 759.825 201.724 760.14C201.724 760.448 201.794 760.73 201.933 760.987C202.073 761.236 202.263 761.434 202.505 761.581C202.747 761.728 203.015 761.801 203.308 761.801ZM208.338 763V755.3L209.845 755.047V763H208.338ZM212.068 763V757.269H213.575V763H212.068ZM212.816 756.587C212.581 756.587 212.38 756.503 212.211 756.334C212.042 756.165 211.958 755.964 211.958 755.729C211.958 755.487 212.042 755.285 212.211 755.124C212.38 754.955 212.581 754.871 212.816 754.871C213.058 754.871 213.26 754.955 213.421 755.124C213.59 755.285 213.674 755.487 213.674 755.729C213.674 755.964 213.59 756.165 213.421 756.334C213.26 756.503 213.058 756.587 212.816 756.587ZM218.538 763.11C217.973 763.11 217.463 762.982 217.009 762.725C216.554 762.461 216.195 762.105 215.931 761.658C215.667 761.203 215.535 760.697 215.535 760.14C215.535 759.575 215.667 759.069 215.931 758.622C216.195 758.175 216.554 757.819 217.009 757.555C217.463 757.291 217.973 757.159 218.538 757.159C218.992 757.159 219.425 757.247 219.836 757.423C220.254 757.599 220.613 757.852 220.914 758.182L219.99 759.161C219.777 758.926 219.553 758.754 219.319 758.644C219.091 758.527 218.842 758.468 218.571 758.468C218.277 758.468 218.013 758.541 217.779 758.688C217.551 758.835 217.368 759.033 217.229 759.282C217.097 759.531 217.031 759.817 217.031 760.14C217.031 760.448 217.097 760.73 217.229 760.987C217.368 761.236 217.559 761.434 217.801 761.581C218.043 761.72 218.31 761.79 218.604 761.79C218.86 761.79 219.099 761.739 219.319 761.636C219.546 761.526 219.762 761.365 219.968 761.152L220.87 762.098C220.576 762.413 220.224 762.663 219.814 762.846C219.403 763.022 218.978 763.11 218.538 763.11ZM223.259 765.365C223.127 765.365 222.999 765.358 222.874 765.343C222.757 765.336 222.658 765.325 222.577 765.31V764.012C222.724 764.041 222.9 764.056 223.105 764.056C223.655 764.056 224.036 763.796 224.249 763.275L224.337 763.055L222.104 757.269H223.765L225.195 761.174L226.812 757.269H228.44L225.8 763.462C225.602 763.924 225.386 764.294 225.151 764.573C224.916 764.852 224.645 765.053 224.337 765.178C224.036 765.303 223.677 765.365 223.259 765.365Z" fill="#FF2E63" fill-opacity="0.74"/>
</g>
<defs>
<filter id="filter0_d_1454_1025" x="29" y="391" width="317" height="60" filterUnits="userSpaceOnUse" color-interpolation-filters="sRGB">
<feFlood flood-opacity="0" result="BackgroundImageFix"/>
<feColorMatrix in="SourceAlpha" type="matrix" values="0 0 0 0 0 0 0 0 0 0 0 0 0 0 0 0 0 0 127 0" result="hardAlpha"/>
<feOffset dy="4"/>
<feGaussianBlur stdDeviation="2"/>
<feComposite in2="hardAlpha" operator="out"/>
<feColorMatrix type="matrix" values="0 0 0 0 0 0 0 0 0 0 0 0 0 0 0 0 0 0 0.25 0"/>
<feBlend mode="normal" in2="BackgroundImageFix" result="effect1_dropShadow_1454_1025"/>
<feBlend mode="normal" in="SourceGraphic" in2="effect1_dropShadow_1454_1025" result="shape"/>
</filter>
<filter id="filter1_d_1454_1025" x="29" y="465" width="317" height="60" filterUnits="userSpaceOnUse" color-interpolation-filters="sRGB">
<feFlood flood-opacity="0" result="BackgroundImageFix"/>
<feColorMatrix in="SourceAlpha" type="matrix" values="0 0 0 0 0 0 0 0 0 0 0 0 0 0 0 0 0 0 127 0" result="hardAlpha"/>
<feOffset dy="4"/>
<feGaussianBlur stdDeviation="2"/>
<feComposite in2="hardAlpha" operator="out"/>
<feColorMatrix type="matrix" values="0 0 0 0 0 0 0 0 0 0 0 0 0 0 0 0 0 0 0.25 0"/>
<feBlend mode="normal" in2="BackgroundImageFix" result="effect1_dropShadow_1454_1025"/>
<feBlend mode="normal" in="SourceGraphic" in2="effect1_dropShadow_1454_1025" result="shape"/>
</filter>
<filter id="filter2_d_1454_1025" x="29" y="539" width="317" height="60" filterUnits="userSpaceOnUse" color-interpolation-filters="sRGB">
<feFlood flood-opacity="0" result="BackgroundImageFix"/>
<feColorMatrix in="SourceAlpha" type="matrix" values="0 0 0 0 0 0 0 0 0 0 0 0 0 0 0 0 0 0 127 0" result="hardAlpha"/>
<feOffset dy="4"/>
<feGaussianBlur stdDeviation="2"/>
<feComposite in2="hardAlpha" operator="out"/>
<feColorMatrix type="matrix" values="0 0 0 0 0 0 0 0 0 0 0 0 0 0 0 0 0 0 0.25 0"/>
<feBlend mode="normal" in2="BackgroundImageFix" result="effect1_dropShadow_1454_1025"/>
<feBlend mode="normal" in="SourceGraphic" in2="effect1_dropShadow_1454_1025" result="shape"/>
</filter>
<clipPath id="clip0_1454_1025">
<rect width="375" height="822" fill="white"/>
</clipPath>
<clipPath id="clip1_1454_1025">
<rect width="22" height="22" fill="white" transform="translate(70 406)"/>
</clipPath>
<clipPath id="clip2_1454_1025">
<rect width="22" height="22" fill="white" transform="translate(63 480)"/>
</clipPath>
</defs>
</svg>
