<svg width="375" height="822" viewBox="0 0 375 822" fill="none" xmlns="http://www.w3.org/2000/svg">
<g clip-path="url(#clip0_1454_521)">
<rect width="375" height="822" fill="white"/>
<rect x="299" y="356" width="85" height="37" rx="12" fill="white"/>
<rect y="-1" width="375" height="823" fill="url(#paint0_linear_1454_521)"/>
<g filter="url(#filter0_d_1454_521)">
<path d="M114.82 88L124.36 75.004L115.252 62.8H122.632L128.032 70.396L133.432 62.8H140.524L131.56 75.004L141.28 88H133.9L127.888 79.576L121.912 88H114.82ZM167.027 88.396C165.131 88.396 163.367 88.072 161.735 87.424C160.103 86.752 158.675 85.828 157.451 84.652C156.227 83.452 155.267 82.072 154.571 80.512C153.899 78.928 153.563 77.224 153.563 75.4C153.563 73.576 153.899 71.884 154.571 70.324C155.267 68.74 156.227 67.36 157.451 66.184C158.675 64.984 160.103 64.06 161.735 63.412C163.367 62.74 165.131 62.404 167.027 62.404C168.923 62.404 170.687 62.74 172.319 63.412C173.951 64.06 175.379 64.984 176.603 66.184C177.827 67.36 178.775 68.74 179.447 70.324C180.143 71.884 180.491 73.576 180.491 75.4C180.491 77.224 180.143 78.928 179.447 80.512C178.775 82.072 177.827 83.452 176.603 84.652C175.379 85.828 173.951 86.752 172.319 87.424C170.687 88.072 168.923 88.396 167.027 88.396ZM167.027 82.708C168.035 82.708 168.971 82.528 169.835 82.168C170.699 81.784 171.443 81.268 172.067 80.62C172.715 79.972 173.219 79.204 173.579 78.316C173.939 77.404 174.119 76.432 174.119 75.4C174.119 74.344 173.939 73.372 173.579 72.484C173.219 71.596 172.715 70.828 172.067 70.18C171.443 69.532 170.699 69.028 169.835 68.668C168.971 68.284 168.035 68.092 167.027 68.092C166.019 68.092 165.083 68.284 164.219 68.668C163.355 69.028 162.599 69.532 161.951 70.18C161.327 70.828 160.835 71.596 160.475 72.484C160.115 73.372 159.935 74.344 159.935 75.4C159.935 76.432 160.115 77.404 160.475 78.316C160.835 79.204 161.327 79.972 161.951 80.62C162.599 81.268 163.355 81.784 164.219 82.168C165.083 82.528 166.019 82.708 167.027 82.708ZM197.464 88V62.8H203.296L214.744 77.416V62.8H220.576V88H215.104L203.296 72.808V88H197.464ZM238.425 88V62.8H258.297V68.164H244.617V72.7H253.653V77.884H244.617V82.636H258.441V88H238.425Z" fill="white"/>
</g>
<path d="M53.768 647.264C52.52 647.264 51.36 647.048 50.288 646.616C49.216 646.168 48.272 645.552 47.456 644.768C46.64 643.968 46 643.048 45.536 642.008C45.088 640.952 44.864 639.816 44.864 638.6C44.864 637.384 45.088 636.256 45.536 635.216C46 634.16 46.632 633.24 47.432 632.456C48.232 631.656 49.168 631.04 50.24 630.608C51.328 630.16 52.488 629.936 53.72 629.936C55.112 629.936 56.424 630.216 57.656 630.776C58.888 631.32 59.904 632.088 60.704 633.08L58.28 635.312C57.704 634.592 57.024 634.048 56.24 633.68C55.456 633.312 54.616 633.128 53.72 633.128C52.968 633.128 52.272 633.272 51.632 633.56C50.992 633.832 50.432 634.216 49.952 634.712C49.472 635.192 49.096 635.768 48.824 636.44C48.568 637.096 48.44 637.816 48.44 638.6C48.44 639.384 48.576 640.112 48.848 640.784C49.12 641.456 49.496 642.04 49.976 642.536C50.472 643.016 51.04 643.4 51.68 643.688C52.336 643.96 53.048 644.096 53.816 644.096C54.616 644.096 55.336 643.952 55.976 643.664C56.616 643.36 57.152 642.944 57.584 642.416C58.032 641.872 58.328 641.264 58.472 640.592H53.504V637.568H62.192V638.624C62.192 639.872 61.976 641.024 61.544 642.08C61.128 643.12 60.544 644.032 59.792 644.816C59.04 645.584 58.152 646.184 57.128 646.616C56.104 647.048 54.984 647.264 53.768 647.264ZM71.2147 647.216C70.3187 647.216 69.5267 647.056 68.8387 646.736C68.1507 646.4 67.6147 645.944 67.2307 645.368C66.8467 644.792 66.6547 644.128 66.6547 643.376C66.6547 642.176 67.1027 641.248 67.9987 640.592C68.9107 639.92 70.1587 639.584 71.7427 639.584C72.8307 639.584 73.8547 639.752 74.8147 640.088V639.176C74.8147 638.456 74.5907 637.912 74.1427 637.544C73.6947 637.176 73.0387 636.992 72.1747 636.992C71.6467 636.992 71.0787 637.08 70.4707 637.256C69.8627 637.416 69.1587 637.672 68.3587 638.024L67.1587 635.6C68.1507 635.152 69.0947 634.816 69.9907 634.592C70.9027 634.368 71.8147 634.256 72.7267 634.256C74.4067 634.256 75.7107 634.664 76.6387 635.48C77.5827 636.28 78.0547 637.416 78.0547 638.888V647H74.8147V646.112C74.3027 646.496 73.7507 646.776 73.1587 646.952C72.5667 647.128 71.9187 647.216 71.2147 647.216ZM69.7747 643.304C69.7747 643.784 69.9827 644.168 70.3987 644.456C70.8147 644.728 71.3667 644.864 72.0547 644.864C72.5987 644.864 73.1027 644.8 73.5667 644.672C74.0307 644.528 74.4467 644.32 74.8147 644.048V642.224C74.4147 642.064 73.9987 641.944 73.5667 641.864C73.1347 641.784 72.6707 641.744 72.1747 641.744C71.4227 641.744 70.8307 641.888 70.3987 642.176C69.9827 642.448 69.7747 642.824 69.7747 643.304ZM83.4232 647V634.496H86.7112V647H83.4232ZM85.0552 633.008C84.5432 633.008 84.1032 632.824 83.7352 632.456C83.3672 632.088 83.1832 631.648 83.1832 631.136C83.1832 630.608 83.3672 630.168 83.7352 629.816C84.1032 629.448 84.5432 629.264 85.0552 629.264C85.5832 629.264 86.0232 629.448 86.3752 629.816C86.7432 630.168 86.9272 630.608 86.9272 631.136C86.9272 631.648 86.7432 632.088 86.3752 632.456C86.0232 632.824 85.5832 633.008 85.0552 633.008ZM92.1626 647V634.496H95.4506V635.528C96.3946 634.68 97.5626 634.256 98.9546 634.256C99.9306 634.256 100.787 634.472 101.523 634.904C102.275 635.32 102.859 635.904 103.275 636.656C103.691 637.392 103.899 638.256 103.899 639.248V647H100.611V639.728C100.611 638.912 100.379 638.272 99.9146 637.808C99.4506 637.328 98.8186 637.088 98.0186 637.088C97.4586 637.088 96.9626 637.2 96.5306 637.424C96.0986 637.632 95.7386 637.936 95.4506 638.336V647H92.1626ZM113.949 647.24C112.797 647.24 111.733 647.096 110.757 646.808C109.781 646.504 108.933 646.072 108.213 645.512L109.845 643.328C110.565 643.808 111.253 644.168 111.909 644.408C112.581 644.648 113.245 644.768 113.901 644.768C114.637 644.768 115.221 644.648 115.653 644.408C116.101 644.152 116.325 643.824 116.325 643.424C116.325 643.104 116.197 642.848 115.941 642.656C115.701 642.464 115.309 642.328 114.765 642.248L112.365 641.888C111.117 641.696 110.173 641.296 109.533 640.688C108.893 640.064 108.573 639.248 108.573 638.24C108.573 637.424 108.781 636.728 109.197 636.152C109.629 635.56 110.229 635.104 110.997 634.784C111.781 634.448 112.709 634.28 113.781 634.28C114.693 634.28 115.581 634.408 116.445 634.664C117.325 634.92 118.149 635.312 118.917 635.84L117.333 637.976C116.645 637.544 115.989 637.232 115.365 637.04C114.741 636.848 114.109 636.752 113.469 636.752C112.877 636.752 112.397 636.864 112.029 637.088C111.677 637.312 111.501 637.608 111.501 637.976C111.501 638.312 111.629 638.576 111.885 638.768C112.141 638.96 112.581 639.096 113.205 639.176L115.581 639.536C116.829 639.712 117.781 640.112 118.437 640.736C119.093 641.344 119.421 642.136 119.421 643.112C119.421 643.912 119.181 644.624 118.701 645.248C118.221 645.856 117.573 646.344 116.757 646.712C115.941 647.064 115.005 647.24 113.949 647.24ZM125.595 647.24C125.067 647.24 124.611 647.048 124.227 646.664C123.843 646.28 123.651 645.824 123.651 645.296C123.651 644.752 123.843 644.288 124.227 643.904C124.611 643.52 125.067 643.328 125.595 643.328C126.123 643.328 126.579 643.52 126.963 643.904C127.347 644.288 127.539 644.752 127.539 645.296C127.539 645.824 127.347 646.28 126.963 646.664C126.579 647.048 126.123 647.24 125.595 647.24ZM140.695 647V630.2H145.159L149.767 639.272L154.375 630.2H158.839V647H155.551V634.64L149.719 645.8L143.911 634.592V647H140.695ZM168.273 647.216C167.377 647.216 166.585 647.056 165.897 646.736C165.209 646.4 164.673 645.944 164.289 645.368C163.905 644.792 163.713 644.128 163.713 643.376C163.713 642.176 164.161 641.248 165.057 640.592C165.969 639.92 167.217 639.584 168.801 639.584C169.889 639.584 170.913 639.752 171.873 640.088V639.176C171.873 638.456 171.649 637.912 171.201 637.544C170.753 637.176 170.097 636.992 169.233 636.992C168.705 636.992 168.137 637.08 167.529 637.256C166.921 637.416 166.217 637.672 165.417 638.024L164.217 635.6C165.209 635.152 166.153 634.816 167.049 634.592C167.961 634.368 168.873 634.256 169.785 634.256C171.465 634.256 172.769 634.664 173.697 635.48C174.641 636.28 175.113 637.416 175.113 638.888V647H171.873V646.112C171.361 646.496 170.809 646.776 170.217 646.952C169.625 647.128 168.977 647.216 168.273 647.216ZM166.833 643.304C166.833 643.784 167.041 644.168 167.457 644.456C167.873 644.728 168.425 644.864 169.113 644.864C169.657 644.864 170.161 644.8 170.625 644.672C171.089 644.528 171.505 644.32 171.873 644.048V642.224C171.473 642.064 171.057 641.944 170.625 641.864C170.193 641.784 169.729 641.744 169.233 641.744C168.481 641.744 167.889 641.888 167.457 642.176C167.041 642.448 166.833 642.824 166.833 643.304ZM186.266 647.168C185.082 647.168 184.01 646.88 183.05 646.304C182.09 645.728 181.322 644.96 180.746 644C180.186 643.024 179.906 641.936 179.906 640.736C179.906 639.536 180.186 638.456 180.746 637.496C181.322 636.52 182.098 635.752 183.074 635.192C184.05 634.616 185.146 634.328 186.362 634.328C186.986 634.328 187.586 634.416 188.162 634.592C188.738 634.752 189.274 634.992 189.77 635.312V630.2L193.058 629.648V647H189.818V645.968C188.794 646.768 187.61 647.168 186.266 647.168ZM186.794 644.36C187.402 644.36 187.954 644.264 188.45 644.072C188.962 643.864 189.402 643.56 189.77 643.16V638.288C189.402 637.92 188.962 637.632 188.45 637.424C187.938 637.216 187.386 637.112 186.794 637.112C186.106 637.112 185.482 637.272 184.922 637.592C184.378 637.896 183.946 638.328 183.626 638.888C183.306 639.432 183.146 640.048 183.146 640.736C183.146 641.424 183.306 642.04 183.626 642.584C183.946 643.128 184.378 643.56 184.922 643.88C185.482 644.2 186.106 644.36 186.794 644.36ZM204.622 647.24C203.374 647.24 202.238 646.952 201.214 646.376C200.206 645.8 199.406 645.024 198.814 644.048C198.222 643.072 197.926 641.976 197.926 640.76C197.926 639.544 198.206 638.448 198.766 637.472C199.342 636.496 200.118 635.72 201.094 635.144C202.07 634.568 203.158 634.28 204.358 634.28C205.558 634.28 206.622 634.576 207.55 635.168C208.478 635.76 209.206 636.56 209.734 637.568C210.278 638.576 210.55 639.72 210.55 641V641.864H201.286C201.43 642.36 201.662 642.808 201.982 643.208C202.318 643.608 202.726 643.92 203.206 644.144C203.702 644.368 204.23 644.48 204.79 644.48C205.35 644.48 205.862 644.392 206.326 644.216C206.806 644.04 207.214 643.792 207.55 643.472L209.71 645.44C208.942 646.064 208.15 646.52 207.334 646.808C206.534 647.096 205.63 647.24 204.622 647.24ZM201.238 639.512H207.31C207.198 639.016 206.99 638.584 206.686 638.216C206.398 637.832 206.046 637.536 205.63 637.328C205.23 637.104 204.782 636.992 204.286 636.992C203.774 636.992 203.31 637.096 202.894 637.304C202.478 637.512 202.126 637.808 201.838 638.192C201.566 638.56 201.366 639 201.238 639.512ZM216.422 647.24C215.894 647.24 215.438 647.048 215.054 646.664C214.67 646.28 214.478 645.824 214.478 645.296C214.478 644.752 214.67 644.288 215.054 643.904C215.438 643.52 215.894 643.328 216.422 643.328C216.95 643.328 217.406 643.52 217.79 643.904C218.174 644.288 218.366 644.752 218.366 645.296C218.366 645.824 218.174 646.28 217.79 646.664C217.406 647.048 216.95 647.24 216.422 647.24ZM237.522 647.24C236.162 647.24 234.834 646.992 233.538 646.496C232.242 645.984 231.09 645.264 230.082 644.336L232.074 641.84C233.05 642.704 233.986 643.328 234.882 643.712C235.794 644.096 236.754 644.288 237.762 644.288C238.466 644.288 239.074 644.208 239.586 644.048C240.098 643.872 240.49 643.624 240.762 643.304C241.05 642.984 241.194 642.608 241.194 642.176C241.194 641.6 240.986 641.16 240.57 640.856C240.154 640.536 239.442 640.288 238.434 640.112L235.098 639.536C233.674 639.296 232.586 638.792 231.834 638.024C231.098 637.256 230.73 636.264 230.73 635.048C230.73 634.008 230.994 633.104 231.522 632.336C232.066 631.568 232.826 630.984 233.802 630.584C234.794 630.168 235.97 629.96 237.33 629.96C238.562 629.96 239.786 630.168 241.002 630.584C242.234 631 243.322 631.576 244.266 632.312L242.394 634.904C240.634 633.56 238.866 632.888 237.09 632.888C236.466 632.888 235.922 632.968 235.458 633.128C234.994 633.288 234.634 633.512 234.378 633.8C234.138 634.072 234.018 634.4 234.018 634.784C234.018 635.296 234.202 635.696 234.57 635.984C234.938 636.256 235.554 636.464 236.418 636.608L239.586 637.136C241.266 637.408 242.522 637.944 243.354 638.744C244.186 639.528 244.602 640.568 244.602 641.864C244.602 642.952 244.314 643.904 243.738 644.72C243.162 645.52 242.338 646.144 241.266 646.592C240.21 647.024 238.962 647.24 237.522 647.24ZM249.327 647V634.496H252.615V647H249.327ZM250.959 633.008C250.447 633.008 250.007 632.824 249.639 632.456C249.271 632.088 249.087 631.648 249.087 631.136C249.087 630.608 249.271 630.168 249.639 629.816C250.007 629.448 250.447 629.264 250.959 629.264C251.487 629.264 251.927 629.448 252.279 629.816C252.647 630.168 252.831 630.608 252.831 631.136C252.831 631.648 252.647 632.088 252.279 632.456C251.927 632.824 251.487 633.008 250.959 633.008ZM258.066 647V634.496H261.354V635.456C262.25 634.656 263.338 634.256 264.618 634.256C265.434 634.256 266.162 634.424 266.802 634.76C267.442 635.08 267.97 635.536 268.386 636.128C268.898 635.52 269.498 635.056 270.186 634.736C270.89 634.416 271.666 634.256 272.514 634.256C273.458 634.256 274.282 634.472 274.986 634.904C275.706 635.32 276.266 635.904 276.666 636.656C277.082 637.392 277.29 638.256 277.29 639.248V647H274.026V639.728C274.026 638.912 273.81 638.272 273.378 637.808C272.946 637.328 272.37 637.088 271.65 637.088C271.154 637.088 270.698 637.192 270.282 637.4C269.882 637.608 269.538 637.92 269.25 638.336C269.266 638.48 269.282 638.624 269.298 638.768C269.314 638.912 269.322 639.072 269.322 639.248V647H266.034V639.728C266.034 638.912 265.818 638.272 265.386 637.808C264.97 637.328 264.402 637.088 263.682 637.088C263.186 637.088 262.738 637.184 262.338 637.376C261.954 637.568 261.626 637.856 261.354 638.24V647H258.066ZM282.673 651.896V634.496H285.913V635.528C286.937 634.728 288.121 634.328 289.465 634.328C290.649 634.328 291.721 634.616 292.681 635.192C293.641 635.768 294.401 636.544 294.961 637.52C295.537 638.48 295.825 639.56 295.825 640.76C295.825 641.96 295.537 643.048 294.961 644.024C294.385 644.984 293.609 645.752 292.633 646.328C291.657 646.888 290.569 647.168 289.369 647.168C288.745 647.168 288.145 647.088 287.569 646.928C286.993 646.752 286.457 646.504 285.961 646.184V651.896H282.673ZM288.937 644.384C289.625 644.384 290.241 644.224 290.785 643.904C291.345 643.584 291.785 643.152 292.105 642.608C292.425 642.064 292.585 641.448 292.585 640.76C292.585 640.072 292.425 639.456 292.105 638.912C291.785 638.352 291.345 637.92 290.785 637.616C290.241 637.296 289.625 637.136 288.937 637.136C288.329 637.136 287.769 637.24 287.257 637.448C286.761 637.64 286.329 637.936 285.961 638.336V643.208C286.313 643.576 286.745 643.864 287.257 644.072C287.785 644.28 288.345 644.384 288.937 644.384ZM300.694 647V630.2L303.982 629.648V647H300.694ZM315.553 647.24C314.305 647.24 313.169 646.952 312.145 646.376C311.137 645.8 310.337 645.024 309.745 644.048C309.153 643.072 308.857 641.976 308.857 640.76C308.857 639.544 309.137 638.448 309.697 637.472C310.273 636.496 311.049 635.72 312.025 635.144C313.001 634.568 314.089 634.28 315.289 634.28C316.489 634.28 317.553 634.576 318.481 635.168C319.409 635.76 320.137 636.56 320.665 637.568C321.209 638.576 321.481 639.72 321.481 641V641.864H312.217C312.361 642.36 312.593 642.808 312.913 643.208C313.249 643.608 313.657 643.92 314.137 644.144C314.633 644.368 315.161 644.48 315.721 644.48C316.281 644.48 316.793 644.392 317.257 644.216C317.737 644.04 318.145 643.792 318.481 643.472L320.641 645.44C319.873 646.064 319.081 646.52 318.265 646.808C317.465 647.096 316.561 647.24 315.553 647.24ZM312.169 639.512H318.241C318.129 639.016 317.921 638.584 317.617 638.216C317.329 637.832 316.977 637.536 316.561 637.328C316.161 637.104 315.713 636.992 315.217 636.992C314.705 636.992 314.241 637.096 313.825 637.304C313.409 637.512 313.057 637.808 312.769 638.192C312.497 638.56 312.297 639 312.169 639.512ZM327.353 647.24C326.825 647.24 326.369 647.048 325.985 646.664C325.601 646.28 325.409 645.824 325.409 645.296C325.409 644.752 325.601 644.288 325.985 643.904C326.369 643.52 326.825 643.328 327.353 643.328C327.881 643.328 328.337 643.52 328.721 643.904C329.105 644.288 329.297 644.752 329.297 645.296C329.297 645.824 329.105 646.28 328.721 646.664C328.337 647.048 327.881 647.24 327.353 647.24Z" fill="white"/>
<g filter="url(#filter1_d_1454_521)">
<rect x="25" y="696" width="325" height="47" rx="10" fill="#FF2E63"/>
</g>
<path d="M133.008 725.16C132.101 725.16 131.216 724.995 130.352 724.664C129.488 724.323 128.72 723.843 128.048 723.224L129.376 721.56C130.027 722.136 130.651 722.552 131.248 722.808C131.856 723.064 132.496 723.192 133.168 723.192C133.637 723.192 134.043 723.139 134.384 723.032C134.725 722.915 134.987 722.749 135.168 722.536C135.36 722.323 135.456 722.072 135.456 721.784C135.456 721.4 135.317 721.107 135.04 720.904C134.763 720.691 134.288 720.525 133.616 720.408L131.392 720.024C130.443 719.864 129.717 719.528 129.216 719.016C128.725 718.504 128.48 717.843 128.48 717.032C128.48 716.339 128.656 715.736 129.008 715.224C129.371 714.712 129.877 714.323 130.528 714.056C131.189 713.779 131.973 713.64 132.88 713.64C133.701 713.64 134.517 713.779 135.328 714.056C136.149 714.333 136.875 714.717 137.504 715.208L136.256 716.936C135.083 716.04 133.904 715.592 132.72 715.592C132.304 715.592 131.941 715.645 131.632 715.752C131.323 715.859 131.083 716.008 130.912 716.2C130.752 716.381 130.672 716.6 130.672 716.856C130.672 717.197 130.795 717.464 131.04 717.656C131.285 717.837 131.696 717.976 132.272 718.072L134.384 718.424C135.504 718.605 136.341 718.963 136.896 719.496C137.451 720.019 137.728 720.712 137.728 721.576C137.728 722.301 137.536 722.936 137.152 723.48C136.768 724.013 136.219 724.429 135.504 724.728C134.8 725.016 133.968 725.16 133.008 725.16ZM144.563 725V715.848H140.787V713.8H150.643V715.848H146.883V725H144.563ZM151.466 725L156.074 713.8H158.746L163.306 725H160.794L159.658 722.056H155.034L153.882 725H151.466ZM155.754 720.2H158.954L157.354 716.072L155.754 720.2ZM166.897 725V713.8H172.369C173.126 713.8 173.793 713.949 174.369 714.248C174.955 714.536 175.409 714.941 175.729 715.464C176.059 715.987 176.225 716.589 176.225 717.272C176.225 717.987 176.027 718.616 175.633 719.16C175.238 719.704 174.71 720.109 174.049 720.376L176.529 725H173.937L171.745 720.712H169.217V725H166.897ZM169.217 718.808H172.161C172.683 718.808 173.099 718.669 173.409 718.392C173.729 718.115 173.889 717.752 173.889 717.304C173.889 716.856 173.729 716.493 173.409 716.216C173.099 715.939 172.683 715.8 172.161 715.8H169.217V718.808ZM183.343 725V715.848H179.567V713.8H189.423V715.848H185.663V725H183.343ZM199.223 725V713.8H201.431L206.999 721.032V713.8H209.175V725H207.127L201.415 717.512V725H199.223ZM219.335 725.176C218.503 725.176 217.73 725.032 217.015 724.744C216.301 724.445 215.671 724.035 215.127 723.512C214.594 722.979 214.173 722.365 213.863 721.672C213.565 720.968 213.415 720.211 213.415 719.4C213.415 718.589 213.565 717.837 213.863 717.144C214.173 716.44 214.594 715.827 215.127 715.304C215.671 714.771 216.301 714.36 217.015 714.072C217.73 713.773 218.503 713.624 219.335 713.624C220.167 713.624 220.941 713.773 221.655 714.072C222.381 714.36 223.01 714.771 223.543 715.304C224.087 715.827 224.509 716.44 224.807 717.144C225.106 717.837 225.255 718.589 225.255 719.4C225.255 720.211 225.106 720.968 224.807 721.672C224.509 722.365 224.087 722.979 223.543 723.512C223.01 724.035 222.381 724.445 221.655 724.744C220.941 725.032 220.167 725.176 219.335 725.176ZM219.335 723.048C219.847 723.048 220.317 722.957 220.743 722.776C221.17 722.584 221.543 722.328 221.863 722.008C222.183 721.677 222.434 721.288 222.615 720.84C222.797 720.392 222.887 719.912 222.887 719.4C222.887 718.877 222.797 718.397 222.615 717.96C222.434 717.512 222.183 717.128 221.863 716.808C221.543 716.477 221.17 716.221 220.743 716.04C220.317 715.848 219.847 715.752 219.335 715.752C218.834 715.752 218.37 715.848 217.943 716.04C217.517 716.221 217.143 716.477 216.823 716.808C216.503 717.128 216.253 717.512 216.071 717.96C215.89 718.397 215.799 718.872 215.799 719.384C215.799 719.907 215.89 720.392 216.071 720.84C216.253 721.288 216.503 721.677 216.823 722.008C217.143 722.328 217.517 722.584 217.943 722.776C218.37 722.957 218.834 723.048 219.335 723.048ZM231.157 725L228.677 713.8H231.061L232.581 721.384L234.757 713.8H236.949L239.125 721.368L240.645 713.8H242.949L240.485 725H238.037L235.829 717.192L233.589 725H231.157Z" fill="white"/>
<path d="M48.36 777V773.784L44.928 768.6H46.932L49.284 772.248L51.648 768.6H53.544L50.1 773.796V777H48.36ZM57.4963 777.12C56.8723 777.12 56.3083 776.976 55.8043 776.688C55.3003 776.4 54.9003 776.012 54.6043 775.524C54.3083 775.036 54.1603 774.488 54.1603 773.88C54.1603 773.272 54.3043 772.724 54.5923 772.236C54.8883 771.74 55.2883 771.348 55.7923 771.06C56.3043 770.772 56.8723 770.628 57.4963 770.628C58.1203 770.628 58.6843 770.772 59.1883 771.06C59.7003 771.348 60.1003 771.74 60.3883 772.236C60.6843 772.724 60.8323 773.272 60.8323 773.88C60.8323 774.488 60.6843 775.036 60.3883 775.524C60.1003 776.012 59.7043 776.4 59.2003 776.688C58.6963 776.976 58.1283 777.12 57.4963 777.12ZM57.4963 775.692C57.8243 775.692 58.1163 775.612 58.3723 775.452C58.6363 775.292 58.8443 775.076 58.9963 774.804C59.1563 774.524 59.2363 774.216 59.2363 773.88C59.2363 773.536 59.1563 773.228 58.9963 772.956C58.8443 772.684 58.6363 772.468 58.3723 772.308C58.1163 772.14 57.8243 772.056 57.4963 772.056C57.1763 772.056 56.8843 772.14 56.6203 772.308C56.3563 772.468 56.1483 772.684 55.9963 772.956C55.8443 773.228 55.7683 773.536 55.7683 773.88C55.7683 774.216 55.8443 774.524 55.9963 774.804C56.1483 775.076 56.3563 775.292 56.6203 775.452C56.8843 775.612 57.1763 775.692 57.4963 775.692ZM66.2468 777.12C65.7668 777.12 65.3388 777.016 64.9628 776.808C64.5948 776.592 64.3028 776.296 64.0868 775.92C63.8788 775.544 63.7748 775.112 63.7748 774.624V770.748H65.4188V774.384C65.4188 774.784 65.5348 775.104 65.7668 775.344C66.0068 775.584 66.3268 775.704 66.7268 775.704C66.9988 775.704 67.2428 775.652 67.4588 775.548C67.6828 775.436 67.8668 775.28 68.0108 775.08V770.748H69.6548V777H68.0108V776.496C67.5308 776.912 66.9428 777.12 66.2468 777.12ZM79.3022 777.108C78.8542 777.108 78.4582 777.028 78.1142 776.868C77.7702 776.7 77.5022 776.472 77.3102 776.184C77.1182 775.896 77.0222 775.564 77.0222 775.188C77.0222 774.588 77.2462 774.124 77.6942 773.796C78.1502 773.46 78.7742 773.292 79.5662 773.292C80.1102 773.292 80.6222 773.376 81.1022 773.544V773.088C81.1022 772.728 80.9902 772.456 80.7662 772.272C80.5422 772.088 80.2142 771.996 79.7822 771.996C79.5182 771.996 79.2342 772.04 78.9302 772.128C78.6262 772.208 78.2742 772.336 77.8742 772.512L77.2742 771.3C77.7702 771.076 78.2422 770.908 78.6902 770.796C79.1462 770.684 79.6022 770.628 80.0582 770.628C80.8982 770.628 81.5502 770.832 82.0142 771.24C82.4862 771.64 82.7222 772.208 82.7222 772.944V777H81.1022V776.556C80.8462 776.748 80.5702 776.888 80.2742 776.976C79.9782 777.064 79.6542 777.108 79.3022 777.108ZM78.5822 775.152C78.5822 775.392 78.6862 775.584 78.8942 775.728C79.1022 775.864 79.3782 775.932 79.7222 775.932C79.9942 775.932 80.2462 775.9 80.4782 775.836C80.7102 775.764 80.9182 775.66 81.1022 775.524V774.612C80.9022 774.532 80.6942 774.472 80.4782 774.432C80.2622 774.392 80.0302 774.372 79.7822 774.372C79.4062 774.372 79.1102 774.444 78.8942 774.588C78.6862 774.724 78.5822 774.912 78.5822 775.152ZM85.9464 777V768.6L87.5904 768.324V777H85.9464ZM90.8561 777V770.748H92.5001V771.444C92.7001 771.172 92.9401 770.964 93.2201 770.82C93.5001 770.676 93.8161 770.604 94.1681 770.604C94.4721 770.612 94.7001 770.66 94.8521 770.748V772.188C94.7321 772.132 94.6001 772.092 94.4561 772.068C94.3121 772.036 94.1641 772.02 94.0121 772.02C93.6921 772.02 93.4001 772.1 93.1361 772.26C92.8721 772.42 92.6601 772.648 92.5001 772.944V777H90.8561ZM100.548 777.12C99.9245 777.12 99.3565 776.976 98.8445 776.688C98.3405 776.4 97.9405 776.012 97.6445 775.524C97.3485 775.036 97.2005 774.488 97.2005 773.88C97.2005 773.272 97.3405 772.724 97.6205 772.236C97.9085 771.748 98.2965 771.36 98.7845 771.072C99.2725 770.784 99.8165 770.64 100.416 770.64C101.016 770.64 101.548 770.788 102.012 771.084C102.476 771.38 102.84 771.78 103.104 772.284C103.376 772.788 103.512 773.36 103.512 774V774.432H98.8805C98.9525 774.68 99.0685 774.904 99.2285 775.104C99.3965 775.304 99.6005 775.46 99.8405 775.572C100.088 775.684 100.352 775.74 100.632 775.74C100.912 775.74 101.168 775.696 101.4 775.608C101.64 775.52 101.844 775.396 102.012 775.236L103.092 776.22C102.708 776.532 102.312 776.76 101.904 776.904C101.504 777.048 101.052 777.12 100.548 777.12ZM98.8565 773.256H101.892C101.836 773.008 101.732 772.792 101.58 772.608C101.436 772.416 101.26 772.268 101.052 772.164C100.852 772.052 100.628 771.996 100.38 771.996C100.124 771.996 99.8925 772.048 99.6845 772.152C99.4765 772.256 99.3005 772.404 99.1565 772.596C99.0205 772.78 98.9205 773 98.8565 773.256ZM108.457 777.108C108.009 777.108 107.613 777.028 107.269 776.868C106.925 776.7 106.657 776.472 106.465 776.184C106.273 775.896 106.177 775.564 106.177 775.188C106.177 774.588 106.401 774.124 106.849 773.796C107.305 773.46 107.929 773.292 108.721 773.292C109.265 773.292 109.777 773.376 110.257 773.544V773.088C110.257 772.728 110.145 772.456 109.921 772.272C109.697 772.088 109.369 771.996 108.937 771.996C108.673 771.996 108.389 772.04 108.085 772.128C107.781 772.208 107.429 772.336 107.029 772.512L106.429 771.3C106.925 771.076 107.397 770.908 107.845 770.796C108.301 770.684 108.757 770.628 109.213 770.628C110.053 770.628 110.705 770.832 111.169 771.24C111.641 771.64 111.877 772.208 111.877 772.944V777H110.257V776.556C110.001 776.748 109.725 776.888 109.429 776.976C109.133 777.064 108.809 777.108 108.457 777.108ZM107.737 775.152C107.737 775.392 107.841 775.584 108.049 775.728C108.257 775.864 108.533 775.932 108.877 775.932C109.149 775.932 109.401 775.9 109.633 775.836C109.865 775.764 110.073 775.66 110.257 775.524V774.612C110.057 774.532 109.849 774.472 109.633 774.432C109.417 774.392 109.185 774.372 108.937 774.372C108.561 774.372 108.265 774.444 108.049 774.588C107.841 774.724 107.737 774.912 107.737 775.152ZM117.993 777.084C117.401 777.084 116.865 776.94 116.385 776.652C115.905 776.364 115.521 775.98 115.233 775.5C114.953 775.012 114.813 774.468 114.813 773.868C114.813 773.268 114.953 772.728 115.233 772.248C115.521 771.76 115.909 771.376 116.397 771.096C116.885 770.808 117.433 770.664 118.041 770.664C118.353 770.664 118.653 770.708 118.941 770.796C119.229 770.876 119.497 770.996 119.745 771.156V768.6L121.389 768.324V777H119.769V776.484C119.257 776.884 118.665 777.084 117.993 777.084ZM118.257 775.68C118.561 775.68 118.837 775.632 119.085 775.536C119.341 775.432 119.561 775.28 119.745 775.08V772.644C119.561 772.46 119.341 772.316 119.085 772.212C118.829 772.108 118.553 772.056 118.257 772.056C117.913 772.056 117.601 772.136 117.321 772.296C117.049 772.448 116.833 772.664 116.673 772.944C116.513 773.216 116.433 773.524 116.433 773.868C116.433 774.212 116.513 774.52 116.673 774.792C116.833 775.064 117.049 775.28 117.321 775.44C117.601 775.6 117.913 775.68 118.257 775.68ZM125.263 779.58C125.119 779.58 124.979 779.572 124.843 779.556C124.715 779.548 124.607 779.536 124.519 779.52V778.104C124.679 778.136 124.871 778.152 125.095 778.152C125.695 778.152 126.111 777.868 126.343 777.3L126.439 777.06L124.003 770.748H125.815L127.375 775.008L129.139 770.748H130.915L128.035 777.504C127.819 778.008 127.583 778.412 127.327 778.716C127.071 779.02 126.775 779.24 126.439 779.376C126.111 779.512 125.719 779.58 125.263 779.58ZM137.951 777V768.6L139.595 768.24V771.264C140.067 770.84 140.651 770.628 141.347 770.628C141.835 770.628 142.263 770.736 142.631 770.952C143.007 771.16 143.299 771.452 143.507 771.828C143.715 772.196 143.819 772.628 143.819 773.124V777H142.175V773.364C142.175 772.956 142.059 772.636 141.827 772.404C141.595 772.164 141.279 772.044 140.879 772.044C140.599 772.044 140.351 772.1 140.135 772.212C139.919 772.316 139.739 772.468 139.595 772.668V777H137.951ZM149.036 777.108C148.588 777.108 148.192 777.028 147.848 776.868C147.504 776.7 147.236 776.472 147.044 776.184C146.852 775.896 146.756 775.564 146.756 775.188C146.756 774.588 146.98 774.124 147.428 773.796C147.884 773.46 148.508 773.292 149.3 773.292C149.844 773.292 150.356 773.376 150.836 773.544V773.088C150.836 772.728 150.724 772.456 150.5 772.272C150.276 772.088 149.948 771.996 149.516 771.996C149.252 771.996 148.968 772.04 148.664 772.128C148.36 772.208 148.008 772.336 147.608 772.512L147.008 771.3C147.504 771.076 147.976 770.908 148.424 770.796C148.88 770.684 149.336 770.628 149.792 770.628C150.632 770.628 151.284 770.832 151.748 771.24C152.22 771.64 152.456 772.208 152.456 772.944V777H150.836V776.556C150.58 776.748 150.304 776.888 150.008 776.976C149.712 777.064 149.388 777.108 149.036 777.108ZM148.316 775.152C148.316 775.392 148.42 775.584 148.628 775.728C148.836 775.864 149.112 775.932 149.456 775.932C149.728 775.932 149.98 775.9 150.212 775.836C150.444 775.764 150.652 775.66 150.836 775.524V774.612C150.636 774.532 150.428 774.472 150.212 774.432C149.996 774.392 149.764 774.372 149.516 774.372C149.14 774.372 148.844 774.444 148.628 774.588C148.42 774.724 148.316 774.912 148.316 775.152ZM157.369 777L154.693 770.748H156.481L158.197 774.912L159.901 770.748H161.653L158.965 777H157.369ZM167.166 777.12C166.542 777.12 165.974 776.976 165.462 776.688C164.958 776.4 164.558 776.012 164.262 775.524C163.966 775.036 163.818 774.488 163.818 773.88C163.818 773.272 163.958 772.724 164.238 772.236C164.526 771.748 164.914 771.36 165.402 771.072C165.89 770.784 166.434 770.64 167.034 770.64C167.634 770.64 168.166 770.788 168.63 771.084C169.094 771.38 169.458 771.78 169.722 772.284C169.994 772.788 170.13 773.36 170.13 774V774.432H165.498C165.57 774.68 165.686 774.904 165.846 775.104C166.014 775.304 166.218 775.46 166.458 775.572C166.706 775.684 166.97 775.74 167.25 775.74C167.53 775.74 167.786 775.696 168.018 775.608C168.258 775.52 168.462 775.396 168.63 775.236L169.71 776.22C169.326 776.532 168.93 776.76 168.522 776.904C168.122 777.048 167.67 777.12 167.166 777.12ZM165.474 773.256H168.51C168.454 773.008 168.35 772.792 168.198 772.608C168.054 772.416 167.878 772.268 167.67 772.164C167.47 772.052 167.246 771.996 166.998 771.996C166.742 771.996 166.51 772.048 166.302 772.152C166.094 772.256 165.918 772.404 165.774 772.596C165.638 772.78 165.538 773 165.474 773.256ZM179.503 777.108C179.055 777.108 178.659 777.028 178.315 776.868C177.971 776.7 177.703 776.472 177.511 776.184C177.319 775.896 177.223 775.564 177.223 775.188C177.223 774.588 177.447 774.124 177.895 773.796C178.351 773.46 178.975 773.292 179.767 773.292C180.311 773.292 180.823 773.376 181.303 773.544V773.088C181.303 772.728 181.191 772.456 180.967 772.272C180.743 772.088 180.415 771.996 179.983 771.996C179.719 771.996 179.435 772.04 179.131 772.128C178.827 772.208 178.475 772.336 178.075 772.512L177.475 771.3C177.971 771.076 178.443 770.908 178.891 770.796C179.347 770.684 179.803 770.628 180.259 770.628C181.099 770.628 181.751 770.832 182.215 771.24C182.687 771.64 182.923 772.208 182.923 772.944V777H181.303V776.556C181.047 776.748 180.771 776.888 180.475 776.976C180.179 777.064 179.855 777.108 179.503 777.108ZM178.783 775.152C178.783 775.392 178.887 775.584 179.095 775.728C179.303 775.864 179.579 775.932 179.923 775.932C180.195 775.932 180.447 775.9 180.679 775.836C180.911 775.764 181.119 775.66 181.303 775.524V774.612C181.103 774.532 180.895 774.472 180.679 774.432C180.463 774.392 180.231 774.372 179.983 774.372C179.607 774.372 179.311 774.444 179.095 774.588C178.887 774.724 178.783 774.912 178.783 775.152ZM186.147 777V770.748H187.791V771.264C188.263 770.84 188.847 770.628 189.543 770.628C190.031 770.628 190.459 770.736 190.827 770.952C191.203 771.16 191.495 771.452 191.703 771.828C191.911 772.196 192.015 772.628 192.015 773.124V777H190.371V773.364C190.371 772.956 190.255 772.636 190.023 772.404C189.791 772.164 189.475 772.044 189.075 772.044C188.795 772.044 188.547 772.1 188.331 772.212C188.115 772.316 187.935 772.468 187.791 772.668V777H186.147ZM201.627 777.108C201.179 777.108 200.783 777.028 200.439 776.868C200.095 776.7 199.827 776.472 199.635 776.184C199.443 775.896 199.347 775.564 199.347 775.188C199.347 774.588 199.571 774.124 200.019 773.796C200.475 773.46 201.099 773.292 201.891 773.292C202.435 773.292 202.947 773.376 203.427 773.544V773.088C203.427 772.728 203.315 772.456 203.091 772.272C202.867 772.088 202.539 771.996 202.107 771.996C201.843 771.996 201.559 772.04 201.255 772.128C200.951 772.208 200.599 772.336 200.199 772.512L199.599 771.3C200.095 771.076 200.567 770.908 201.015 770.796C201.471 770.684 201.927 770.628 202.383 770.628C203.223 770.628 203.875 770.832 204.339 771.24C204.811 771.64 205.047 772.208 205.047 772.944V777H203.427V776.556C203.171 776.748 202.895 776.888 202.599 776.976C202.303 777.064 201.979 777.108 201.627 777.108ZM200.907 775.152C200.907 775.392 201.011 775.584 201.219 775.728C201.427 775.864 201.703 775.932 202.047 775.932C202.319 775.932 202.571 775.9 202.803 775.836C203.035 775.764 203.243 775.66 203.427 775.524V774.612C203.227 774.532 203.019 774.472 202.803 774.432C202.587 774.392 202.355 774.372 202.107 774.372C201.731 774.372 201.435 774.444 201.219 774.588C201.011 774.724 200.907 774.912 200.907 775.152ZM211.259 777.12C210.643 777.12 210.087 776.98 209.591 776.7C209.095 776.412 208.703 776.024 208.415 775.536C208.127 775.04 207.983 774.488 207.983 773.88C207.983 773.264 208.127 772.712 208.415 772.224C208.703 771.736 209.095 771.348 209.591 771.06C210.087 770.772 210.643 770.628 211.259 770.628C211.755 770.628 212.227 770.724 212.675 770.916C213.131 771.108 213.523 771.384 213.851 771.744L212.843 772.812C212.611 772.556 212.367 772.368 212.111 772.248C211.863 772.12 211.591 772.056 211.295 772.056C210.975 772.056 210.687 772.136 210.431 772.296C210.183 772.456 209.983 772.672 209.831 772.944C209.687 773.216 209.615 773.528 209.615 773.88C209.615 774.216 209.687 774.524 209.831 774.804C209.983 775.076 210.191 775.292 210.455 775.452C210.719 775.604 211.011 775.68 211.331 775.68C211.611 775.68 211.871 775.624 212.111 775.512C212.359 775.392 212.595 775.216 212.819 774.984L213.803 776.016C213.483 776.36 213.099 776.632 212.651 776.832C212.203 777.024 211.739 777.12 211.259 777.12ZM219.45 777.12C218.834 777.12 218.278 776.98 217.782 776.7C217.286 776.412 216.894 776.024 216.606 775.536C216.318 775.04 216.174 774.488 216.174 773.88C216.174 773.264 216.318 772.712 216.606 772.224C216.894 771.736 217.286 771.348 217.782 771.06C218.278 770.772 218.834 770.628 219.45 770.628C219.946 770.628 220.418 770.724 220.866 770.916C221.322 771.108 221.714 771.384 222.042 771.744L221.034 772.812C220.802 772.556 220.558 772.368 220.302 772.248C220.054 772.12 219.782 772.056 219.486 772.056C219.166 772.056 218.878 772.136 218.622 772.296C218.374 772.456 218.174 772.672 218.022 772.944C217.878 773.216 217.806 773.528 217.806 773.88C217.806 774.216 217.878 774.524 218.022 774.804C218.174 775.076 218.382 775.292 218.646 775.452C218.91 775.604 219.202 775.68 219.522 775.68C219.802 775.68 220.062 775.624 220.302 775.512C220.55 775.392 220.786 775.216 221.01 774.984L221.994 776.016C221.674 776.36 221.29 776.632 220.842 776.832C220.394 777.024 219.93 777.12 219.45 777.12ZM227.701 777.12C227.077 777.12 226.513 776.976 226.009 776.688C225.505 776.4 225.105 776.012 224.809 775.524C224.513 775.036 224.365 774.488 224.365 773.88C224.365 773.272 224.509 772.724 224.797 772.236C225.093 771.74 225.493 771.348 225.997 771.06C226.509 770.772 227.077 770.628 227.701 770.628C228.325 770.628 228.889 770.772 229.393 771.06C229.905 771.348 230.305 771.74 230.593 772.236C230.889 772.724 231.037 773.272 231.037 773.88C231.037 774.488 230.889 775.036 230.593 775.524C230.305 776.012 229.909 776.4 229.405 776.688C228.901 776.976 228.333 777.12 227.701 777.12ZM227.701 775.692C228.029 775.692 228.321 775.612 228.577 775.452C228.841 775.292 229.049 775.076 229.201 774.804C229.361 774.524 229.441 774.216 229.441 773.88C229.441 773.536 229.361 773.228 229.201 772.956C229.049 772.684 228.841 772.468 228.577 772.308C228.321 772.14 228.029 772.056 227.701 772.056C227.381 772.056 227.089 772.14 226.825 772.308C226.561 772.468 226.353 772.684 226.201 772.956C226.049 773.228 225.973 773.536 225.973 773.88C225.973 774.216 226.049 774.524 226.201 774.804C226.353 775.076 226.561 775.292 226.825 775.452C227.089 775.612 227.381 775.692 227.701 775.692ZM236.451 777.12C235.971 777.12 235.543 777.016 235.167 776.808C234.799 776.592 234.507 776.296 234.291 775.92C234.083 775.544 233.979 775.112 233.979 774.624V770.748H235.623V774.384C235.623 774.784 235.739 775.104 235.971 775.344C236.211 775.584 236.531 775.704 236.931 775.704C237.203 775.704 237.447 775.652 237.663 775.548C237.887 775.436 238.071 775.28 238.215 775.08V770.748H239.859V777H238.215V776.496C237.735 776.912 237.147 777.12 236.451 777.12ZM243.121 777V770.748H244.765V771.264C245.237 770.84 245.821 770.628 246.517 770.628C247.005 770.628 247.433 770.736 247.801 770.952C248.177 771.16 248.469 771.452 248.677 771.828C248.885 772.196 248.989 772.628 248.989 773.124V777H247.345V773.364C247.345 772.956 247.229 772.636 246.997 772.404C246.765 772.164 246.449 772.044 246.049 772.044C245.769 772.044 245.521 772.1 245.305 772.212C245.089 772.316 244.909 772.468 244.765 772.668V777H243.121ZM255.002 777.096C254.306 777.096 253.778 776.94 253.418 776.628C253.066 776.308 252.89 775.844 252.89 775.236V772.116H251.606V770.748H252.89V769.152L254.534 768.78V770.748H256.322V772.116H254.534V774.9C254.534 775.188 254.598 775.396 254.726 775.524C254.854 775.644 255.078 775.704 255.398 775.704C255.558 775.704 255.702 775.696 255.83 775.68C255.966 775.656 256.114 775.616 256.274 775.56V776.916C256.106 776.972 255.894 777.016 255.638 777.048C255.39 777.08 255.178 777.096 255.002 777.096ZM260.745 774.444C260.729 774.076 260.745 773.764 260.793 773.508C260.841 773.252 260.937 773.024 261.081 772.824C261.225 772.616 261.421 772.42 261.669 772.236L262.293 771.792C262.541 771.608 262.717 771.44 262.821 771.288C262.933 771.128 262.989 770.964 262.989 770.796C262.989 770.612 262.933 770.452 262.821 770.316C262.709 770.172 262.557 770.06 262.365 769.98C262.173 769.892 261.953 769.848 261.705 769.848C261.345 769.848 261.013 769.94 260.709 770.124C260.405 770.308 260.173 770.556 260.013 770.868L258.693 770.316C258.869 769.932 259.109 769.604 259.413 769.332C259.717 769.06 260.069 768.848 260.469 768.696C260.877 768.544 261.309 768.468 261.765 768.468C262.309 768.468 262.793 768.568 263.217 768.768C263.641 768.96 263.977 769.224 264.225 769.56C264.473 769.896 264.597 770.28 264.597 770.712C264.597 771 264.549 771.26 264.453 771.492C264.365 771.716 264.213 771.936 263.997 772.152C263.781 772.368 263.485 772.604 263.109 772.86L262.785 773.088C262.529 773.256 262.349 773.444 262.245 773.652C262.149 773.86 262.109 774.124 262.125 774.444H260.745ZM261.441 777.12C261.177 777.12 260.949 777.024 260.757 776.832C260.565 776.64 260.469 776.412 260.469 776.148C260.469 775.876 260.565 775.644 260.757 775.452C260.949 775.26 261.177 775.164 261.441 775.164C261.705 775.164 261.933 775.26 262.125 775.452C262.317 775.644 262.413 775.876 262.413 776.148C262.413 776.412 262.317 776.64 262.125 776.832C261.933 777.024 261.705 777.12 261.441 777.12Z" fill="white"/>
<path d="M283.756 777.12C283.076 777.12 282.412 776.996 281.764 776.748C281.116 776.492 280.54 776.132 280.036 775.668L281.032 774.42C281.52 774.852 281.988 775.164 282.436 775.356C282.892 775.548 283.372 775.644 283.876 775.644C284.228 775.644 284.532 775.604 284.788 775.524C285.044 775.436 285.24 775.312 285.376 775.152C285.52 774.992 285.592 774.804 285.592 774.588C285.592 774.3 285.488 774.08 285.28 773.928C285.072 773.768 284.716 773.644 284.212 773.556L282.544 773.268C281.832 773.148 281.288 772.896 280.912 772.512C280.544 772.128 280.36 771.632 280.36 771.024C280.36 770.504 280.492 770.052 280.756 769.668C281.028 769.284 281.408 768.992 281.896 768.792C282.392 768.584 282.98 768.48 283.66 768.48C284.276 768.48 284.888 768.584 285.496 768.792C286.112 769 286.656 769.288 287.128 769.656L286.192 770.952C285.312 770.28 284.428 769.944 283.54 769.944C283.228 769.944 282.956 769.984 282.724 770.064C282.492 770.144 282.312 770.256 282.184 770.4C282.064 770.536 282.004 770.7 282.004 770.892C282.004 771.148 282.096 771.348 282.28 771.492C282.464 771.628 282.772 771.732 283.204 771.804L284.788 772.068C285.628 772.204 286.256 772.472 286.672 772.872C287.088 773.264 287.296 773.784 287.296 774.432C287.296 774.976 287.152 775.452 286.864 775.86C286.576 776.26 286.164 776.572 285.628 776.796C285.1 777.012 284.476 777.12 283.756 777.12ZM290.198 777V770.748H291.842V777H290.198ZM291.014 770.004C290.758 770.004 290.538 769.912 290.354 769.728C290.17 769.544 290.078 769.324 290.078 769.068C290.078 768.804 290.17 768.584 290.354 768.408C290.538 768.224 290.758 768.132 291.014 768.132C291.278 768.132 291.498 768.224 291.674 768.408C291.858 768.584 291.95 768.804 291.95 769.068C291.95 769.324 291.858 769.544 291.674 769.728C291.498 769.912 291.278 770.004 291.014 770.004ZM298.252 779.568C297.772 779.568 297.308 779.516 296.86 779.412C296.412 779.316 296.008 779.176 295.648 778.992L296.224 777.72C296.568 777.888 296.904 778.012 297.232 778.092C297.56 778.172 297.888 778.212 298.216 778.212C298.704 778.212 299.072 778.108 299.32 777.9C299.576 777.692 299.704 777.38 299.704 776.964V776.472C299.192 776.848 298.62 777.036 297.988 777.036C297.396 777.036 296.86 776.896 296.38 776.616C295.908 776.328 295.528 775.94 295.24 775.452C294.96 774.964 294.82 774.424 294.82 773.832C294.82 773.24 294.96 772.704 295.24 772.224C295.528 771.744 295.916 771.364 296.404 771.084C296.892 770.796 297.436 770.652 298.036 770.652C298.34 770.652 298.636 770.696 298.924 770.784C299.212 770.872 299.48 770.996 299.728 771.156V770.748H301.348V776.988C301.348 777.812 301.08 778.448 300.544 778.896C300.016 779.344 299.252 779.568 298.252 779.568ZM298.24 775.644C298.544 775.644 298.82 775.596 299.068 775.5C299.316 775.396 299.528 775.252 299.704 775.068V772.62C299.528 772.444 299.312 772.308 299.056 772.212C298.808 772.108 298.54 772.056 298.252 772.056C297.908 772.056 297.6 772.136 297.328 772.296C297.056 772.448 296.84 772.66 296.68 772.932C296.52 773.196 296.44 773.496 296.44 773.832C296.44 774.176 296.516 774.484 296.668 774.756C296.828 775.028 297.044 775.244 297.316 775.404C297.596 775.564 297.904 775.644 298.24 775.644ZM304.611 777V770.748H306.255V771.264C306.727 770.84 307.311 770.628 308.007 770.628C308.495 770.628 308.923 770.736 309.291 770.952C309.667 771.16 309.959 771.452 310.167 771.828C310.375 772.196 310.479 772.628 310.479 773.124V777H308.835V773.364C308.835 772.956 308.719 772.636 308.487 772.404C308.255 772.164 307.939 772.044 307.539 772.044C307.259 772.044 307.011 772.1 306.795 772.212C306.579 772.316 306.399 772.468 306.255 772.668V777H304.611ZM318.207 777V768.6H319.947V777H318.207ZM323.348 777V770.748H324.992V771.264C325.464 770.84 326.048 770.628 326.744 770.628C327.232 770.628 327.66 770.736 328.028 770.952C328.404 771.16 328.696 771.452 328.904 771.828C329.112 772.196 329.216 772.628 329.216 773.124V777H327.572V773.364C327.572 772.956 327.456 772.636 327.224 772.404C326.992 772.164 326.676 772.044 326.276 772.044C325.996 772.044 325.748 772.1 325.532 772.212C325.316 772.316 325.136 772.468 324.992 772.668V777H323.348Z" fill="#FF2E63"/>
<path d="M58 510C58.1116 510.892 59.1207 510.56 58 510" stroke="white" stroke-width="3" stroke-linecap="round"/>
<path d="M45 384C45.1116 384.892 46.1207 384.56 45 384" stroke="white" stroke-width="3" stroke-linecap="round"/>
<path d="M230 509C230.112 509.892 231.121 509.56 230 509" stroke="white" stroke-width="3" stroke-linecap="round"/>
<path fill-rule="evenodd" clip-rule="evenodd" d="M57.4887 161.068L57.5 161L57.5113 161.068C58.1458 161.099 58.6716 163.748 58.7764 167.224C62.2521 167.328 64.9005 167.854 64.9315 168.489L65 168.5L64.9315 168.511C64.9005 169.146 62.2521 169.672 58.7764 169.776C58.6716 173.252 58.1458 175.9 57.5113 175.932L57.5 176L57.4887 175.932C56.8542 175.9 56.3284 173.252 56.2236 169.776C52.7478 169.672 50.0995 169.146 50.0685 168.511L50 168.5L50.0685 168.489C50.0995 167.854 52.7478 167.328 56.2236 167.224C56.3284 163.748 56.8542 161.099 57.4887 161.068ZM57.5682 161.414C57.6228 161.484 57.6857 161.595 57.7521 161.756C57.896 162.105 58.0315 162.627 58.1474 163.292C58.3226 164.297 58.448 165.599 58.4983 167.061L57.5682 161.414ZM56.5017 167.061L57.4318 161.414C57.3772 161.484 57.3143 161.595 57.2479 161.756C57.104 162.105 56.9685 162.627 56.8527 163.292C56.6774 164.297 56.552 165.599 56.5017 167.061ZM58.9393 167.502C60.4007 167.552 61.703 167.677 62.7083 167.853C63.3731 167.969 63.8947 168.104 64.2439 168.248C64.4049 168.314 64.5161 168.377 64.5859 168.432L58.9393 167.502ZM64.5859 168.568L58.9393 169.498C60.4007 169.448 61.703 169.323 62.7083 169.147C63.3731 169.031 63.8947 168.896 64.2439 168.752C64.4049 168.686 64.5161 168.623 64.5859 168.568ZM58.4983 169.939L57.5682 175.586C57.6228 175.516 57.6857 175.405 57.7521 175.244C57.896 174.895 58.0315 174.373 58.1474 173.708C58.3226 172.703 58.448 171.401 58.4983 169.939ZM57.4318 175.586L56.5017 169.939C56.552 171.401 56.6774 172.703 56.8527 173.708C56.9685 174.373 57.104 174.895 57.2479 175.244C57.3143 175.405 57.3772 175.516 57.4318 175.586ZM56.0606 169.498L50.4141 168.568C50.4838 168.623 50.5951 168.686 50.7561 168.752C51.1053 168.896 51.6269 169.031 52.2917 169.147C53.297 169.323 54.5993 169.448 56.0606 169.498ZM50.4141 168.432L56.0606 167.502C54.5993 167.552 53.297 167.677 52.2917 167.853C51.6269 167.969 51.1053 168.104 50.7561 168.248C50.5951 168.314 50.4838 168.377 50.4141 168.432Z" fill="white"/>
<path fill-rule="evenodd" clip-rule="evenodd" d="M338.489 592.068L338.5 592L338.511 592.068C339.146 592.099 339.672 594.748 339.776 598.224C343.252 598.328 345.901 598.854 345.932 599.489L346 599.5L345.932 599.511C345.901 600.146 343.252 600.672 339.776 600.776C339.672 604.252 339.146 606.9 338.511 606.932L338.5 607L338.489 606.932C337.854 606.9 337.328 604.252 337.224 600.776C333.748 600.672 331.1 600.146 331.068 599.511L331 599.5L331.068 599.489C331.1 598.854 333.748 598.328 337.224 598.224C337.328 594.748 337.854 592.099 338.489 592.068ZM338.568 592.414C338.623 592.484 338.686 592.595 338.752 592.756C338.896 593.105 339.031 593.627 339.147 594.292C339.323 595.297 339.448 596.599 339.498 598.061L338.568 592.414ZM337.502 598.061L338.432 592.414C338.377 592.484 338.314 592.595 338.248 592.756C338.104 593.105 337.969 593.627 337.853 594.292C337.677 595.297 337.552 596.599 337.502 598.061ZM339.939 598.502C341.401 598.552 342.703 598.677 343.708 598.853C344.373 598.969 344.895 599.104 345.244 599.248C345.405 599.314 345.516 599.377 345.586 599.432L339.939 598.502ZM345.586 599.568L339.939 600.498C341.401 600.448 342.703 600.323 343.708 600.147C344.373 600.031 344.895 599.896 345.244 599.752C345.405 599.686 345.516 599.623 345.586 599.568ZM339.498 600.939L338.568 606.586C338.623 606.516 338.686 606.405 338.752 606.244C338.896 605.895 339.031 605.373 339.147 604.708C339.323 603.703 339.448 602.401 339.498 600.939ZM338.432 606.586L337.502 600.939C337.552 602.401 337.677 603.703 337.853 604.708C337.969 605.373 338.104 605.895 338.248 606.244C338.314 606.405 338.377 606.516 338.432 606.586ZM337.061 600.498L331.414 599.568C331.484 599.623 331.595 599.686 331.756 599.752C332.105 599.896 332.627 600.031 333.292 600.147C334.297 600.323 335.599 600.448 337.061 600.498ZM331.414 599.432L337.061 598.502C335.599 598.552 334.297 598.677 333.292 598.853C332.627 598.969 332.105 599.104 331.756 599.248C331.595 599.314 331.484 599.377 331.414 599.432Z" fill="white"/>
<path fill-rule="evenodd" clip-rule="evenodd" d="M312.489 169.068L312.5 169L312.511 169.068C313.146 169.099 313.672 171.748 313.776 175.224C317.252 175.328 319.901 175.854 319.932 176.489L320 176.5L319.932 176.511C319.901 177.146 317.252 177.672 313.776 177.776C313.672 181.252 313.146 183.9 312.511 183.932L312.5 184L312.489 183.932C311.854 183.9 311.328 181.252 311.224 177.776C307.748 177.672 305.1 177.146 305.068 176.511L305 176.5L305.068 176.489C305.1 175.854 307.748 175.328 311.224 175.224C311.328 171.748 311.854 169.099 312.489 169.068ZM312.568 169.414C312.623 169.484 312.686 169.595 312.752 169.756C312.896 170.105 313.031 170.627 313.147 171.292C313.323 172.297 313.448 173.599 313.498 175.061L312.568 169.414ZM311.502 175.061L312.432 169.414C312.377 169.484 312.314 169.595 312.248 169.756C312.104 170.105 311.969 170.627 311.853 171.292C311.677 172.297 311.552 173.599 311.502 175.061ZM313.939 175.502C315.401 175.552 316.703 175.677 317.708 175.853C318.373 175.969 318.895 176.104 319.244 176.248C319.405 176.314 319.516 176.377 319.586 176.432L313.939 175.502ZM319.586 176.568L313.939 177.498C315.401 177.448 316.703 177.323 317.708 177.147C318.373 177.031 318.895 176.896 319.244 176.752C319.405 176.686 319.516 176.623 319.586 176.568ZM313.498 177.939L312.568 183.586C312.623 183.516 312.686 183.405 312.752 183.244C312.896 182.895 313.031 182.373 313.147 181.708C313.323 180.703 313.448 179.401 313.498 177.939ZM312.432 183.586L311.502 177.939C311.552 179.401 311.677 180.703 311.853 181.708C311.969 182.373 312.104 182.895 312.248 183.244C312.314 183.405 312.377 183.516 312.432 183.586ZM311.061 177.498L305.414 176.568C305.484 176.623 305.595 176.686 305.756 176.752C306.105 176.896 306.627 177.031 307.292 177.147C308.297 177.323 309.599 177.448 311.061 177.498ZM305.414 176.432L311.061 175.502C309.599 175.552 308.297 175.677 307.292 175.853C306.627 175.969 306.105 176.104 305.756 176.248C305.595 176.314 305.484 176.377 305.414 176.432Z" fill="white"/>
<path d="M143.117 116L143.481 126.136L153.617 126.5L143.481 126.864L143.117 137L142.753 126.864L132.617 126.5L142.753 126.136L143.117 116Z" fill="white"/>
<path d="M24.5 586L24.8638 596.136L35 596.5L24.8638 596.864L24.5 607L24.1362 596.864L14 596.5L24.1362 596.136L24.5 586Z" fill="white"/>
<g clip-path="url(#clip1_1454_521)">
<path d="M205.905 434.651L208.529 440.534C206.396 440.195 204.413 442.016 204.369 444.356C204.324 446.695 206.226 449.129 208.359 449.461C207.951 451.277 206.192 452.078 204.666 452.812C203.139 453.546 201.494 454.764 201.607 456.699C201.698 458.253 202.983 459.625 204.347 460.176C205.712 460.728 207.143 460.643 208.525 460.551C206.431 462.741 206.227 466.859 208.066 469.813C209.904 472.767 213.576 474.221 216.326 473.084C214.383 475.502 214.805 479.928 217.216 482.423C219.647 484.938 223.169 485.181 226.249 484.916C234.091 484.253 241.563 481.291 247.73 476.401C250.084 474.53 252.283 472.33 253.626 469.459C254.969 466.589 255.364 462.955 254.114 459.689C254.451 463.781 258.545 467.012 262.229 467.193C265.912 467.374 269.128 465.299 271.861 462.932C275.496 459.785 278.861 455.374 278.362 449.931C278.115 447.237 276.938 444.645 275.784 442.135L273.547 437.268C272.644 435.304 271.72 433.306 270.361 431.657C269.001 430.009 267.114 428.732 265.226 428.744C265.658 426.772 266.091 424.725 265.729 422.629C265.368 420.533 263.982 418.362 262.098 417.871C259.7 417.247 257.668 419.46 255.256 419.251C252.936 419.051 251.018 416.721 248.765 415.798C247.837 415.397 246.812 415.275 245.816 415.447C244.82 415.619 243.896 416.079 243.157 416.768C241.728 418.163 241.133 420.52 241.645 422.75C242.094 424.703 243.289 426.426 244.015 428.31C244.74 430.194 244.853 432.616 243.46 433.645C241.779 434.886 239.22 433.197 237.907 431.153C236.593 429.109 235.839 426.634 234.178 424.915C232.218 422.887 229.15 422.411 227.132 423.824C225.114 425.236 224.342 428.398 225.359 431.087C226.191 433.285 228.097 435.509 227.436 437.579C226.738 439.766 223.681 439.489 221.837 437.943C219.994 436.397 218.769 434.068 216.948 432.487C215.099 430.882 212.683 430.179 210.563 430.628C209.487 430.877 208.492 431.394 207.668 432.13C206.845 432.866 206.22 433.797 205.852 434.838" fill="#E6E6E6"/>
<path d="M248.377 418.117L242.934 420.646C242.116 421.051 241.188 421.176 240.292 421.003C239.502 420.816 238.968 420.333 238.827 419.676L237.561 413.759C237.322 412.643 238.246 411.323 239.758 410.62L242.764 409.223C244.277 408.52 245.882 408.665 246.58 409.568L250.285 414.352C250.695 414.882 250.72 415.602 250.354 416.327C249.908 417.123 249.214 417.752 248.377 418.117Z" fill="#3F3D56"/>
<path d="M79.5967 308.759C84.7139 294.751 92.6997 281.965 103.043 271.221C111.818 262.11 125.474 262.489 125.474 262.489L125.552 262.392C128.839 258.338 133.25 255.345 138.231 253.788C143.212 252.232 148.542 252.181 153.552 253.643C154.854 254.017 155.855 254.183 156.332 254.016C165.016 250.976 164.608 244.114 172.101 238.586C185.22 228.907 228.736 239.994 234.872 257.805C239.845 272.24 262.044 279.236 270.338 290.278C271.635 292.004 272.908 293.751 274.155 295.517C274.741 296.338 275.319 297.165 275.891 297.998C281.767 306.509 287.039 315.423 291.667 324.672C294.702 330.716 297.339 336.951 299.563 343.337C308.212 368.628 305.254 387.471 281.405 382.816C278.582 382.264 275.827 381.769 273.139 381.333C269.248 380.698 265.492 380.176 261.871 379.767C256.996 379.212 252.358 378.849 247.957 378.677C246.478 378.617 245.025 378.578 243.6 378.557C222.523 378.265 206.889 382.233 194.979 388.392C192.96 389.433 191.047 390.535 189.239 391.697C186.478 393.462 183.842 395.416 181.349 397.543C177.9 400.504 174.719 403.764 171.843 407.285L171.685 407.479C157.755 424.522 153.17 443.39 143.48 446.712C102.057 460.916 75.8587 409.428 73.172 359.061C73.0363 356.523 72.9614 353.992 72.9472 351.468C72.9388 350.34 72.9443 349.216 72.9638 348.094C73.0063 345.166 73.1353 342.258 73.3514 339.385C73.432 338.287 73.5256 337.194 73.6321 336.107C73.7495 334.935 73.8771 333.77 74.0247 332.612C75.0784 324.126 76.9219 316.052 79.5967 308.759Z" fill="#FF2E63" fill-opacity="0.56"/>
<path d="M207.987 336.471C204.679 338.011 204.624 344.912 205.662 347.147L207.541 351.194L219.524 345.626L217.644 341.579C216.605 339.344 211.298 334.936 207.987 336.471Z" fill="#3F3D56"/>
<path d="M175.787 394.572C175.576 394.572 175.369 394.522 175.182 394.424C174.995 394.327 174.834 394.186 174.713 394.013C174.592 393.84 174.515 393.641 174.488 393.431C174.46 393.222 174.484 393.01 174.556 392.812C174.615 392.65 174.705 392.501 174.821 392.374C174.938 392.248 175.078 392.145 175.235 392.073L237.116 363.316C237.272 363.243 237.441 363.202 237.613 363.195C237.785 363.188 237.957 363.214 238.118 363.273C238.28 363.332 238.428 363.423 238.555 363.539C238.681 363.655 238.784 363.796 238.856 363.952C239.002 364.267 239.017 364.627 238.898 364.954C238.779 365.28 238.535 365.545 238.22 365.692L176.339 394.45C176.166 394.53 175.978 394.572 175.787 394.572Z" fill="#3F3D56"/>
<path d="M224.193 348.207L206.504 356.427L234.251 416.162L251.94 407.941L224.193 348.207Z" fill="#E6E6E6"/>
<path d="M157.79 273.01C154.482 274.551 154.427 281.451 155.464 283.687L157.344 287.734L169.327 282.165L167.447 278.118C166.408 275.883 161.1 271.475 157.79 273.01Z" fill="#3F3D56"/>
<path d="M231.912 424.984L226.469 427.513C225.651 427.918 224.723 428.043 223.827 427.87C223.037 427.683 222.503 427.2 222.363 426.543L221.096 420.627C220.857 419.51 221.781 418.19 223.294 417.487L226.3 416.09C227.812 415.387 229.417 415.532 230.116 416.435L233.82 421.219C234.231 421.75 234.255 422.469 233.889 423.194C233.443 423.99 232.749 424.619 231.912 424.984Z" fill="#3F3D56"/>
<path d="M215.178 433.289L209.735 435.818C208.917 436.222 207.989 436.348 207.093 436.175C206.303 435.988 205.769 435.504 205.628 434.848L204.362 428.931C204.123 427.815 205.047 426.495 206.559 425.792L209.565 424.395C211.078 423.692 212.683 423.837 213.381 424.74L217.085 429.524C217.496 430.054 217.521 430.774 217.154 431.499C216.709 432.295 216.015 432.924 215.178 433.289Z" fill="#3F3D56"/>
<path d="M178.716 294.907L161.027 303.127L217.116 423.874L234.804 415.654L178.716 294.907Z" fill="#E6E6E6"/>
<path d="M197.069 357.152L195.084 352.783L196.227 352.256L198.205 356.611L226.859 420.156L225.717 420.687" fill="#3F3D56"/>
<path d="M219.456 353.521L217.471 349.152L218.613 348.625L220.592 352.98L249.245 416.525L248.104 417.056" fill="#3F3D56"/>
<path d="M187.064 304.57L163.097 315.708C161.571 313.334 156.971 301.166 158.004 297.556L157.229 294.113L173.777 286.422L175.993 289.148C179.281 290.157 185.682 301.586 187.064 304.57Z" fill="#E6E6E6"/>
<path d="M174.469 286.57L157.391 294.506C156.761 294.799 156.09 294.691 155.892 294.265C155.864 294.204 155.846 294.138 155.84 294.071L154.956 284.64C154.918 284.236 155.264 283.778 155.791 283.533L167.117 278.27C167.644 278.025 168.217 278.056 168.501 278.345L175.137 285.103C175.476 285.449 175.292 286.04 174.725 286.424C174.644 286.48 174.558 286.528 174.469 286.57Z" fill="#E6E6E6"/>
<path d="M187.864 360.458C187.679 360.459 187.495 360.437 187.315 360.393C187.062 360.341 186.824 360.231 186.62 360.072C186.415 359.914 186.25 359.71 186.137 359.478L175.696 337.001C175.264 336.07 175.844 334.88 176.989 334.348L192.277 327.243C193.422 326.711 194.705 327.035 195.138 327.966L205.579 350.443C205.683 350.68 205.732 350.937 205.721 351.196C205.711 351.454 205.641 351.707 205.518 351.934C205.25 352.449 204.815 352.859 204.285 353.096L188.997 360.2C188.643 360.367 188.256 360.455 187.864 360.458Z" fill="#3F3D56"/>
<path d="M189.954 363.86L172.266 372.081L200.013 431.816L217.702 423.595L189.954 363.86Z" fill="#E6E6E6"/>
<path d="M168.162 287.555L162.974 289.965C161.973 290.431 160.623 289.655 159.964 288.238C159.306 286.82 159.585 285.288 160.586 284.823L165.773 282.412C166.774 281.947 168.124 282.722 168.783 284.14C169.441 285.557 169.163 287.09 168.162 287.555Z" fill="#3F3D56"/>
<path d="M174.094 351.964C170.786 353.505 170.732 360.405 171.769 362.641L173.649 366.688L185.632 361.119L183.752 357.072C182.712 354.837 177.405 350.429 174.094 351.964Z" fill="#3F3D56"/>
<path d="M119.143 338.191C117.974 338.97 116.779 337.116 117.969 336.372C119.138 335.594 120.333 337.447 119.143 338.191Z" fill="#E6E6E6"/>
<path d="M240.756 311.563C239.588 312.342 238.392 310.489 239.583 309.745C240.751 308.966 241.947 310.819 240.756 311.563Z" fill="#E6E6E6"/>
<path d="M157.865 332.744C156.697 333.523 155.501 331.67 156.692 330.926C157.86 330.147 159.056 332 157.865 332.744Z" fill="#E6E6E6"/>
<path d="M119.143 405.365C117.974 406.144 116.779 404.291 117.969 403.547C119.138 402.768 120.333 404.621 119.143 405.365Z" fill="#E6E6E6"/>
<path d="M178.738 253.769C177.57 254.548 176.374 252.694 177.565 251.95C178.733 251.172 179.929 253.025 178.738 253.769Z" fill="#E6E6E6"/>
<path d="M121.26 289.474C120.092 290.253 118.896 288.4 120.087 287.656C121.255 286.877 122.451 288.73 121.26 289.474Z" fill="#E6E6E6"/>
<path d="M203.933 279.238L203.19 279.075L203.352 278.331L202.857 278.223L202.694 278.967L201.95 278.804L201.842 279.299L202.585 279.463L202.422 280.206L202.918 280.315L203.081 279.571L203.824 279.734L203.933 279.238Z" fill="#E6E6E6"/>
<path d="M82.8941 341.202L82.1508 341.039L82.3135 340.295L81.818 340.186L81.6549 340.93L80.9113 340.767L80.8027 341.263L81.5463 341.426L81.3836 342.17L81.8791 342.278L82.0422 341.534L82.7855 341.697L82.8941 341.202Z" fill="#E6E6E6"/>
<path d="M235.332 372.809C234.713 373.096 234.006 373.125 233.366 372.891C232.726 372.657 232.204 372.179 231.916 371.561L228.857 364.975C228.571 364.356 228.542 363.649 228.776 363.009C229.01 362.369 229.489 361.848 230.107 361.561C230.725 361.274 231.432 361.244 232.072 361.478C232.712 361.711 233.233 362.189 233.521 362.807L236.58 369.393C236.867 370.012 236.896 370.719 236.662 371.36C236.428 372 235.95 372.521 235.332 372.809Z" fill="#3F3D56"/>
<path d="M183.297 397.016C182.678 397.303 181.971 397.332 181.331 397.098C180.691 396.864 180.169 396.386 179.881 395.768L176.822 389.182C176.536 388.563 176.506 387.856 176.741 387.216C176.975 386.576 177.454 386.055 178.072 385.768C178.69 385.481 179.397 385.451 180.037 385.685C180.677 385.918 181.198 386.396 181.486 387.014L184.545 393.6C184.832 394.219 184.861 394.926 184.627 395.566C184.393 396.207 183.915 396.728 183.297 397.016Z" fill="#3F3D56"/>
<path d="M230.619 358.42L210.106 367.952C208.8 365.92 204.863 355.506 205.747 352.416L206.181 348.96L218.429 342.95L221.143 345.221C224.967 343.927 230.588 353.405 230.619 358.42Z" fill="#E6E6E6"/>
<path d="M221.095 357.759L215.908 360.17C214.907 360.635 213.384 359.488 212.513 357.614C211.643 355.739 211.749 353.835 212.75 353.37L217.937 350.959C218.938 350.494 220.461 351.641 221.332 353.516C222.202 355.39 222.096 357.294 221.095 357.759Z" fill="#3F3D56"/>
<path d="M177.102 370.163L175.117 365.795L176.26 365.268L178.239 369.622L206.892 433.167L205.75 433.698" fill="#3F3D56"/>
<path d="M196.726 373.913L176.214 383.446C173.187 381.883 168.563 371.657 171.855 367.91L172.289 364.453L184.537 358.443L187.251 360.714C190.065 361.578 195.543 371.359 196.726 373.913Z" fill="#E6E6E6"/>
<path d="M186.781 372.344L181.594 374.754C180.593 375.219 179.164 374.276 178.41 372.653C177.656 371.029 177.856 369.329 178.857 368.864L184.045 366.453C185.046 365.988 186.474 366.931 187.228 368.555C187.983 370.178 187.782 371.878 186.781 372.344Z" fill="#3F3D56"/>
<path d="M82.8198 328.15C100.029 328.15 113.979 314.196 113.979 296.984C113.979 279.771 100.029 265.817 82.8198 265.817C65.6108 265.817 51.6602 279.771 51.6602 296.984C51.6602 314.196 65.6108 328.15 82.8198 328.15Z" fill="#FF6584"/>
<path opacity="0.3" d="M210.578 329.445L229.514 274.129L208.721 328.783C208.619 328.912 208.548 329.065 208.516 329.227C208.484 329.39 208.491 329.557 208.536 329.716C208.582 329.876 208.665 330.022 208.778 330.142C208.891 330.263 209.032 330.355 209.188 330.411C209.344 330.466 209.51 330.484 209.675 330.462C209.839 330.44 209.995 330.38 210.131 330.285C210.267 330.191 210.379 330.065 210.456 329.919C210.534 329.773 210.576 329.61 210.578 329.445Z" fill="#F0F0F0"/>
<path d="M258.846 296.473C255.139 297.705 251.03 298.916 246.518 300.104C223.18 306.25 191.898 311.044 158.434 313.604C124.971 316.163 93.3237 316.182 69.3229 313.656C57.6314 312.426 48.384 310.657 41.8378 308.397C34.9073 306.005 31.2656 303.122 31.0138 299.83C30.5235 293.415 43.1789 287.769 53.8819 284.162L54.1718 285.023C39.4738 289.976 31.5709 295.21 31.9189 299.761C32.3618 305.557 46.0297 310.293 69.4179 312.754C93.3659 315.273 124.955 315.254 158.365 312.699C191.776 310.143 223 305.359 246.287 299.226C269.028 293.238 281.818 286.479 281.375 280.682C281.007 275.87 271.523 271.753 254.669 269.089L254.811 268.193C267.057 270.128 281.763 273.854 282.28 280.613C282.532 283.906 279.37 287.309 272.884 290.727C269.187 292.675 264.488 294.597 258.846 296.473Z" fill="#3F3D56"/>
<path d="M268.001 351.75C269.789 351.75 271.239 350.3 271.239 348.512C271.239 346.723 269.789 345.273 268.001 345.273C266.213 345.273 264.764 346.723 264.764 348.512C264.764 350.3 266.213 351.75 268.001 351.75Z" fill="#FF6584"/>
<path d="M288.574 439.5C290.362 439.5 291.811 438.051 291.811 436.262C291.811 434.473 290.362 433.024 288.574 433.024C286.785 433.024 285.336 434.473 285.336 436.262C285.336 438.051 286.785 439.5 288.574 439.5Z" fill="#F2F2F2"/>
<path d="M178.154 459.218C181.64 459.218 184.467 456.391 184.467 452.904C184.467 449.417 181.64 446.591 178.154 446.591C174.668 446.591 171.842 449.417 171.842 452.904C171.842 456.391 174.668 459.218 178.154 459.218Z" fill="#F2F2F2"/>
<path d="M130.052 375.654C131.84 375.654 133.29 374.205 133.29 372.416C133.29 370.627 131.84 369.178 130.052 369.178C128.264 369.178 126.814 370.627 126.814 372.416C126.814 374.205 128.264 375.654 130.052 375.654Z" fill="#3F3D56"/>
<path d="M238.9 379.869L252.87 383.486L261.437 400.319L246.953 400.887L238.9 379.869Z" fill="#E6E6E6"/>
<path d="M206.656 355.604L214.345 363.298L233.871 405.525L230.276 408.632L206.656 355.604Z" fill="#CCCCCC"/>
<path d="M189.939 362.578L190.543 373.44L208.973 416.157L213.685 415.55L189.939 362.578Z" fill="#CCCCCC"/>
<path d="M189.437 406.457L181.914 418.773L187.46 436.828L198.264 427.162L189.437 406.457Z" fill="#E6E6E6"/>
<path d="M255.895 414.025C251.989 414.025 247.707 413.878 243.051 413.582C218.966 412.052 187.769 406.734 155.206 398.606C122.644 390.479 92.6056 380.514 70.6259 370.546C59.9189 365.691 51.7014 361.094 46.2018 356.885C40.3792 352.429 37.8323 348.545 38.6316 345.341C40.189 339.098 53.9788 337.733 65.2727 337.686L65.2766 338.594C49.7669 338.658 40.617 341.132 39.5123 345.56C38.105 351.201 49.5822 360.006 71.0007 369.719C92.9321 379.665 122.915 389.611 155.426 397.726C187.937 405.84 219.077 411.15 243.109 412.676C266.578 414.167 280.846 411.787 282.253 406.147C283.421 401.464 275.719 394.565 260.565 386.721L260.983 385.915C271.993 391.615 284.774 399.789 283.134 406.367C282.334 409.571 278.261 411.803 271.028 413C266.905 413.683 261.841 414.025 255.895 414.025Z" fill="#3F3D56"/>
</g>
<path d="M316.62 548.144C317.718 547.225 316.234 543.647 313.305 540.152C310.377 536.658 307.112 534.569 306.014 535.488C304.916 536.406 306.4 539.984 309.329 543.479C312.257 546.974 315.522 549.062 316.62 548.144Z" fill="#2F2E41"/>
<path d="M309.418 544.169C312.304 535.521 307.625 526.173 298.969 523.291C290.312 520.408 280.956 525.082 278.07 533.73C275.185 542.378 279.863 551.726 288.52 554.609C297.176 557.492 306.533 552.818 309.418 544.169Z" fill="#2F2E41"/>
<path d="M300.738 551.904H295.719V560.888H300.738V551.904Z" fill="#2F2E41"/>
<path d="M290.699 551.904H285.68V560.888H290.699V551.904Z" fill="#2F2E41"/>
<path d="M296.556 562.56C298.866 562.56 300.738 561.858 300.738 560.993C300.738 560.127 298.866 559.426 296.556 559.426C294.246 559.426 292.373 560.127 292.373 560.993C292.373 561.858 294.246 562.56 296.556 562.56Z" fill="#2F2E41"/>
<path d="M286.517 562.351C288.827 562.351 290.699 561.649 290.699 560.784C290.699 559.918 288.827 559.217 286.517 559.217C284.207 559.217 282.334 559.918 282.334 560.784C282.334 561.649 284.207 562.351 286.517 562.351Z" fill="#2F2E41"/>
<path d="M288.558 518.201C290.033 512.265 296.545 508.772 303.103 510.399C309.661 512.026 313.781 518.157 312.306 524.092C310.83 530.028 305.936 530.047 299.378 528.42C292.82 526.793 287.083 524.137 288.558 518.201Z" fill="#CCCCCC"/>
<path d="M282.6 534.827C283.213 533.535 280.369 530.903 276.247 528.95C272.125 526.997 268.286 526.461 267.672 527.754C267.058 529.047 269.902 531.678 274.024 533.632C278.147 535.585 281.986 536.12 282.6 534.827Z" fill="#2F2E41"/>
<path d="M291.276 540.97C294.318 540.97 296.784 538.506 296.784 535.467C296.784 532.427 294.318 529.964 291.276 529.964C288.234 529.964 285.768 532.427 285.768 535.467C285.768 538.506 288.234 540.97 291.276 540.97Z" fill="white"/>
<path d="M289.012 535.329C290.026 535.329 290.848 534.507 290.848 533.494C290.848 532.481 290.026 531.66 289.012 531.66C287.998 531.66 287.176 532.481 287.176 533.494C287.176 534.507 287.998 535.329 289.012 535.329Z" fill="#3F3D56"/>
<path d="M291.228 549.256C292.499 549.256 293.529 548.227 293.529 546.957C293.529 545.687 292.499 544.657 291.228 544.657C289.956 544.657 288.926 545.687 288.926 546.957C288.926 548.227 289.956 549.256 291.228 549.256Z" fill="white"/>
<path d="M340.919 562.671H250.384C250.282 562.671 250.184 562.63 250.112 562.558C250.04 562.486 250 562.389 250 562.287C250 562.186 250.04 562.088 250.112 562.016C250.184 561.944 250.282 561.904 250.384 561.904H340.919C341.021 561.904 341.118 561.944 341.19 562.016C341.262 562.088 341.303 562.186 341.303 562.287C341.303 562.389 341.262 562.486 341.19 562.558C341.118 562.63 341.021 562.671 340.919 562.671Z" fill="#3F3D56"/>
<g clip-path="url(#clip2_1454_521)">
<path d="M331.102 155.504C320.011 153.74 307.381 152.799 294.227 152.799C282.189 152.799 270.591 153.586 260.211 155.07C260.213 154.911 260.216 154.752 260.223 154.594C260.498 145.377 264.381 136.632 271.043 130.23C277.704 123.827 286.615 120.275 295.872 120.331C305.128 120.387 313.995 124.048 320.577 130.531C327.16 137.014 330.936 145.805 331.098 155.025C331.1 155.186 331.102 155.345 331.102 155.504Z" fill="#FF2E63" fill-opacity="0.79"/>
<g opacity="0.1">
<path d="M300.305 120.318C295.382 119.655 290.374 120.031 285.606 121.42C280.838 122.809 276.416 125.18 272.627 128.381C268.838 131.581 265.766 135.539 263.611 139.998C261.456 144.456 260.265 149.317 260.115 154.263C260.108 154.422 260.106 154.581 260.104 154.74C263.187 154.299 266.381 153.921 269.659 153.606C270.06 145.365 273.344 137.524 278.942 131.444C284.54 125.363 292.098 121.427 300.305 120.318Z" fill="white"/>
</g>
<path d="M346.609 158.305C341.504 156.926 336.325 155.831 331.098 155.025C322.53 153.702 313.892 152.875 305.228 152.548C301.619 152.401 297.943 152.326 294.227 152.326C291.282 152.326 288.36 152.373 285.479 152.468C277.028 152.716 268.596 153.426 260.223 154.594C254.024 155.444 247.886 156.683 241.845 158.305C227.758 162.185 220 167.385 220 172.945C220 178.505 227.758 183.704 241.845 187.584C251.751 190.314 263.965 192.175 277.274 193.028C282.767 193.384 288.446 193.564 294.227 193.564C300.027 193.564 305.725 193.381 311.235 193.026C323.347 192.246 334.552 190.632 343.931 188.286C343.98 188.271 344.028 188.26 344.078 188.248C344.711 188.091 345.334 187.928 345.95 187.764C346.172 187.703 346.39 187.643 346.609 187.584C346.622 187.579 346.634 187.575 346.647 187.572C346.857 187.515 347.064 187.456 347.271 187.399C347.685 187.281 348.094 187.165 348.496 187.044C348.515 187.039 348.532 187.034 348.548 187.03C348.898 186.925 349.241 186.821 349.581 186.717C349.859 186.629 350.135 186.544 350.409 186.456C350.609 186.392 350.806 186.328 351.001 186.264C351.144 186.217 351.284 186.172 351.422 186.124C351.61 186.063 351.798 185.999 351.984 185.935C352.062 185.909 352.141 185.882 352.217 185.854C352.395 185.795 352.569 185.733 352.743 185.672C352.931 185.605 353.119 185.536 353.304 185.47C353.459 185.416 353.613 185.359 353.766 185.302C353.894 185.252 354.02 185.205 354.149 185.157C354.498 185.027 354.841 184.892 355.179 184.759C355.348 184.69 355.517 184.624 355.683 184.555C355.847 184.489 356.014 184.42 356.176 184.351C356.442 184.24 356.704 184.129 356.961 184.017C357.084 183.96 357.211 183.906 357.332 183.854C357.425 183.811 357.515 183.771 357.608 183.728C357.674 183.7 357.741 183.669 357.805 183.638C358.046 183.529 358.283 183.418 358.517 183.306C359.411 182.88 360.246 182.444 361.022 181.998C365.887 179.223 368.454 176.144 368.454 172.945C368.454 167.385 360.696 162.185 346.609 158.305ZM346.481 187.129C336.563 189.862 324.315 191.722 310.971 192.568C305.544 192.912 299.934 193.09 294.227 193.09C288.539 193.09 282.948 192.914 277.538 192.571C264.172 191.727 251.906 189.866 241.973 187.129C228.11 183.309 220.476 178.272 220.476 172.945C220.477 172.474 220.536 172.005 220.652 171.549C221.865 166.742 229.328 162.244 241.973 158.76C247.969 157.151 254.06 155.919 260.211 155.07C268.635 153.896 277.117 153.184 285.619 152.937C288.455 152.845 291.325 152.799 294.227 152.8C297.893 152.8 301.519 152.873 305.083 153.015C313.797 153.339 322.485 154.17 331.103 155.504C336.285 156.306 341.419 157.393 346.481 158.76C359.123 162.244 366.584 166.74 367.8 171.544C367.918 172.002 367.978 172.472 367.978 172.945C367.978 178.272 360.344 183.309 346.481 187.129Z" fill="#3F3D56"/>
<path d="M368.318 173.16C368.318 176.327 365.699 179.322 361.021 181.998C360.243 182.444 359.406 182.88 358.516 183.306C358.283 183.418 358.045 183.529 357.805 183.638C357.741 183.669 357.674 183.7 357.607 183.728C357.515 183.771 357.424 183.811 357.331 183.854C357.21 183.906 357.084 183.96 356.96 184.017C356.703 184.129 356.442 184.24 356.175 184.351C356.013 184.42 355.847 184.489 355.683 184.555C355.516 184.624 355.347 184.69 355.178 184.759C354.841 184.892 354.498 185.027 354.148 185.157C354.02 185.205 353.894 185.252 353.765 185.302C353.613 185.359 353.458 185.416 353.304 185.47C353.118 185.536 352.93 185.605 352.742 185.671C352.569 185.733 352.395 185.795 352.216 185.854C352.14 185.882 352.062 185.908 351.983 185.935C351.798 185.999 351.61 186.063 351.422 186.124C351.284 186.172 351.144 186.217 351.001 186.264C350.806 186.328 350.608 186.392 350.408 186.456C350.135 186.544 349.859 186.629 349.58 186.717C349.24 186.821 348.898 186.925 348.548 187.029C348.531 187.034 348.515 187.039 348.496 187.044C348.094 187.165 347.684 187.281 347.27 187.399C347.063 187.456 346.856 187.515 346.647 187.572C346.634 187.575 346.621 187.579 346.609 187.584C346.39 187.643 346.171 187.703 345.95 187.764C345.336 187.925 344.711 188.089 344.078 188.248C344.028 188.26 343.98 188.271 343.93 188.286C334.806 190.556 323.613 192.21 311.225 193.009C305.798 193.357 300.141 193.542 294.329 193.542C288.465 193.542 282.759 193.355 277.29 193C244.64 190.878 220.34 182.801 220.34 173.16C220.342 172.574 220.432 171.991 220.606 171.43C220.621 171.47 220.635 171.508 220.652 171.549C224.046 180.431 248.139 187.61 279.4 189.362C284.189 189.632 289.15 189.772 294.227 189.772C299.325 189.772 304.304 189.629 309.112 189.359C340.347 187.601 364.416 180.42 367.799 171.544C367.857 171.402 367.906 171.259 367.949 171.117C368.19 171.772 368.315 172.463 368.318 173.16Z" fill="#3F3D56"/>
<path d="M241.808 170.609C237.849 170.609 233.641 169.761 233.641 168.188C233.641 166.615 237.849 165.766 241.808 165.766C245.768 165.766 249.976 166.615 249.976 168.188C249.976 169.761 245.768 170.609 241.808 170.609ZM241.808 166.24C237.275 166.24 234.116 167.267 234.116 168.188C234.116 169.109 237.275 170.135 241.808 170.135C246.341 170.135 249.5 169.109 249.5 168.188C249.5 167.267 246.341 166.24 241.808 166.24Z" fill="#3F3D56"/>
<path d="M258.701 181.748C254.741 181.748 250.533 180.9 250.533 179.327C250.533 177.754 254.741 176.905 258.701 176.905C262.66 176.905 266.868 177.754 266.868 179.327C266.868 180.9 262.66 181.748 258.701 181.748ZM258.701 177.379C254.168 177.379 251.009 178.406 251.009 179.327C251.009 180.248 254.168 181.274 258.701 181.274C263.233 181.274 266.392 180.248 266.392 179.327C266.392 178.406 263.234 177.379 258.701 177.379Z" fill="#3F3D56"/>
<path d="M346.488 170.609C342.528 170.609 338.32 169.761 338.32 168.188C338.32 166.615 342.528 165.766 346.488 165.766C350.447 165.766 354.655 166.615 354.655 168.188C354.655 169.761 350.447 170.609 346.488 170.609ZM346.488 166.24C341.955 166.24 338.796 167.267 338.796 168.188C338.796 169.109 341.955 170.135 346.488 170.135C351.021 170.135 354.18 169.109 354.18 168.188C354.18 167.267 351.021 166.24 346.488 166.24Z" fill="#3F3D56"/>
<path d="M329.597 181.748C325.638 181.748 321.43 180.9 321.43 179.327C321.43 177.754 325.638 176.905 329.597 176.905C333.557 176.905 337.765 177.754 337.765 179.327C337.765 180.9 333.557 181.748 329.597 181.748ZM329.597 177.379C325.064 177.379 321.906 178.406 321.906 179.327C321.906 180.248 325.064 181.274 329.597 181.274C334.13 181.274 337.289 180.248 337.289 179.327C337.289 178.406 334.13 177.379 329.597 177.379Z" fill="#3F3D56"/>
<path d="M294.148 186.962C290.189 186.962 285.98 186.114 285.98 184.541C285.98 182.968 290.189 182.119 294.148 182.119C298.107 182.119 302.315 182.968 302.315 184.541C302.315 186.114 298.107 186.962 294.148 186.962ZM294.148 182.593C289.615 182.593 286.456 183.62 286.456 184.541C286.456 185.462 289.615 186.488 294.148 186.488C298.681 186.488 301.84 185.462 301.84 184.541C301.84 183.62 298.681 182.593 294.148 182.593Z" fill="#3F3D56"/>
<path d="M300.169 236.774C305.689 236.774 310.164 232.316 310.164 226.817C310.164 221.318 305.689 216.86 300.169 216.86C294.649 216.86 290.174 221.318 290.174 226.817C290.174 232.316 294.649 236.774 300.169 236.774Z" fill="#2F2E41"/>
<path d="M296.368 233.359L291.504 235.786L292.864 238.491L297.728 236.064L296.368 233.359Z" fill="#2F2E41"/>
<path d="M293.505 238.216C293.794 237.78 293.082 236.806 291.915 236.039C290.748 235.273 289.569 235.005 289.28 235.441C288.992 235.877 289.704 236.851 290.87 237.618C292.037 238.384 293.217 238.652 293.505 238.216Z" fill="#2F2E41"/>
<path d="M303.971 233.359L302.611 236.064L307.476 238.491L308.835 235.786L303.971 233.359Z" fill="#2F2E41"/>
<path d="M309.47 237.618C310.636 236.851 311.348 235.877 311.06 235.441C310.771 235.005 309.592 235.273 308.425 236.039C307.258 236.806 306.546 237.78 306.835 238.216C307.123 238.652 308.303 238.384 309.47 237.618Z" fill="#2F2E41"/>
<path d="M299.471 227.785C301.357 227.785 302.887 226.261 302.887 224.382C302.887 222.502 301.357 220.979 299.471 220.979C297.584 220.979 296.055 222.502 296.055 224.382C296.055 226.261 297.584 227.785 299.471 227.785Z" fill="white"/>
<path d="M300.302 223.729C300.744 223.288 300.742 222.57 300.296 222.126C299.85 221.682 299.129 221.679 298.687 222.121C298.244 222.562 298.246 223.279 298.692 223.724C299.138 224.168 299.859 224.17 300.302 223.729Z" fill="#3F3D56"/>
<path d="M308.054 215.985C308.204 212.299 305.015 209.177 300.931 209.011C296.847 208.846 293.414 211.7 293.264 215.387C293.113 219.073 295.952 219.91 300.037 220.076C304.121 220.241 307.904 219.671 308.054 215.985Z" fill="#FF2E63" fill-opacity="0.79"/>
<path d="M313.816 232.031C314.474 231.469 313.549 229.322 311.751 227.236C309.953 225.149 307.963 223.914 307.306 224.476C306.648 225.038 307.573 227.185 309.37 229.272C311.168 231.358 313.159 232.593 313.816 232.031Z" fill="#2F2E41"/>
<path d="M290.997 229.272C292.795 227.185 293.72 225.038 293.062 224.476C292.405 223.914 290.414 225.149 288.617 227.236C286.819 229.322 285.894 231.469 286.552 232.031C287.209 232.593 289.2 231.358 290.997 229.272Z" fill="#2F2E41"/>
<path d="M302.915 230.741C303.023 231.333 302.891 231.944 302.547 232.438C302.203 232.933 301.677 233.272 301.082 233.379C300.488 233.487 299.875 233.355 299.379 233.013C298.882 232.671 298.542 232.146 298.434 231.554L298.433 231.549C298.209 230.317 299.166 229.88 300.404 229.657C301.641 229.434 302.691 229.508 302.915 230.741Z" fill="white"/>
<path d="M297.688 234.301C303.208 234.301 307.683 229.843 307.683 224.344C307.683 218.845 303.208 214.387 297.688 214.387C292.168 214.387 287.693 218.845 287.693 224.344C287.693 229.843 292.168 234.301 297.688 234.301Z" fill="#2F2E41"/>
<path d="M293.888 230.886L289.023 233.312L290.383 236.017L295.248 233.59L293.888 230.886Z" fill="#2F2E41"/>
<path d="M291.025 235.743C291.313 235.307 290.601 234.332 289.435 233.566C288.268 232.799 287.088 232.531 286.8 232.967C286.511 233.403 287.223 234.378 288.39 235.144C289.557 235.91 290.736 236.178 291.025 235.743Z" fill="#2F2E41"/>
<path d="M301.491 230.886L300.131 233.59L304.995 236.017L306.355 233.312L301.491 230.886Z" fill="#2F2E41"/>
<path d="M306.989 235.144C308.156 234.378 308.868 233.403 308.579 232.967C308.291 232.531 307.111 232.799 305.945 233.566C304.778 234.332 304.066 235.307 304.354 235.742C304.643 236.178 305.823 235.91 306.989 235.144Z" fill="#2F2E41"/>
<path d="M296.99 225.311C298.877 225.311 300.406 223.788 300.406 221.908C300.406 220.029 298.877 218.505 296.99 218.505C295.104 218.505 293.574 220.029 293.574 221.908C293.574 223.788 295.104 225.311 296.99 225.311Z" fill="white"/>
<path d="M297.821 221.256C298.264 220.815 298.261 220.097 297.815 219.653C297.369 219.208 296.649 219.206 296.206 219.647C295.763 220.088 295.766 220.806 296.212 221.25C296.658 221.694 297.378 221.697 297.821 221.256Z" fill="#3F3D56"/>
<path d="M305.574 213.512C305.724 209.825 302.535 206.703 298.45 206.538C294.366 206.373 290.933 209.227 290.783 212.913C290.633 216.599 293.472 217.437 297.556 217.602C301.64 217.767 305.423 217.198 305.574 213.512Z" fill="#FF2E63" fill-opacity="0.79"/>
<path d="M311.336 229.558C311.993 228.995 311.069 226.848 309.271 224.762C307.473 222.676 305.483 221.44 304.825 222.003C304.168 222.565 305.092 224.712 306.89 226.798C308.688 228.884 310.678 230.12 311.336 229.558Z" fill="#2F2E41"/>
<path d="M288.517 226.798C290.315 224.712 291.239 222.565 290.582 222.003C289.924 221.44 287.934 222.676 286.136 224.762C284.338 226.848 283.414 228.995 284.071 229.558C284.729 230.12 286.719 228.884 288.517 226.798Z" fill="#2F2E41"/>
<path d="M300.434 228.268C300.543 228.86 300.41 229.47 300.067 229.965C299.723 230.46 299.196 230.798 298.602 230.906C298.008 231.014 297.395 230.882 296.898 230.54C296.401 230.197 296.062 229.672 295.953 229.08L295.953 229.076C295.729 227.843 296.685 227.407 297.923 227.184C299.161 226.96 300.21 227.035 300.434 228.268Z" fill="white"/>
<path d="M283.282 237.409C283.156 237.409 283.035 237.359 282.946 237.27C282.857 237.181 282.807 237.061 282.807 236.935V208.969C282.807 208.843 282.857 208.722 282.946 208.634C283.035 208.545 283.156 208.495 283.282 208.495C283.409 208.495 283.53 208.545 283.619 208.634C283.708 208.722 283.758 208.843 283.758 208.969V236.935C283.758 237.061 283.708 237.181 283.619 237.27C283.53 237.359 283.409 237.409 283.282 237.409Z" fill="#CCCCCC"/>
<path d="M276.146 262.531C276.02 262.531 275.899 262.481 275.809 262.392C275.72 262.303 275.67 262.183 275.67 262.057V241.675C275.67 241.549 275.72 241.429 275.809 241.34C275.899 241.251 276.02 241.201 276.146 241.201C276.272 241.201 276.393 241.251 276.482 241.34C276.571 241.429 276.622 241.549 276.622 241.675V262.057C276.622 262.183 276.571 262.303 276.482 262.392C276.393 262.481 276.272 262.531 276.146 262.531Z" fill="#CCCCCC"/>
<path d="M294.464 245.704C294.338 245.704 294.217 245.654 294.128 245.565C294.038 245.476 293.988 245.356 293.988 245.23V217.264C293.988 217.138 294.038 217.017 294.128 216.929C294.217 216.84 294.338 216.79 294.464 216.79C294.59 216.79 294.711 216.84 294.801 216.929C294.89 217.017 294.94 217.138 294.94 217.264V245.23C294.94 245.356 294.89 245.476 294.801 245.565C294.711 245.654 294.59 245.704 294.464 245.704Z" fill="#CCCCCC"/>
<path d="M287.566 265.849C287.439 265.849 287.318 265.799 287.229 265.71C287.14 265.621 287.09 265.501 287.09 265.375V253.999C287.09 253.873 287.14 253.753 287.229 253.664C287.318 253.575 287.439 253.525 287.566 253.525C287.692 253.525 287.813 253.575 287.902 253.664C287.991 253.753 288.041 253.873 288.041 253.999V265.375C288.041 265.501 287.991 265.621 287.902 265.71C287.813 265.799 287.692 265.849 287.566 265.849Z" fill="#CCCCCC"/>
<path d="M297.32 207.547C297.193 207.547 297.072 207.497 296.983 207.408C296.894 207.319 296.844 207.198 296.844 207.073V195.697C296.844 195.571 296.894 195.45 296.983 195.361C297.072 195.273 297.193 195.223 297.32 195.223C297.446 195.223 297.567 195.273 297.656 195.361C297.745 195.45 297.795 195.571 297.795 195.697V207.073C297.795 207.198 297.745 207.319 297.656 207.408C297.567 207.497 297.446 207.547 297.32 207.547Z" fill="#CCCCCC"/>
<path d="M273.529 212.524C273.402 212.524 273.281 212.474 273.192 212.385C273.103 212.296 273.053 212.175 273.053 212.05V200.674C273.053 200.548 273.103 200.427 273.192 200.338C273.281 200.25 273.402 200.2 273.529 200.2C273.655 200.2 273.776 200.25 273.865 200.338C273.954 200.427 274.004 200.548 274.004 200.674V212.05C274.004 212.175 273.954 212.296 273.865 212.385C273.776 212.474 273.655 212.524 273.529 212.524Z" fill="#CCCCCC"/>
<path d="M314.925 213.709C314.799 213.709 314.678 213.659 314.589 213.57C314.499 213.481 314.449 213.36 314.449 213.235V201.859C314.449 201.733 314.499 201.612 314.589 201.523C314.678 201.435 314.799 201.385 314.925 201.385C315.051 201.385 315.172 201.435 315.261 201.523C315.351 201.612 315.401 201.733 315.401 201.859V213.235C315.401 213.36 315.351 213.481 315.261 213.57C315.172 213.659 315.051 213.709 314.925 213.709Z" fill="#CCCCCC"/>
<path d="M313.974 249.259C313.848 249.259 313.727 249.209 313.637 249.12C313.548 249.031 313.498 248.911 313.498 248.785V235.039C313.498 234.913 313.548 234.793 313.637 234.704C313.727 234.615 313.848 234.565 313.974 234.565C314.1 234.565 314.221 234.615 314.31 234.704C314.4 234.793 314.45 234.913 314.45 235.039V248.785C314.45 248.911 314.4 249.031 314.31 249.12C314.221 249.209 314.1 249.259 313.974 249.259Z" fill="#CCCCCC"/>
<path d="M304.456 261.346C304.33 261.346 304.209 261.296 304.12 261.207C304.031 261.118 303.98 260.998 303.98 260.872V240.49C303.98 240.364 304.031 240.244 304.12 240.155C304.209 240.066 304.33 240.016 304.456 240.016C304.582 240.016 304.703 240.066 304.793 240.155C304.882 240.244 304.932 240.364 304.932 240.49V260.872C304.932 260.998 304.882 261.118 304.793 261.207C304.703 261.296 304.582 261.346 304.456 261.346Z" fill="#CCCCCC"/>
<path d="M306.361 226.507C306.234 226.507 306.113 226.457 306.024 226.368C305.935 226.279 305.885 226.158 305.885 226.033V198.067C305.885 197.941 305.935 197.82 306.024 197.731C306.113 197.643 306.234 197.593 306.361 197.593C306.487 197.593 306.608 197.643 306.697 197.731C306.786 197.82 306.836 197.941 306.836 198.067V226.033C306.836 226.158 306.786 226.279 306.697 226.368C306.608 226.457 306.487 226.507 306.361 226.507Z" fill="#CCCCCC"/>
<path d="M379.763 295H323.617C323.554 295 323.493 294.975 323.449 294.931C323.404 294.886 323.379 294.826 323.379 294.763C323.379 294.7 323.404 294.64 323.449 294.595C323.493 294.551 323.554 294.526 323.617 294.526H379.763C379.826 294.526 379.886 294.551 379.931 294.595C379.976 294.64 380.001 294.7 380.001 294.763C380.001 294.826 379.976 294.886 379.931 294.931C379.886 294.975 379.826 295 379.763 295Z" fill="#3F3D56"/>
</g>
</g>
<defs>
<filter id="filter0_d_1454_521" x="110.82" y="62.404" width="151.621" height="33.992" filterUnits="userSpaceOnUse" color-interpolation-filters="sRGB">
<feFlood flood-opacity="0" result="BackgroundImageFix"/>
<feColorMatrix in="SourceAlpha" type="matrix" values="0 0 0 0 0 0 0 0 0 0 0 0 0 0 0 0 0 0 127 0" result="hardAlpha"/>
<feOffset dy="4"/>
<feGaussianBlur stdDeviation="2"/>
<feComposite in2="hardAlpha" operator="out"/>
<feColorMatrix type="matrix" values="0 0 0 0 0 0 0 0 0 0 0 0 0 0 0 0 0 0 0.25 0"/>
<feBlend mode="normal" in2="BackgroundImageFix" result="effect1_dropShadow_1454_521"/>
<feBlend mode="normal" in="SourceGraphic" in2="effect1_dropShadow_1454_521" result="shape"/>
</filter>
<filter id="filter1_d_1454_521" x="21" y="696" width="333" height="55" filterUnits="userSpaceOnUse" color-interpolation-filters="sRGB">
<feFlood flood-opacity="0" result="BackgroundImageFix"/>
<feColorMatrix in="SourceAlpha" type="matrix" values="0 0 0 0 0 0 0 0 0 0 0 0 0 0 0 0 0 0 127 0" result="hardAlpha"/>
<feOffset dy="4"/>
<feGaussianBlur stdDeviation="2"/>
<feComposite in2="hardAlpha" operator="out"/>
<feColorMatrix type="matrix" values="0 0 0 0 0 0 0 0 0 0 0 0 0 0 0 0 0 0 0.25 0"/>
<feBlend mode="normal" in2="BackgroundImageFix" result="effect1_dropShadow_1454_521"/>
<feBlend mode="normal" in="SourceGraphic" in2="effect1_dropShadow_1454_521" result="shape"/>
</filter>
<linearGradient id="paint0_linear_1454_521" x1="-1.11759e-05" y1="822" x2="375" y2="-0.999989" gradientUnits="userSpaceOnUse">
<stop offset="0.21875" stop-color="#222831"/>
<stop offset="0.505208" stop-color="#455F86"/>
<stop offset="0.984375" stop-color="#2A3648"/>
</linearGradient>
<clipPath id="clip0_1454_521">
<rect width="375" height="822" fill="white"/>
</clipPath>
<clipPath id="clip1_1454_521">
<rect width="273" height="250" fill="white" transform="translate(31 235)"/>
</clipPath>
<clipPath id="clip2_1454_521">
<rect width="160" height="175" fill="white" transform="translate(220 120)"/>
</clipPath>
</defs>
</svg>
