<svg width="375" height="822" viewBox="0 0 375 822" fill="none" xmlns="http://www.w3.org/2000/svg">
<g clip-path="url(#clip0_1454_920)">
<rect width="375" height="822" fill="white"/>
<rect x="299" y="356" width="85" height="37" rx="12" fill="white"/>
<rect y="-1" width="375" height="823" fill="#222831"/>
<g filter="url(#filter0_d_1454_920)">
<rect x="25" y="752" width="325" height="47" rx="10" fill="#FF2E63"/>
</g>
<path d="M160.008 781V769.8H162.216L167.784 777.032V769.8H169.96V781H167.912L162.2 773.512V781H160.008ZM176.392 781V769.8H185V771.816H178.712V774.376H182.856V776.328H178.712V778.984H185.064V781H176.392ZM190.049 781L194.321 775.208L190.273 769.8H193.041L195.697 773.48L198.337 769.8H201.009L197.025 775.208L201.345 781H198.577L195.649 776.936L192.721 781H190.049ZM209.608 781V771.848H205.832V769.8H215.688V771.848H211.928V781H209.608Z" fill="white"/>
<path d="M28.916 29L43.0827 29M28.916 29L34.5827 23.3333M28.916 29L34.5827 34.6666" stroke="white" stroke-width="1.5" stroke-linecap="round" stroke-linejoin="round"/>
<rect x="99" y="26" width="30" height="5" rx="2.5" fill="#FF2E63"/>
<rect x="136" y="26" width="30" height="5" rx="2.5" fill="#FF2E63"/>
<rect x="173" y="26" width="30" height="5" rx="2.5" fill="#FF2E63"/>
<rect x="210" y="26" width="30" height="5" rx="2.5" fill="#D9D9D9" fill-opacity="0.21"/>
<rect x="247" y="26" width="30" height="5" rx="2.5" fill="#D9D9D9" fill-opacity="0.21"/>
<path d="M62.008 123V111.8H64.328V116.312H69.48V111.8H71.8V123H69.48V118.408H64.328V123H62.008ZM80.7161 123.16C79.8841 123.16 79.1321 122.968 78.4601 122.584C77.7881 122.2 77.2548 121.683 76.8601 121.032C76.4655 120.381 76.2681 119.651 76.2681 118.84C76.2681 118.029 76.4601 117.299 76.8441 116.648C77.2388 115.987 77.7721 115.464 78.4441 115.08C79.1268 114.696 79.8841 114.504 80.7161 114.504C81.5481 114.504 82.3001 114.696 82.9721 115.08C83.6548 115.464 84.1881 115.987 84.5721 116.648C84.9668 117.299 85.1641 118.029 85.1641 118.84C85.1641 119.651 84.9668 120.381 84.5721 121.032C84.1881 121.683 83.6601 122.2 82.9881 122.584C82.3161 122.968 81.5588 123.16 80.7161 123.16ZM80.7161 121.256C81.1535 121.256 81.5428 121.149 81.8841 120.936C82.2361 120.723 82.5135 120.435 82.7161 120.072C82.9295 119.699 83.0361 119.288 83.0361 118.84C83.0361 118.381 82.9295 117.971 82.7161 117.608C82.5135 117.245 82.2361 116.957 81.8841 116.744C81.5428 116.52 81.1535 116.408 80.7161 116.408C80.2895 116.408 79.9001 116.52 79.5481 116.744C79.1961 116.957 78.9188 117.245 78.7161 117.608C78.5135 117.971 78.4121 118.381 78.4121 118.84C78.4121 119.288 78.5135 119.699 78.7161 120.072C78.9188 120.435 79.1961 120.723 79.5481 120.936C79.9001 121.149 80.2895 121.256 80.7161 121.256ZM90.8993 123L88.6113 114.664H90.6913L92.0673 120.04L93.7313 114.664H95.5713L97.2193 120.056L98.5953 114.664H100.643L98.3393 123H96.2433L94.6273 117.672L93.0113 123H90.8993ZM110.813 123V114.664H113.005V115.304C113.603 114.771 114.328 114.504 115.181 114.504C115.725 114.504 116.211 114.616 116.637 114.84C117.064 115.053 117.416 115.357 117.693 115.752C118.035 115.347 118.435 115.037 118.893 114.824C119.363 114.611 119.88 114.504 120.445 114.504C121.075 114.504 121.624 114.648 122.093 114.936C122.573 115.213 122.947 115.603 123.213 116.104C123.491 116.595 123.629 117.171 123.629 117.832V123H121.453V118.152C121.453 117.608 121.309 117.181 121.021 116.872C120.733 116.552 120.349 116.392 119.869 116.392C119.539 116.392 119.235 116.461 118.957 116.6C118.691 116.739 118.461 116.947 118.269 117.224C118.28 117.32 118.291 117.416 118.301 117.512C118.312 117.608 118.317 117.715 118.317 117.832V123H116.125V118.152C116.125 117.608 115.981 117.181 115.693 116.872C115.416 116.552 115.037 116.392 114.557 116.392C114.227 116.392 113.928 116.456 113.661 116.584C113.405 116.712 113.187 116.904 113.005 117.16V123H110.813ZM131.412 123.16C130.772 123.16 130.201 123.021 129.7 122.744C129.209 122.456 128.82 122.061 128.532 121.56C128.254 121.059 128.116 120.483 128.116 119.832V114.664H130.308V119.512C130.308 120.045 130.462 120.472 130.772 120.792C131.092 121.112 131.518 121.272 132.052 121.272C132.414 121.272 132.74 121.203 133.028 121.064C133.326 120.915 133.572 120.707 133.764 120.44V114.664H135.956V123H133.764V122.328C133.124 122.883 132.34 123.16 131.412 123.16ZM144.608 123.16C143.787 123.16 143.045 122.973 142.384 122.6C141.723 122.216 141.2 121.699 140.816 121.048C140.432 120.387 140.24 119.651 140.24 118.84C140.24 118.019 140.432 117.283 140.816 116.632C141.2 115.981 141.723 115.464 142.384 115.08C143.045 114.696 143.787 114.504 144.608 114.504C145.269 114.504 145.899 114.632 146.496 114.888C147.104 115.144 147.627 115.512 148.064 115.992L146.72 117.416C146.411 117.075 146.085 116.824 145.744 116.664C145.413 116.493 145.051 116.408 144.656 116.408C144.229 116.408 143.845 116.515 143.504 116.728C143.173 116.941 142.907 117.229 142.704 117.592C142.512 117.955 142.416 118.371 142.416 118.84C142.416 119.288 142.512 119.699 142.704 120.072C142.907 120.435 143.184 120.723 143.536 120.936C143.888 121.139 144.277 121.24 144.704 121.24C145.077 121.24 145.424 121.165 145.744 121.016C146.075 120.856 146.389 120.621 146.688 120.312L148 121.688C147.573 122.147 147.061 122.509 146.464 122.776C145.867 123.032 145.248 123.16 144.608 123.16ZM152.1 123V111.8L154.292 111.32V115.352C154.921 114.787 155.7 114.504 156.628 114.504C157.278 114.504 157.849 114.648 158.34 114.936C158.841 115.213 159.23 115.603 159.508 116.104C159.785 116.595 159.924 117.171 159.924 117.832V123H157.732V118.152C157.732 117.608 157.577 117.181 157.268 116.872C156.958 116.552 156.537 116.392 156.004 116.392C155.63 116.392 155.3 116.467 155.012 116.616C154.724 116.755 154.484 116.957 154.292 117.224V123H152.1ZM174.579 123.112C173.789 123.112 173.075 122.92 172.435 122.536C171.795 122.152 171.283 121.64 170.899 121C170.525 120.349 170.339 119.624 170.339 118.824C170.339 118.024 170.525 117.304 170.899 116.664C171.283 116.013 171.8 115.501 172.451 115.128C173.101 114.744 173.832 114.552 174.643 114.552C175.059 114.552 175.459 114.611 175.843 114.728C176.227 114.835 176.584 114.995 176.915 115.208V111.8L179.107 111.432V123H176.947V122.312C176.264 122.845 175.475 123.112 174.579 123.112ZM174.931 121.24C175.336 121.24 175.704 121.176 176.035 121.048C176.376 120.909 176.669 120.707 176.915 120.44V117.192C176.669 116.947 176.376 116.755 176.035 116.616C175.693 116.477 175.325 116.408 174.931 116.408C174.472 116.408 174.056 116.515 173.683 116.728C173.32 116.931 173.032 117.219 172.819 117.592C172.605 117.955 172.499 118.365 172.499 118.824C172.499 119.283 172.605 119.693 172.819 120.056C173.032 120.419 173.32 120.707 173.683 120.92C174.056 121.133 174.472 121.24 174.931 121.24ZM187.84 123.16C187.008 123.16 186.256 122.968 185.584 122.584C184.912 122.2 184.379 121.683 183.984 121.032C183.59 120.381 183.392 119.651 183.392 118.84C183.392 118.029 183.584 117.299 183.968 116.648C184.363 115.987 184.896 115.464 185.568 115.08C186.251 114.696 187.008 114.504 187.84 114.504C188.672 114.504 189.424 114.696 190.096 115.08C190.779 115.464 191.312 115.987 191.696 116.648C192.091 117.299 192.288 118.029 192.288 118.84C192.288 119.651 192.091 120.381 191.696 121.032C191.312 121.683 190.784 122.2 190.112 122.584C189.44 122.968 188.683 123.16 187.84 123.16ZM187.84 121.256C188.278 121.256 188.667 121.149 189.008 120.936C189.36 120.723 189.638 120.435 189.84 120.072C190.054 119.699 190.16 119.288 190.16 118.84C190.16 118.381 190.054 117.971 189.84 117.608C189.638 117.245 189.36 116.957 189.008 116.744C188.667 116.52 188.278 116.408 187.84 116.408C187.414 116.408 187.024 116.52 186.672 116.744C186.32 116.957 186.043 117.245 185.84 117.608C185.638 117.971 185.536 118.381 185.536 118.84C185.536 119.288 185.638 119.699 185.84 120.072C186.043 120.435 186.32 120.723 186.672 120.936C187.024 121.149 187.414 121.256 187.84 121.256ZM203.591 126.44C203.399 126.44 203.212 126.429 203.031 126.408C202.86 126.397 202.716 126.381 202.599 126.36V124.472C202.812 124.515 203.068 124.536 203.367 124.536C204.167 124.536 204.721 124.157 205.031 123.4L205.159 123.08L201.911 114.664H204.327L206.407 120.344L208.759 114.664H211.127L207.287 123.672C206.999 124.344 206.684 124.883 206.343 125.288C206.001 125.693 205.607 125.987 205.159 126.168C204.721 126.349 204.199 126.44 203.591 126.44ZM218.799 123.16C217.967 123.16 217.215 122.968 216.543 122.584C215.871 122.2 215.337 121.683 214.943 121.032C214.548 120.381 214.351 119.651 214.351 118.84C214.351 118.029 214.543 117.299 214.927 116.648C215.321 115.987 215.855 115.464 216.527 115.08C217.209 114.696 217.967 114.504 218.799 114.504C219.631 114.504 220.383 114.696 221.055 115.08C221.737 115.464 222.271 115.987 222.655 116.648C223.049 117.299 223.247 118.029 223.247 118.84C223.247 119.651 223.049 120.381 222.655 121.032C222.271 121.683 221.743 122.2 221.071 122.584C220.399 122.968 219.641 123.16 218.799 123.16ZM218.799 121.256C219.236 121.256 219.625 121.149 219.967 120.936C220.319 120.723 220.596 120.435 220.799 120.072C221.012 119.699 221.119 119.288 221.119 118.84C221.119 118.381 221.012 117.971 220.799 117.608C220.596 117.245 220.319 116.957 219.967 116.744C219.625 116.52 219.236 116.408 218.799 116.408C218.372 116.408 217.983 116.52 217.631 116.744C217.279 116.957 217.001 117.245 216.799 117.608C216.596 117.971 216.495 118.381 216.495 118.84C216.495 119.288 216.596 119.699 216.799 120.072C217.001 120.435 217.279 120.723 217.631 120.936C217.983 121.149 218.372 121.256 218.799 121.256ZM230.786 123.16C230.146 123.16 229.575 123.021 229.074 122.744C228.583 122.456 228.194 122.061 227.906 121.56C227.629 121.059 227.49 120.483 227.49 119.832V114.664H229.682V119.512C229.682 120.045 229.837 120.472 230.146 120.792C230.466 121.112 230.893 121.272 231.426 121.272C231.789 121.272 232.114 121.203 232.402 121.064C232.701 120.915 232.946 120.707 233.138 120.44V114.664H235.33V123H233.138V122.328C232.498 122.883 231.714 123.16 230.786 123.16ZM247.761 123L245.473 114.664H247.553L248.929 120.04L250.593 114.664H252.433L254.081 120.056L255.457 114.664H257.505L255.201 123H253.105L251.489 117.672L249.873 123H247.761ZM265.42 123.16C264.588 123.16 263.831 122.968 263.148 122.584C262.476 122.2 261.943 121.683 261.548 121.032C261.154 120.381 260.956 119.651 260.956 118.84C260.956 118.029 261.143 117.299 261.516 116.648C261.9 115.997 262.418 115.48 263.068 115.096C263.719 114.712 264.444 114.52 265.244 114.52C266.044 114.52 266.754 114.717 267.372 115.112C267.991 115.507 268.476 116.04 268.828 116.712C269.191 117.384 269.372 118.147 269.372 119V119.576H263.196C263.292 119.907 263.447 120.205 263.66 120.472C263.884 120.739 264.156 120.947 264.476 121.096C264.807 121.245 265.159 121.32 265.532 121.32C265.906 121.32 266.247 121.261 266.556 121.144C266.876 121.027 267.148 120.861 267.372 120.648L268.812 121.96C268.3 122.376 267.772 122.68 267.228 122.872C266.695 123.064 266.092 123.16 265.42 123.16ZM263.164 118.008H267.212C267.138 117.677 266.999 117.389 266.796 117.144C266.604 116.888 266.37 116.691 266.092 116.552C265.826 116.403 265.527 116.328 265.196 116.328C264.855 116.328 264.546 116.397 264.268 116.536C263.991 116.675 263.756 116.872 263.564 117.128C263.383 117.373 263.25 117.667 263.164 118.008ZM273.675 123V114.664H275.867V123H273.675ZM274.763 113.672C274.422 113.672 274.129 113.549 273.883 113.304C273.638 113.059 273.515 112.765 273.515 112.424C273.515 112.072 273.638 111.779 273.883 111.544C274.129 111.299 274.422 111.176 274.763 111.176C275.115 111.176 275.409 111.299 275.643 111.544C275.889 111.779 276.011 112.072 276.011 112.424C276.011 112.765 275.889 113.059 275.643 113.304C275.409 113.549 275.115 113.672 274.763 113.672ZM284.734 126.424C284.094 126.424 283.475 126.355 282.878 126.216C282.28 126.088 281.742 125.901 281.262 125.656L282.03 123.96C282.488 124.184 282.936 124.349 283.374 124.456C283.811 124.563 284.248 124.616 284.686 124.616C285.336 124.616 285.827 124.477 286.158 124.2C286.499 123.923 286.67 123.507 286.67 122.952V122.296C285.987 122.797 285.224 123.048 284.382 123.048C283.592 123.048 282.878 122.861 282.238 122.488C281.608 122.104 281.102 121.587 280.718 120.936C280.344 120.285 280.158 119.565 280.158 118.776C280.158 117.987 280.344 117.272 280.718 116.632C281.102 115.992 281.619 115.485 282.27 115.112C282.92 114.728 283.646 114.536 284.446 114.536C284.851 114.536 285.246 114.595 285.63 114.712C286.014 114.829 286.371 114.995 286.702 115.208V114.664H288.862V122.984C288.862 124.083 288.504 124.931 287.79 125.528C287.086 126.125 286.067 126.424 284.734 126.424ZM284.718 121.192C285.123 121.192 285.491 121.128 285.822 121C286.152 120.861 286.435 120.669 286.67 120.424V117.16C286.435 116.925 286.147 116.744 285.806 116.616C285.475 116.477 285.118 116.408 284.734 116.408C284.275 116.408 283.864 116.515 283.502 116.728C283.139 116.931 282.851 117.213 282.638 117.576C282.424 117.928 282.318 118.328 282.318 118.776C282.318 119.235 282.419 119.645 282.622 120.008C282.835 120.371 283.123 120.659 283.486 120.872C283.859 121.085 284.27 121.192 284.718 121.192ZM293.533 123V111.8L295.725 111.32V115.352C296.354 114.787 297.133 114.504 298.061 114.504C298.711 114.504 299.282 114.648 299.773 114.936C300.274 115.213 300.663 115.603 300.941 116.104C301.218 116.595 301.357 117.171 301.357 117.832V123H299.165V118.152C299.165 117.608 299.01 117.181 298.701 116.872C298.391 116.552 297.97 116.392 297.437 116.392C297.063 116.392 296.733 116.467 296.445 116.616C296.157 116.755 295.917 116.957 295.725 117.224V123H293.533ZM307.321 119.592C307.3 119.101 307.321 118.685 307.385 118.344C307.449 118.003 307.577 117.699 307.769 117.432C307.961 117.155 308.222 116.893 308.553 116.648L309.385 116.056C309.716 115.811 309.95 115.587 310.089 115.384C310.238 115.171 310.313 114.952 310.313 114.728C310.313 114.483 310.238 114.269 310.089 114.088C309.94 113.896 309.737 113.747 309.481 113.64C309.225 113.523 308.932 113.464 308.601 113.464C308.121 113.464 307.678 113.587 307.273 113.832C306.868 114.077 306.558 114.408 306.345 114.824L304.585 114.088C304.82 113.576 305.14 113.139 305.545 112.776C305.95 112.413 306.42 112.131 306.953 111.928C307.497 111.725 308.073 111.624 308.681 111.624C309.406 111.624 310.052 111.757 310.617 112.024C311.182 112.28 311.63 112.632 311.961 113.08C312.292 113.528 312.457 114.04 312.457 114.616C312.457 115 312.393 115.347 312.265 115.656C312.148 115.955 311.945 116.248 311.657 116.536C311.369 116.824 310.974 117.139 310.473 117.48L310.041 117.784C309.7 118.008 309.46 118.259 309.321 118.536C309.193 118.813 309.14 119.165 309.161 119.592H307.321ZM308.249 123.16C307.897 123.16 307.593 123.032 307.337 122.776C307.081 122.52 306.953 122.216 306.953 121.864C306.953 121.501 307.081 121.192 307.337 120.936C307.593 120.68 307.897 120.552 308.249 120.552C308.601 120.552 308.905 120.68 309.161 120.936C309.417 121.192 309.545 121.501 309.545 121.864C309.545 122.216 309.417 122.52 309.161 122.776C308.905 123.032 308.601 123.16 308.249 123.16Z" fill="white"/>
<path d="M152.08 354.936C153.504 354.936 154.752 355.288 155.824 355.992C156.912 356.68 157.752 357.648 158.344 358.896C158.952 360.144 159.256 361.592 159.256 363.24C159.256 365.032 158.92 366.608 158.248 367.968C157.592 369.328 156.664 370.384 155.464 371.136C154.264 371.888 152.864 372.264 151.264 372.264C150.4 372.264 149.528 372.12 148.648 371.832C147.784 371.528 147.064 371.128 146.488 370.632L148.264 368.352C148.728 368.72 149.224 368.992 149.752 369.168C150.296 369.344 150.88 369.432 151.504 369.432C152.496 369.432 153.328 369.192 154 368.712C154.688 368.216 155.208 367.504 155.56 366.576C155.928 365.632 156.12 364.504 156.136 363.192C155.576 363.96 154.904 364.56 154.12 364.992C153.352 365.408 152.528 365.616 151.648 365.616C150.56 365.616 149.592 365.4 148.744 364.968C147.896 364.536 147.232 363.936 146.752 363.168C146.272 362.384 146.032 361.496 146.032 360.504C146.032 359.432 146.288 358.48 146.8 357.648C147.328 356.816 148.048 356.16 148.96 355.68C149.888 355.184 150.928 354.936 152.08 354.936ZM152.176 363.168C152.912 363.168 153.6 363.016 154.24 362.712C154.896 362.392 155.472 361.96 155.968 361.416C155.824 360.648 155.576 359.984 155.224 359.424C154.872 358.848 154.44 358.408 153.928 358.104C153.432 357.784 152.864 357.624 152.224 357.624C151.632 357.624 151.096 357.744 150.616 357.984C150.152 358.224 149.784 358.56 149.512 358.992C149.24 359.408 149.104 359.888 149.104 360.432C149.104 360.96 149.232 361.432 149.488 361.848C149.76 362.264 150.128 362.592 150.592 362.832C151.056 363.056 151.584 363.168 152.176 363.168ZM172.906 372.264C171.45 372.264 170.162 371.904 169.042 371.184C167.938 370.448 167.074 369.432 166.45 368.136C165.842 366.824 165.538 365.312 165.538 363.6C165.538 361.872 165.842 360.36 166.45 359.064C167.074 357.768 167.938 356.76 169.042 356.04C170.162 355.304 171.45 354.936 172.906 354.936C174.378 354.936 175.666 355.304 176.77 356.04C177.89 356.76 178.754 357.768 179.362 359.064C179.986 360.36 180.298 361.872 180.298 363.6C180.298 365.312 179.986 366.824 179.362 368.136C178.754 369.432 177.89 370.448 176.77 371.184C175.666 371.904 174.378 372.264 172.906 372.264ZM172.906 369.408C173.77 369.408 174.514 369.176 175.138 368.712C175.762 368.248 176.242 367.576 176.578 366.696C176.93 365.816 177.106 364.784 177.106 363.6C177.106 362.4 176.93 361.368 176.578 360.504C176.242 359.624 175.762 358.952 175.138 358.488C174.514 358.024 173.77 357.792 172.906 357.792C172.058 357.792 171.322 358.024 170.698 358.488C170.074 358.952 169.586 359.624 169.234 360.504C168.898 361.368 168.73 362.4 168.73 363.6C168.73 364.784 168.898 365.816 169.234 366.696C169.586 367.576 170.074 368.248 170.698 368.712C171.322 369.176 172.058 369.408 172.906 369.408Z" fill="white"/>
<path d="M212.594 371V363.3L214.101 363.047V367.678L216.576 365.269H218.281L215.575 367.898L218.446 371H216.521L214.101 368.382V371H212.594ZM223.269 373.354C222.829 373.354 222.403 373.306 221.993 373.211C221.582 373.123 221.212 372.995 220.882 372.826L221.41 371.66C221.725 371.814 222.033 371.928 222.334 372.001C222.634 372.074 222.935 372.111 223.236 372.111C223.683 372.111 224.02 372.016 224.248 371.825C224.482 371.634 224.6 371.348 224.6 370.967V370.516C224.13 370.861 223.606 371.033 223.027 371.033C222.484 371.033 221.993 370.905 221.553 370.648C221.12 370.384 220.772 370.028 220.508 369.581C220.251 369.134 220.123 368.639 220.123 368.096C220.123 367.553 220.251 367.062 220.508 366.622C220.772 366.182 221.127 365.834 221.575 365.577C222.022 365.313 222.521 365.181 223.071 365.181C223.349 365.181 223.621 365.221 223.885 365.302C224.149 365.383 224.394 365.496 224.622 365.643V365.269H226.107V370.989C226.107 371.744 225.861 372.327 225.37 372.738C224.886 373.149 224.185 373.354 223.269 373.354ZM223.258 369.757C223.536 369.757 223.789 369.713 224.017 369.625C224.244 369.53 224.438 369.398 224.6 369.229V366.985C224.438 366.824 224.24 366.699 224.006 366.611C223.778 366.516 223.533 366.468 223.269 366.468C222.953 366.468 222.671 366.541 222.422 366.688C222.172 366.827 221.974 367.022 221.828 367.271C221.681 367.513 221.608 367.788 221.608 368.096C221.608 368.411 221.677 368.694 221.817 368.943C221.963 369.192 222.161 369.39 222.411 369.537C222.667 369.684 222.95 369.757 223.258 369.757Z" fill="white"/>
<path d="M140.594 418V410.3L142.101 410.047V418H140.594ZM145.315 418V410.3L146.822 410.047V412.731C147.276 412.372 147.812 412.192 148.428 412.192C148.97 412.192 149.462 412.324 149.902 412.588C150.342 412.852 150.69 413.208 150.947 413.655C151.211 414.095 151.343 414.59 151.343 415.14C151.343 415.69 151.211 416.189 150.947 416.636C150.683 417.076 150.327 417.428 149.88 417.692C149.432 417.949 148.934 418.077 148.384 418.077C148.098 418.077 147.819 418.037 147.548 417.956C147.276 417.875 147.027 417.758 146.8 417.604V418H145.315ZM148.186 416.801C148.501 416.801 148.783 416.728 149.033 416.581C149.289 416.434 149.491 416.236 149.638 415.987C149.784 415.738 149.858 415.455 149.858 415.14C149.858 414.825 149.784 414.542 149.638 414.293C149.491 414.036 149.289 413.838 149.033 413.699C148.783 413.552 148.501 413.479 148.186 413.479C147.907 413.479 147.65 413.527 147.416 413.622C147.188 413.71 146.99 413.846 146.822 414.029V416.262C146.983 416.431 147.181 416.563 147.416 416.658C147.658 416.753 147.914 416.801 148.186 416.801ZM156.434 418.11C155.906 418.11 155.418 418.044 154.971 417.912C154.524 417.773 154.135 417.575 153.805 417.318L154.553 416.317C154.883 416.537 155.198 416.702 155.499 416.812C155.807 416.922 156.111 416.977 156.412 416.977C156.749 416.977 157.017 416.922 157.215 416.812C157.42 416.695 157.523 416.544 157.523 416.361C157.523 416.214 157.464 416.097 157.347 416.009C157.237 415.921 157.057 415.859 156.808 415.822L155.708 415.657C155.136 415.569 154.703 415.386 154.41 415.107C154.117 414.821 153.97 414.447 153.97 413.985C153.97 413.611 154.065 413.292 154.256 413.028C154.454 412.757 154.729 412.548 155.081 412.401C155.44 412.247 155.866 412.17 156.357 412.17C156.775 412.17 157.182 412.229 157.578 412.346C157.981 412.463 158.359 412.643 158.711 412.885L157.985 413.864C157.67 413.666 157.369 413.523 157.083 413.435C156.797 413.347 156.507 413.303 156.214 413.303C155.943 413.303 155.723 413.354 155.554 413.457C155.393 413.56 155.312 413.695 155.312 413.864C155.312 414.018 155.371 414.139 155.488 414.227C155.605 414.315 155.807 414.377 156.093 414.414L157.182 414.579C157.754 414.66 158.19 414.843 158.491 415.129C158.792 415.408 158.942 415.771 158.942 416.218C158.942 416.585 158.832 416.911 158.612 417.197C158.392 417.476 158.095 417.699 157.721 417.868C157.347 418.029 156.918 418.11 156.434 418.11Z" fill="white"/>
<g filter="url(#filter1_d_1454_920)">
<rect x="182" y="405" width="36" height="20" rx="4" fill="#FF2E63"/>
</g>
<path d="M191.594 418V410.3L193.101 410.047V414.678L195.576 412.269H197.281L194.575 414.898L197.446 418H195.521L193.101 415.382V418H191.594ZM201.279 420.354C200.839 420.354 200.413 420.306 200.003 420.211C199.592 420.123 199.222 419.995 198.892 419.826L199.42 418.66C199.735 418.814 200.043 418.928 200.344 419.001C200.644 419.074 200.945 419.111 201.246 419.111C201.693 419.111 202.03 419.016 202.258 418.825C202.492 418.634 202.61 418.348 202.61 417.967V417.516C202.14 417.861 201.616 418.033 201.037 418.033C200.494 418.033 200.003 417.905 199.563 417.648C199.13 417.384 198.782 417.028 198.518 416.581C198.261 416.134 198.133 415.639 198.133 415.096C198.133 414.553 198.261 414.062 198.518 413.622C198.782 413.182 199.137 412.834 199.585 412.577C200.032 412.313 200.531 412.181 201.081 412.181C201.359 412.181 201.631 412.221 201.895 412.302C202.159 412.383 202.404 412.496 202.632 412.643V412.269H204.117V417.989C204.117 418.744 203.871 419.327 203.38 419.738C202.896 420.149 202.195 420.354 201.279 420.354ZM201.268 416.757C201.546 416.757 201.799 416.713 202.027 416.625C202.254 416.53 202.448 416.398 202.61 416.229V413.985C202.448 413.824 202.25 413.699 202.016 413.611C201.788 413.516 201.543 413.468 201.279 413.468C200.963 413.468 200.681 413.541 200.432 413.688C200.182 413.827 199.984 414.022 199.838 414.271C199.691 414.513 199.618 414.788 199.618 415.096C199.618 415.411 199.687 415.694 199.827 415.943C199.973 416.192 200.171 416.39 200.421 416.537C200.677 416.684 200.96 416.757 201.268 416.757Z" fill="white"/>
<path d="M23.693 690V682.3H27.312C27.8327 682.3 28.2873 682.388 28.676 682.564C29.0647 682.74 29.369 682.989 29.589 683.312C29.809 683.627 29.919 683.994 29.919 684.412C29.919 684.749 29.831 685.061 29.655 685.347C29.4863 685.626 29.2553 685.853 28.962 686.029C29.336 686.205 29.633 686.443 29.853 686.744C30.073 687.045 30.183 687.386 30.183 687.767C30.183 688.207 30.0693 688.596 29.842 688.933C29.622 689.27 29.3067 689.534 28.896 689.725C28.4927 689.908 28.0233 690 27.488 690H23.693ZM25.288 685.446H27.213C27.5577 685.446 27.829 685.365 28.027 685.204C28.2323 685.035 28.335 684.812 28.335 684.533C28.335 684.254 28.2323 684.034 28.027 683.873C27.829 683.704 27.5577 683.62 27.213 683.62H25.288V685.446ZM25.288 688.68H27.367C27.7337 688.68 28.027 688.592 28.247 688.416C28.467 688.233 28.577 687.991 28.577 687.69C28.577 687.382 28.467 687.14 28.247 686.964C28.027 686.781 27.7337 686.689 27.367 686.689H25.288V688.68ZM34.0705 690.099C33.6598 690.099 33.2968 690.026 32.9815 689.879C32.6661 689.725 32.4205 689.516 32.2445 689.252C32.0685 688.988 31.9805 688.684 31.9805 688.339C31.9805 687.789 32.1858 687.364 32.5965 687.063C33.0145 686.755 33.5865 686.601 34.3125 686.601C34.8111 686.601 35.2805 686.678 35.7205 686.832V686.414C35.7205 686.084 35.6178 685.835 35.4125 685.666C35.2071 685.497 34.9065 685.413 34.5105 685.413C34.2685 685.413 34.0081 685.453 33.7295 685.534C33.4508 685.607 33.1281 685.725 32.7615 685.886L32.2115 684.775C32.6661 684.57 33.0988 684.416 33.5095 684.313C33.9275 684.21 34.3455 684.159 34.7635 684.159C35.5335 684.159 36.1311 684.346 36.5565 684.72C36.9891 685.087 37.2055 685.607 37.2055 686.282V690H35.7205V689.593C35.4858 689.769 35.2328 689.897 34.9615 689.978C34.6901 690.059 34.3931 690.099 34.0705 690.099ZM33.4105 688.306C33.4105 688.526 33.5058 688.702 33.6965 688.834C33.8871 688.959 34.1401 689.021 34.4555 689.021C34.7048 689.021 34.9358 688.992 35.1485 688.933C35.3611 688.867 35.5518 688.772 35.7205 688.647V687.811C35.5371 687.738 35.3465 687.683 35.1485 687.646C34.9505 687.609 34.7378 687.591 34.5105 687.591C34.1658 687.591 33.8945 687.657 33.6965 687.789C33.5058 687.914 33.4105 688.086 33.4105 688.306ZM41.536 690.11C41.008 690.11 40.5204 690.044 40.073 689.912C39.6257 689.773 39.237 689.575 38.907 689.318L39.655 688.317C39.985 688.537 40.3004 688.702 40.601 688.812C40.909 688.922 41.2134 688.977 41.514 688.977C41.8514 688.977 42.119 688.922 42.317 688.812C42.5224 688.695 42.625 688.544 42.625 688.361C42.625 688.214 42.5664 688.097 42.449 688.009C42.339 687.921 42.1594 687.859 41.91 687.822L40.81 687.657C40.238 687.569 39.8054 687.386 39.512 687.107C39.2187 686.821 39.072 686.447 39.072 685.985C39.072 685.611 39.1674 685.292 39.358 685.028C39.556 684.757 39.831 684.548 40.183 684.401C40.5424 684.247 40.9677 684.17 41.459 684.17C41.877 684.17 42.284 684.229 42.68 684.346C43.0834 684.463 43.461 684.643 43.813 684.885L43.087 685.864C42.7717 685.666 42.471 685.523 42.185 685.435C41.899 685.347 41.6094 685.303 41.316 685.303C41.0447 685.303 40.8247 685.354 40.656 685.457C40.4947 685.56 40.414 685.695 40.414 685.864C40.414 686.018 40.4727 686.139 40.59 686.227C40.7074 686.315 40.909 686.377 41.195 686.414L42.284 686.579C42.856 686.66 43.2924 686.843 43.593 687.129C43.8937 687.408 44.044 687.771 44.044 688.218C44.044 688.585 43.934 688.911 43.714 689.197C43.494 689.476 43.197 689.699 42.823 689.868C42.449 690.029 42.02 690.11 41.536 690.11ZM48.6981 690.11C48.1261 690.11 47.6054 689.978 47.1361 689.714C46.6741 689.45 46.3074 689.094 46.0361 688.647C45.7647 688.2 45.6291 687.697 45.6291 687.14C45.6291 686.583 45.7574 686.08 46.0141 685.633C46.2781 685.186 46.6337 684.83 47.0811 684.566C47.5284 684.302 48.0271 684.17 48.5771 684.17C49.1271 684.17 49.6147 684.306 50.0401 684.577C50.4654 684.848 50.7991 685.215 51.0411 685.677C51.2904 686.139 51.4151 686.663 51.4151 687.25V687.646H47.1691C47.2351 687.873 47.3414 688.079 47.4881 688.262C47.6421 688.445 47.8291 688.588 48.0491 688.691C48.2764 688.794 48.5184 688.845 48.7751 688.845C49.0317 688.845 49.2664 688.805 49.4791 688.724C49.6991 688.643 49.8861 688.53 50.0401 688.383L51.0301 689.285C50.6781 689.571 50.3151 689.78 49.9411 689.912C49.5744 690.044 49.1601 690.11 48.6981 690.11ZM47.1471 686.568H49.9301C49.8787 686.341 49.7834 686.143 49.6441 685.974C49.5121 685.798 49.3507 685.662 49.1601 685.567C48.9767 685.464 48.7714 685.413 48.5441 685.413C48.3094 685.413 48.0967 685.461 47.9061 685.556C47.7154 685.651 47.5541 685.787 47.4221 685.963C47.2974 686.132 47.2057 686.333 47.1471 686.568ZM56.0773 690.077C55.5347 690.077 55.0433 689.945 54.6033 689.681C54.1633 689.417 53.8113 689.065 53.5473 688.625C53.2907 688.178 53.1623 687.679 53.1623 687.129C53.1623 686.579 53.2907 686.084 53.5473 685.644C53.8113 685.197 54.167 684.845 54.6143 684.588C55.0617 684.324 55.564 684.192 56.1213 684.192C56.4073 684.192 56.6823 684.232 56.9463 684.313C57.2103 684.386 57.456 684.496 57.6833 684.643V682.3L59.1903 682.047V690H57.7053V689.527C57.236 689.894 56.6933 690.077 56.0773 690.077ZM56.3193 688.79C56.598 688.79 56.851 688.746 57.0783 688.658C57.313 688.563 57.5147 688.423 57.6833 688.24V686.007C57.5147 685.838 57.313 685.706 57.0783 685.611C56.8437 685.516 56.5907 685.468 56.3193 685.468C56.004 685.468 55.718 685.541 55.4613 685.688C55.212 685.827 55.014 686.025 54.8673 686.282C54.7207 686.531 54.6473 686.814 54.6473 687.129C54.6473 687.444 54.7207 687.727 54.8673 687.976C55.014 688.225 55.212 688.423 55.4613 688.57C55.718 688.717 56.004 688.79 56.3193 688.79ZM67.4627 690.11C66.8907 690.11 66.3737 689.978 65.9117 689.714C65.4497 689.45 65.083 689.094 64.8117 688.647C64.5404 688.2 64.4047 687.697 64.4047 687.14C64.4047 686.583 64.5367 686.08 64.8007 685.633C65.072 685.178 65.4387 684.819 65.9007 684.555C66.37 684.291 66.8907 684.159 67.4627 684.159C68.0347 684.159 68.5517 684.291 69.0137 684.555C69.483 684.819 69.8497 685.178 70.1137 685.633C70.385 686.08 70.5207 686.583 70.5207 687.14C70.5207 687.697 70.385 688.2 70.1137 688.647C69.8497 689.094 69.4867 689.45 69.0247 689.714C68.5627 689.978 68.042 690.11 67.4627 690.11ZM67.4627 688.801C67.7634 688.801 68.031 688.728 68.2657 688.581C68.5077 688.434 68.6984 688.236 68.8377 687.987C68.9844 687.73 69.0577 687.448 69.0577 687.14C69.0577 686.825 68.9844 686.542 68.8377 686.293C68.6984 686.044 68.5077 685.846 68.2657 685.699C68.031 685.545 67.7634 685.468 67.4627 685.468C67.1694 685.468 66.9017 685.545 66.6597 685.699C66.4177 685.846 66.227 686.044 66.0877 686.293C65.9484 686.542 65.8787 686.825 65.8787 687.14C65.8787 687.448 65.9484 687.73 66.0877 687.987C66.227 688.236 66.4177 688.434 66.6597 688.581C66.9017 688.728 67.1694 688.801 67.4627 688.801ZM72.492 690V684.269H73.999V684.742C74.4317 684.353 74.967 684.159 75.605 684.159C76.0523 684.159 76.4447 684.258 76.782 684.456C77.1267 684.647 77.3943 684.914 77.585 685.259C77.7757 685.596 77.871 685.992 77.871 686.447V690H76.364V686.667C76.364 686.293 76.2577 686 76.045 685.787C75.8323 685.567 75.5427 685.457 75.176 685.457C74.9193 685.457 74.692 685.508 74.494 685.611C74.296 685.706 74.131 685.846 73.999 686.029V690H72.492ZM86.0324 690.088C85.3944 690.088 84.9104 689.945 84.5804 689.659C84.2577 689.366 84.0964 688.94 84.0964 688.383V685.523H82.9194V684.269H84.0964V682.806L85.6034 682.465V684.269H87.2424V685.523H85.6034V688.075C85.6034 688.339 85.6621 688.53 85.7794 688.647C85.8967 688.757 86.1021 688.812 86.3954 688.812C86.5421 688.812 86.6741 688.805 86.7914 688.79C86.9161 688.768 87.0517 688.731 87.1984 688.68V689.923C87.0444 689.974 86.8501 690.015 86.6154 690.044C86.3881 690.073 86.1937 690.088 86.0324 690.088ZM89.0225 690V682.3L90.5295 681.97V684.742C90.9622 684.353 91.4975 684.159 92.1355 684.159C92.5828 684.159 92.9752 684.258 93.3125 684.456C93.6572 684.647 93.9248 684.914 94.1155 685.259C94.3062 685.596 94.4015 685.992 94.4015 686.447V690H92.8945V686.667C92.8945 686.293 92.7882 686 92.5755 685.787C92.3628 685.567 92.0732 685.457 91.7065 685.457C91.4498 685.457 91.2225 685.508 91.0245 685.611C90.8265 685.706 90.6615 685.846 90.5295 686.029V690H89.0225ZM96.588 690V684.269H98.095V690H96.588ZM97.336 683.587C97.1014 683.587 96.8997 683.503 96.731 683.334C96.5624 683.165 96.478 682.964 96.478 682.729C96.478 682.487 96.5624 682.285 96.731 682.124C96.8997 681.955 97.1014 681.871 97.336 681.871C97.578 681.871 97.7797 681.955 97.941 682.124C98.1097 682.285 98.194 682.487 98.194 682.729C98.194 682.964 98.1097 683.165 97.941 683.334C97.7797 683.503 97.578 683.587 97.336 683.587ZM102.464 690.11C101.936 690.11 101.448 690.044 101.001 689.912C100.553 689.773 100.165 689.575 99.8346 689.318L100.583 688.317C100.913 688.537 101.228 688.702 101.529 688.812C101.837 688.922 102.141 688.977 102.442 688.977C102.779 688.977 103.047 688.922 103.245 688.812C103.45 688.695 103.553 688.544 103.553 688.361C103.553 688.214 103.494 688.097 103.377 688.009C103.267 687.921 103.087 687.859 102.838 687.822L101.738 687.657C101.166 687.569 100.733 687.386 100.44 687.107C100.146 686.821 99.9996 686.447 99.9996 685.985C99.9996 685.611 100.095 685.292 100.286 685.028C100.484 684.757 100.759 684.548 101.111 684.401C101.47 684.247 101.895 684.17 102.387 684.17C102.805 684.17 103.212 684.229 103.608 684.346C104.011 684.463 104.389 684.643 104.741 684.885L104.015 685.864C103.699 685.666 103.399 685.523 103.113 685.435C102.827 685.347 102.537 685.303 102.244 685.303C101.972 685.303 101.752 685.354 101.584 685.457C101.422 685.56 101.342 685.695 101.342 685.864C101.342 686.018 101.4 686.139 101.518 686.227C101.635 686.315 101.837 686.377 102.123 686.414L103.212 686.579C103.784 686.66 104.22 686.843 104.521 687.129C104.821 687.408 104.972 687.771 104.972 688.218C104.972 688.585 104.862 688.911 104.642 689.197C104.422 689.476 104.125 689.699 103.751 689.868C103.377 690.029 102.948 690.11 102.464 690.11ZM110.025 690V684.269H111.532V690H110.025ZM110.773 683.587C110.538 683.587 110.336 683.503 110.168 683.334C109.999 683.165 109.915 682.964 109.915 682.729C109.915 682.487 109.999 682.285 110.168 682.124C110.336 681.955 110.538 681.871 110.773 681.871C111.015 681.871 111.216 681.955 111.378 682.124C111.546 682.285 111.631 682.487 111.631 682.729C111.631 682.964 111.546 683.165 111.378 683.334C111.216 683.503 111.015 683.587 110.773 683.587ZM113.755 690V684.269H115.262V684.742C115.695 684.353 116.23 684.159 116.868 684.159C117.316 684.159 117.708 684.258 118.045 684.456C118.39 684.647 118.658 684.914 118.848 685.259C119.039 685.596 119.134 685.992 119.134 686.447V690H117.627V686.667C117.627 686.293 117.521 686 117.308 685.787C117.096 685.567 116.806 685.457 116.439 685.457C116.183 685.457 115.955 685.508 115.757 685.611C115.559 685.706 115.394 685.846 115.262 686.029V690H113.755ZM122.04 690V685.523H120.764V684.269H122.04V683.719C122.04 683.074 122.227 682.582 122.601 682.245C122.975 681.9 123.514 681.728 124.218 681.728C124.372 681.728 124.529 681.735 124.691 681.75C124.852 681.765 124.991 681.79 125.109 681.827V683.092C124.969 683.063 124.848 683.041 124.746 683.026C124.643 683.011 124.529 683.004 124.405 683.004C124.119 683.004 123.902 683.066 123.756 683.191C123.616 683.308 123.547 683.495 123.547 683.752V684.269H125.109V685.523H123.547V690H122.04ZM129.5 690.11C128.928 690.11 128.411 689.978 127.949 689.714C127.487 689.45 127.12 689.094 126.849 688.647C126.577 688.2 126.442 687.697 126.442 687.14C126.442 686.583 126.574 686.08 126.838 685.633C127.109 685.178 127.476 684.819 127.938 684.555C128.407 684.291 128.928 684.159 129.5 684.159C130.072 684.159 130.589 684.291 131.051 684.555C131.52 684.819 131.887 685.178 132.151 685.633C132.422 686.08 132.558 686.583 132.558 687.14C132.558 687.697 132.422 688.2 132.151 688.647C131.887 689.094 131.524 689.45 131.062 689.714C130.6 689.978 130.079 690.11 129.5 690.11ZM129.5 688.801C129.8 688.801 130.068 688.728 130.303 688.581C130.545 688.434 130.735 688.236 130.875 687.987C131.021 687.73 131.095 687.448 131.095 687.14C131.095 686.825 131.021 686.542 130.875 686.293C130.735 686.044 130.545 685.846 130.303 685.699C130.068 685.545 129.8 685.468 129.5 685.468C129.206 685.468 128.939 685.545 128.697 685.699C128.455 685.846 128.264 686.044 128.125 686.293C127.985 686.542 127.916 686.825 127.916 687.14C127.916 687.448 127.985 687.73 128.125 687.987C128.264 688.236 128.455 688.434 128.697 688.581C128.939 688.728 129.206 688.801 129.5 688.801ZM134.529 690V684.269H136.036V684.907C136.219 684.658 136.439 684.467 136.696 684.335C136.953 684.203 137.242 684.137 137.565 684.137C137.844 684.144 138.053 684.188 138.192 684.269V685.589C138.082 685.538 137.961 685.501 137.829 685.479C137.697 685.45 137.561 685.435 137.422 685.435C137.129 685.435 136.861 685.508 136.619 685.655C136.377 685.802 136.183 686.011 136.036 686.282V690H134.529ZM140.064 690V684.269H141.571V684.709C141.982 684.342 142.481 684.159 143.067 684.159C143.441 684.159 143.775 684.236 144.068 684.39C144.362 684.537 144.604 684.746 144.794 685.017C145.029 684.738 145.304 684.526 145.619 684.379C145.942 684.232 146.298 684.159 146.686 684.159C147.119 684.159 147.497 684.258 147.819 684.456C148.149 684.647 148.406 684.914 148.589 685.259C148.78 685.596 148.875 685.992 148.875 686.447V690H147.379V686.667C147.379 686.293 147.28 686 147.082 685.787C146.884 685.567 146.62 685.457 146.29 685.457C146.063 685.457 145.854 685.505 145.663 685.6C145.48 685.695 145.322 685.838 145.19 686.029C145.198 686.095 145.205 686.161 145.212 686.227C145.22 686.293 145.223 686.366 145.223 686.447V690H143.716V686.667C143.716 686.293 143.617 686 143.419 685.787C143.229 685.567 142.968 685.457 142.638 685.457C142.411 685.457 142.206 685.501 142.022 685.589C141.846 685.677 141.696 685.809 141.571 685.985V690H140.064ZM152.893 690.099C152.483 690.099 152.12 690.026 151.804 689.879C151.489 689.725 151.243 689.516 151.067 689.252C150.891 688.988 150.803 688.684 150.803 688.339C150.803 687.789 151.009 687.364 151.419 687.063C151.837 686.755 152.409 686.601 153.135 686.601C153.634 686.601 154.103 686.678 154.543 686.832V686.414C154.543 686.084 154.441 685.835 154.235 685.666C154.03 685.497 153.729 685.413 153.333 685.413C153.091 685.413 152.831 685.453 152.552 685.534C152.274 685.607 151.951 685.725 151.584 685.886L151.034 684.775C151.489 684.57 151.922 684.416 152.332 684.313C152.75 684.21 153.168 684.159 153.586 684.159C154.356 684.159 154.954 684.346 155.379 684.72C155.812 685.087 156.028 685.607 156.028 686.282V690H154.543V689.593C154.309 689.769 154.056 689.897 153.784 689.978C153.513 690.059 153.216 690.099 152.893 690.099ZM152.233 688.306C152.233 688.526 152.329 688.702 152.519 688.834C152.71 688.959 152.963 689.021 153.278 689.021C153.528 689.021 153.759 688.992 153.971 688.933C154.184 688.867 154.375 688.772 154.543 688.647V687.811C154.36 687.738 154.169 687.683 153.971 687.646C153.773 687.609 153.561 687.591 153.333 687.591C152.989 687.591 152.717 687.657 152.519 687.789C152.329 687.914 152.233 688.086 152.233 688.306ZM160.77 690.088C160.132 690.088 159.648 689.945 159.318 689.659C158.995 689.366 158.834 688.94 158.834 688.383V685.523H157.657V684.269H158.834V682.806L160.341 682.465V684.269H161.98V685.523H160.341V688.075C160.341 688.339 160.399 688.53 160.517 688.647C160.634 688.757 160.839 688.812 161.133 688.812C161.279 688.812 161.411 688.805 161.529 688.79C161.653 688.768 161.789 688.731 161.936 688.68V689.923C161.782 689.974 161.587 690.015 161.353 690.044C161.125 690.073 160.931 690.088 160.77 690.088ZM163.76 690V684.269H165.267V690H163.76ZM164.508 683.587C164.273 683.587 164.071 683.503 163.903 683.334C163.734 683.165 163.65 682.964 163.65 682.729C163.65 682.487 163.734 682.285 163.903 682.124C164.071 681.955 164.273 681.871 164.508 681.871C164.75 681.871 164.951 681.955 165.113 682.124C165.281 682.285 165.366 682.487 165.366 682.729C165.366 682.964 165.281 683.165 165.113 683.334C164.951 683.503 164.75 683.587 164.508 683.587ZM170.284 690.11C169.712 690.11 169.195 689.978 168.733 689.714C168.271 689.45 167.905 689.094 167.633 688.647C167.362 688.2 167.226 687.697 167.226 687.14C167.226 686.583 167.358 686.08 167.622 685.633C167.894 685.178 168.26 684.819 168.722 684.555C169.192 684.291 169.712 684.159 170.284 684.159C170.856 684.159 171.373 684.291 171.835 684.555C172.305 684.819 172.671 685.178 172.935 685.633C173.207 686.08 173.342 686.583 173.342 687.14C173.342 687.697 173.207 688.2 172.935 688.647C172.671 689.094 172.308 689.45 171.846 689.714C171.384 689.978 170.864 690.11 170.284 690.11ZM170.284 688.801C170.585 688.801 170.853 688.728 171.087 688.581C171.329 688.434 171.52 688.236 171.659 687.987C171.806 687.73 171.879 687.448 171.879 687.14C171.879 686.825 171.806 686.542 171.659 686.293C171.52 686.044 171.329 685.846 171.087 685.699C170.853 685.545 170.585 685.468 170.284 685.468C169.991 685.468 169.723 685.545 169.481 685.699C169.239 685.846 169.049 686.044 168.909 686.293C168.77 686.542 168.7 686.825 168.7 687.14C168.7 687.448 168.77 687.73 168.909 687.987C169.049 688.236 169.239 688.434 169.481 688.581C169.723 688.728 169.991 688.801 170.284 688.801ZM175.314 690V684.269H176.821V684.742C177.253 684.353 177.789 684.159 178.427 684.159C178.874 684.159 179.266 684.258 179.604 684.456C179.948 684.647 180.216 684.914 180.407 685.259C180.597 685.596 180.693 685.992 180.693 686.447V690H179.186V686.667C179.186 686.293 179.079 686 178.867 685.787C178.654 685.567 178.364 685.457 177.998 685.457C177.741 685.457 177.514 685.508 177.316 685.611C177.118 685.706 176.953 685.846 176.821 686.029V690H175.314ZM187.226 690L185.653 684.269H187.083L188.029 687.965L189.173 684.269H190.438L191.571 687.976L192.517 684.269H193.925L192.341 690H190.9L189.789 686.337L188.678 690H187.226ZM198.377 690.11C197.805 690.11 197.284 689.978 196.815 689.714C196.353 689.45 195.986 689.094 195.715 688.647C195.443 688.2 195.308 687.697 195.308 687.14C195.308 686.583 195.436 686.08 195.693 685.633C195.957 685.186 196.312 684.83 196.76 684.566C197.207 684.302 197.706 684.17 198.256 684.17C198.806 684.17 199.293 684.306 199.719 684.577C200.144 684.848 200.478 685.215 200.72 685.677C200.969 686.139 201.094 686.663 201.094 687.25V687.646H196.848C196.914 687.873 197.02 688.079 197.167 688.262C197.321 688.445 197.508 688.588 197.728 688.691C197.955 688.794 198.197 688.845 198.454 688.845C198.71 688.845 198.945 688.805 199.158 688.724C199.378 688.643 199.565 688.53 199.719 688.383L200.709 689.285C200.357 689.571 199.994 689.78 199.62 689.912C199.253 690.044 198.839 690.11 198.377 690.11ZM196.826 686.568H199.609C199.557 686.341 199.462 686.143 199.323 685.974C199.191 685.798 199.029 685.662 198.839 685.567C198.655 685.464 198.45 685.413 198.223 685.413C197.988 685.413 197.775 685.461 197.585 685.556C197.394 685.651 197.233 685.787 197.101 685.963C196.976 686.132 196.884 686.333 196.826 686.568ZM209.059 690.11C208.494 690.11 207.985 689.982 207.53 689.725C207.075 689.461 206.716 689.105 206.452 688.658C206.188 688.203 206.056 687.697 206.056 687.14C206.056 686.575 206.188 686.069 206.452 685.622C206.716 685.175 207.075 684.819 207.53 684.555C207.985 684.291 208.494 684.159 209.059 684.159C209.514 684.159 209.946 684.247 210.357 684.423C210.775 684.599 211.134 684.852 211.435 685.182L210.511 686.161C210.298 685.926 210.075 685.754 209.84 685.644C209.613 685.527 209.363 685.468 209.092 685.468C208.799 685.468 208.535 685.541 208.3 685.688C208.073 685.835 207.889 686.033 207.75 686.282C207.618 686.531 207.552 686.817 207.552 687.14C207.552 687.448 207.618 687.73 207.75 687.987C207.889 688.236 208.08 688.434 208.322 688.581C208.564 688.72 208.832 688.79 209.125 688.79C209.382 688.79 209.62 688.739 209.84 688.636C210.067 688.526 210.284 688.365 210.489 688.152L211.391 689.098C211.098 689.413 210.746 689.663 210.335 689.846C209.924 690.022 209.499 690.11 209.059 690.11ZM215.045 690.099C214.635 690.099 214.272 690.026 213.956 689.879C213.641 689.725 213.395 689.516 213.219 689.252C213.043 688.988 212.955 688.684 212.955 688.339C212.955 687.789 213.161 687.364 213.571 687.063C213.989 686.755 214.561 686.601 215.287 686.601C215.786 686.601 216.255 686.678 216.695 686.832V686.414C216.695 686.084 216.593 685.835 216.387 685.666C216.182 685.497 215.881 685.413 215.485 685.413C215.243 685.413 214.983 685.453 214.704 685.534C214.426 685.607 214.103 685.725 213.736 685.886L213.186 684.775C213.641 684.57 214.074 684.416 214.484 684.313C214.902 684.21 215.32 684.159 215.738 684.159C216.508 684.159 217.106 684.346 217.531 684.72C217.964 685.087 218.18 685.607 218.18 686.282V690H216.695V689.593C216.461 689.769 216.208 689.897 215.936 689.978C215.665 690.059 215.368 690.099 215.045 690.099ZM214.385 688.306C214.385 688.526 214.481 688.702 214.671 688.834C214.862 688.959 215.115 689.021 215.43 689.021C215.68 689.021 215.911 688.992 216.123 688.933C216.336 688.867 216.527 688.772 216.695 688.647V687.811C216.512 687.738 216.321 687.683 216.123 687.646C215.925 687.609 215.713 687.591 215.485 687.591C215.141 687.591 214.869 687.657 214.671 687.789C214.481 687.914 214.385 688.086 214.385 688.306ZM220.366 690V682.3L221.873 682.047V690H220.366ZM226.836 690.11C226.271 690.11 225.761 689.982 225.307 689.725C224.852 689.461 224.493 689.105 224.229 688.658C223.965 688.203 223.833 687.697 223.833 687.14C223.833 686.575 223.965 686.069 224.229 685.622C224.493 685.175 224.852 684.819 225.307 684.555C225.761 684.291 226.271 684.159 226.836 684.159C227.29 684.159 227.723 684.247 228.134 684.423C228.552 684.599 228.911 684.852 229.212 685.182L228.288 686.161C228.075 685.926 227.851 685.754 227.617 685.644C227.389 685.527 227.14 685.468 226.869 685.468C226.575 685.468 226.311 685.541 226.077 685.688C225.849 685.835 225.666 686.033 225.527 686.282C225.395 686.531 225.329 686.817 225.329 687.14C225.329 687.448 225.395 687.73 225.527 687.987C225.666 688.236 225.857 688.434 226.099 688.581C226.341 688.72 226.608 688.79 226.902 688.79C227.158 688.79 227.397 688.739 227.617 688.636C227.844 688.526 228.06 688.365 228.266 688.152L229.168 689.098C228.874 689.413 228.522 689.663 228.112 689.846C227.701 690.022 227.276 690.11 226.836 690.11ZM233.218 690.11C232.778 690.11 232.386 690.015 232.041 689.824C231.704 689.626 231.436 689.355 231.238 689.01C231.047 688.665 230.952 688.269 230.952 687.822V684.269H232.459V687.602C232.459 687.969 232.565 688.262 232.778 688.482C232.998 688.702 233.291 688.812 233.658 688.812C233.907 688.812 234.131 688.764 234.329 688.669C234.534 688.566 234.703 688.423 234.835 688.24V684.269H236.342V690H234.835V689.538C234.395 689.919 233.856 690.11 233.218 690.11ZM238.561 690V682.3L240.068 682.047V690H238.561ZM244.118 690.099C243.707 690.099 243.344 690.026 243.029 689.879C242.714 689.725 242.468 689.516 242.292 689.252C242.116 688.988 242.028 688.684 242.028 688.339C242.028 687.789 242.233 687.364 242.644 687.063C243.062 686.755 243.634 686.601 244.36 686.601C244.859 686.601 245.328 686.678 245.768 686.832V686.414C245.768 686.084 245.665 685.835 245.46 685.666C245.255 685.497 244.954 685.413 244.558 685.413C244.316 685.413 244.056 685.453 243.777 685.534C243.498 685.607 243.176 685.725 242.809 685.886L242.259 684.775C242.714 684.57 243.146 684.416 243.557 684.313C243.975 684.21 244.393 684.159 244.811 684.159C245.581 684.159 246.179 684.346 246.604 684.72C247.037 685.087 247.253 685.607 247.253 686.282V690H245.768V689.593C245.533 689.769 245.28 689.897 245.009 689.978C244.738 690.059 244.441 690.099 244.118 690.099ZM243.458 688.306C243.458 688.526 243.553 688.702 243.744 688.834C243.935 688.959 244.188 689.021 244.503 689.021C244.752 689.021 244.983 688.992 245.196 688.933C245.409 688.867 245.599 688.772 245.768 688.647V687.811C245.585 687.738 245.394 687.683 245.196 687.646C244.998 687.609 244.785 687.591 244.558 687.591C244.213 687.591 243.942 687.657 243.744 687.789C243.553 687.914 243.458 688.086 243.458 688.306ZM251.994 690.088C251.356 690.088 250.872 689.945 250.542 689.659C250.22 689.366 250.058 688.94 250.058 688.383V685.523H248.881V684.269H250.058V682.806L251.565 682.465V684.269H253.204V685.523H251.565V688.075C251.565 688.339 251.624 688.53 251.741 688.647C251.859 688.757 252.064 688.812 252.357 688.812C252.504 688.812 252.636 688.805 252.753 688.79C252.878 688.768 253.014 688.731 253.16 688.68V689.923C253.006 689.974 252.812 690.015 252.577 690.044C252.35 690.073 252.156 690.088 251.994 690.088ZM257.725 690.11C257.153 690.11 256.632 689.978 256.163 689.714C255.701 689.45 255.334 689.094 255.063 688.647C254.792 688.2 254.656 687.697 254.656 687.14C254.656 686.583 254.784 686.08 255.041 685.633C255.305 685.186 255.661 684.83 256.108 684.566C256.555 684.302 257.054 684.17 257.604 684.17C258.154 684.17 258.642 684.306 259.067 684.577C259.492 684.848 259.826 685.215 260.068 685.677C260.317 686.139 260.442 686.663 260.442 687.25V687.646H256.196C256.262 687.873 256.368 688.079 256.515 688.262C256.669 688.445 256.856 688.588 257.076 688.691C257.303 688.794 257.545 688.845 257.802 688.845C258.059 688.845 258.293 688.805 258.506 688.724C258.726 688.643 258.913 688.53 259.067 688.383L260.057 689.285C259.705 689.571 259.342 689.78 258.968 689.912C258.601 690.044 258.187 690.11 257.725 690.11ZM256.174 686.568H258.957C258.906 686.341 258.81 686.143 258.671 685.974C258.539 685.798 258.378 685.662 258.187 685.567C258.004 685.464 257.798 685.413 257.571 685.413C257.336 685.413 257.124 685.461 256.933 685.556C256.742 685.651 256.581 685.787 256.449 685.963C256.324 686.132 256.233 686.333 256.174 686.568ZM266.229 692.365C266.097 692.365 265.969 692.358 265.844 692.343C265.727 692.336 265.628 692.325 265.547 692.31V691.012C265.694 691.041 265.87 691.056 266.075 691.056C266.625 691.056 267.007 690.796 267.219 690.275L267.307 690.055L265.074 684.269H266.735L268.165 688.174L269.782 684.269H271.41L268.77 690.462C268.572 690.924 268.356 691.294 268.121 691.573C267.887 691.852 267.615 692.053 267.307 692.178C267.007 692.303 266.647 692.365 266.229 692.365ZM275.695 690.11C275.123 690.11 274.606 689.978 274.144 689.714C273.682 689.45 273.315 689.094 273.044 688.647C272.773 688.2 272.637 687.697 272.637 687.14C272.637 686.583 272.769 686.08 273.033 685.633C273.304 685.178 273.671 684.819 274.133 684.555C274.602 684.291 275.123 684.159 275.695 684.159C276.267 684.159 276.784 684.291 277.246 684.555C277.715 684.819 278.082 685.178 278.346 685.633C278.617 686.08 278.753 686.583 278.753 687.14C278.753 687.697 278.617 688.2 278.346 688.647C278.082 689.094 277.719 689.45 277.257 689.714C276.795 689.978 276.274 690.11 275.695 690.11ZM275.695 688.801C275.996 688.801 276.263 688.728 276.498 688.581C276.74 688.434 276.931 688.236 277.07 687.987C277.217 687.73 277.29 687.448 277.29 687.14C277.29 686.825 277.217 686.542 277.07 686.293C276.931 686.044 276.74 685.846 276.498 685.699C276.263 685.545 275.996 685.468 275.695 685.468C275.402 685.468 275.134 685.545 274.892 685.699C274.65 685.846 274.459 686.044 274.32 686.293C274.181 686.542 274.111 686.825 274.111 687.14C274.111 687.448 274.181 687.73 274.32 687.987C274.459 688.236 274.65 688.434 274.892 688.581C275.134 688.728 275.402 688.801 275.695 688.801ZM282.946 690.11C282.506 690.11 282.114 690.015 281.769 689.824C281.432 689.626 281.164 689.355 280.966 689.01C280.775 688.665 280.68 688.269 280.68 687.822V684.269H282.187V687.602C282.187 687.969 282.293 688.262 282.506 688.482C282.726 688.702 283.019 688.812 283.386 688.812C283.635 688.812 283.859 688.764 284.057 688.669C284.262 688.566 284.431 688.423 284.563 688.24V684.269H286.07V690H284.563V689.538C284.123 689.919 283.584 690.11 282.946 690.11ZM288.29 690V684.269H289.797V684.907C289.98 684.658 290.2 684.467 290.457 684.335C290.713 684.203 291.003 684.137 291.326 684.137C291.604 684.144 291.813 684.188 291.953 684.269V685.589C291.843 685.538 291.722 685.501 291.59 685.479C291.458 685.45 291.322 685.435 291.183 685.435C290.889 685.435 290.622 685.508 290.38 685.655C290.138 685.802 289.943 686.011 289.797 686.282V690H288.29ZM297.083 692.244V684.269H298.568V684.742C299.037 684.375 299.58 684.192 300.196 684.192C300.738 684.192 301.23 684.324 301.67 684.588C302.11 684.852 302.458 685.208 302.715 685.655C302.979 686.095 303.111 686.59 303.111 687.14C303.111 687.69 302.979 688.189 302.715 688.636C302.451 689.076 302.095 689.428 301.648 689.692C301.2 689.949 300.702 690.077 300.152 690.077C299.866 690.077 299.591 690.04 299.327 689.967C299.063 689.886 298.817 689.773 298.59 689.626V692.244H297.083ZM299.954 688.801C300.269 688.801 300.551 688.728 300.801 688.581C301.057 688.434 301.259 688.236 301.406 687.987C301.552 687.738 301.626 687.455 301.626 687.14C301.626 686.825 301.552 686.542 301.406 686.293C301.259 686.036 301.057 685.838 300.801 685.699C300.551 685.552 300.269 685.479 299.954 685.479C299.675 685.479 299.418 685.527 299.184 685.622C298.956 685.71 298.758 685.846 298.59 686.029V688.262C298.751 688.431 298.949 688.563 299.184 688.658C299.426 688.753 299.682 688.801 299.954 688.801ZM307.872 690.11C307.3 690.11 306.78 689.978 306.31 689.714C305.848 689.45 305.482 689.094 305.21 688.647C304.939 688.2 304.803 687.697 304.803 687.14C304.803 686.583 304.932 686.08 305.188 685.633C305.452 685.186 305.808 684.83 306.255 684.566C306.703 684.302 307.201 684.17 307.751 684.17C308.301 684.17 308.789 684.306 309.214 684.577C309.64 684.848 309.973 685.215 310.215 685.677C310.465 686.139 310.589 686.663 310.589 687.25V687.646H306.343C306.409 687.873 306.516 688.079 306.662 688.262C306.816 688.445 307.003 688.588 307.223 688.691C307.451 688.794 307.693 688.845 307.949 688.845C308.206 688.845 308.441 688.805 308.653 688.724C308.873 688.643 309.06 688.53 309.214 688.383L310.204 689.285C309.852 689.571 309.489 689.78 309.115 689.912C308.749 690.044 308.334 690.11 307.872 690.11ZM306.321 686.568H309.104C309.053 686.341 308.958 686.143 308.818 685.974C308.686 685.798 308.525 685.662 308.334 685.567C308.151 685.464 307.946 685.413 307.718 685.413C307.484 685.413 307.271 685.461 307.08 685.556C306.89 685.651 306.728 685.787 306.596 685.963C306.472 686.132 306.38 686.333 306.321 686.568ZM312.558 690V684.269H314.065V684.907C314.248 684.658 314.468 684.467 314.725 684.335C314.981 684.203 315.271 684.137 315.594 684.137C315.872 684.144 316.081 684.188 316.221 684.269V685.589C316.111 685.538 315.99 685.501 315.858 685.479C315.726 685.45 315.59 685.435 315.451 685.435C315.157 685.435 314.89 685.508 314.648 685.655C314.406 685.802 314.211 686.011 314.065 686.282V690H312.558ZM320.302 690.11C319.774 690.11 319.287 690.044 318.839 689.912C318.392 689.773 318.003 689.575 317.673 689.318L318.421 688.317C318.751 688.537 319.067 688.702 319.367 688.812C319.675 688.922 319.98 688.977 320.28 688.977C320.618 688.977 320.885 688.922 321.083 688.812C321.289 688.695 321.391 688.544 321.391 688.361C321.391 688.214 321.333 688.097 321.215 688.009C321.105 687.921 320.926 687.859 320.676 687.822L319.576 687.657C319.004 687.569 318.572 687.386 318.278 687.107C317.985 686.821 317.838 686.447 317.838 685.985C317.838 685.611 317.934 685.292 318.124 685.028C318.322 684.757 318.597 684.548 318.949 684.401C319.309 684.247 319.734 684.17 320.225 684.17C320.643 684.17 321.05 684.229 321.446 684.346C321.85 684.463 322.227 684.643 322.579 684.885L321.853 685.864C321.538 685.666 321.237 685.523 320.951 685.435C320.665 685.347 320.376 685.303 320.082 685.303C319.811 685.303 319.591 685.354 319.422 685.457C319.261 685.56 319.18 685.695 319.18 685.864C319.18 686.018 319.239 686.139 319.356 686.227C319.474 686.315 319.675 686.377 319.961 686.414L321.05 686.579C321.622 686.66 322.059 686.843 322.359 687.129C322.66 687.408 322.81 687.771 322.81 688.218C322.81 688.585 322.7 688.911 322.48 689.197C322.26 689.476 321.963 689.699 321.589 689.868C321.215 690.029 320.786 690.11 320.302 690.11ZM327.453 690.11C326.881 690.11 326.364 689.978 325.902 689.714C325.44 689.45 325.074 689.094 324.802 688.647C324.531 688.2 324.395 687.697 324.395 687.14C324.395 686.583 324.527 686.08 324.791 685.633C325.063 685.178 325.429 684.819 325.891 684.555C326.361 684.291 326.881 684.159 327.453 684.159C328.025 684.159 328.542 684.291 329.004 684.555C329.474 684.819 329.84 685.178 330.104 685.633C330.376 686.08 330.511 686.583 330.511 687.14C330.511 687.697 330.376 688.2 330.104 688.647C329.84 689.094 329.477 689.45 329.015 689.714C328.553 689.978 328.033 690.11 327.453 690.11ZM327.453 688.801C327.754 688.801 328.022 688.728 328.256 688.581C328.498 688.434 328.689 688.236 328.828 687.987C328.975 687.73 329.048 687.448 329.048 687.14C329.048 686.825 328.975 686.542 328.828 686.293C328.689 686.044 328.498 685.846 328.256 685.699C328.022 685.545 327.754 685.468 327.453 685.468C327.16 685.468 326.892 685.545 326.65 685.699C326.408 685.846 326.218 686.044 326.078 686.293C325.939 686.542 325.869 686.825 325.869 687.14C325.869 687.448 325.939 687.73 326.078 687.987C326.218 688.236 326.408 688.434 326.65 688.581C326.892 688.728 327.16 688.801 327.453 688.801ZM332.483 690V684.269H333.99V684.742C334.422 684.353 334.958 684.159 335.596 684.159C336.043 684.159 336.435 684.258 336.773 684.456C337.117 684.647 337.385 684.914 337.576 685.259C337.766 685.596 337.862 685.992 337.862 686.447V690H336.355V686.667C336.355 686.293 336.248 686 336.036 685.787C335.823 685.567 335.533 685.457 335.167 685.457C334.91 685.457 334.683 685.508 334.485 685.611C334.287 685.706 334.122 685.846 333.99 686.029V690H332.483ZM341.874 690.099C341.463 690.099 341.1 690.026 340.785 689.879C340.47 689.725 340.224 689.516 340.048 689.252C339.872 688.988 339.784 688.684 339.784 688.339C339.784 687.789 339.989 687.364 340.4 687.063C340.818 686.755 341.39 686.601 342.116 686.601C342.615 686.601 343.084 686.678 343.524 686.832V686.414C343.524 686.084 343.421 685.835 343.216 685.666C343.011 685.497 342.71 685.413 342.314 685.413C342.072 685.413 341.812 685.453 341.533 685.534C341.254 685.607 340.932 685.725 340.565 685.886L340.015 684.775C340.47 684.57 340.902 684.416 341.313 684.313C341.731 684.21 342.149 684.159 342.567 684.159C343.337 684.159 343.935 684.346 344.36 684.72C344.793 685.087 345.009 685.607 345.009 686.282V690H343.524V689.593C343.289 689.769 343.036 689.897 342.765 689.978C342.494 690.059 342.197 690.099 341.874 690.099ZM341.214 688.306C341.214 688.526 341.309 688.702 341.5 688.834C341.691 688.959 341.944 689.021 342.259 689.021C342.508 689.021 342.739 688.992 342.952 688.933C343.165 688.867 343.355 688.772 343.524 688.647V687.811C343.341 687.738 343.15 687.683 342.952 687.646C342.754 687.609 342.541 687.591 342.314 687.591C341.969 687.591 341.698 687.657 341.5 687.789C341.309 687.914 341.214 688.086 341.214 688.306ZM347.195 690V682.3L348.702 682.047V690H347.195ZM124.589 705V699.269H126.096V699.907C126.279 699.658 126.499 699.467 126.756 699.335C127.012 699.203 127.302 699.137 127.625 699.137C127.903 699.144 128.112 699.188 128.252 699.269V700.589C128.142 700.538 128.021 700.501 127.889 700.479C127.757 700.45 127.621 700.435 127.482 700.435C127.188 700.435 126.921 700.508 126.679 700.655C126.437 700.802 126.242 701.011 126.096 701.282V705H124.589ZM132.703 705.11C132.131 705.11 131.611 704.978 131.141 704.714C130.679 704.45 130.313 704.094 130.041 703.647C129.77 703.2 129.634 702.697 129.634 702.14C129.634 701.583 129.763 701.08 130.019 700.633C130.283 700.186 130.639 699.83 131.086 699.566C131.534 699.302 132.032 699.17 132.582 699.17C133.132 699.17 133.62 699.306 134.045 699.577C134.471 699.848 134.804 700.215 135.046 700.677C135.296 701.139 135.42 701.663 135.42 702.25V702.646H131.174C131.24 702.873 131.347 703.079 131.493 703.262C131.647 703.445 131.834 703.588 132.054 703.691C132.282 703.794 132.524 703.845 132.78 703.845C133.037 703.845 133.272 703.805 133.484 703.724C133.704 703.643 133.891 703.53 134.045 703.383L135.035 704.285C134.683 704.571 134.32 704.78 133.946 704.912C133.58 705.044 133.165 705.11 132.703 705.11ZM131.152 701.568H133.935C133.884 701.341 133.789 701.143 133.649 700.974C133.517 700.798 133.356 700.662 133.165 700.567C132.982 700.464 132.777 700.413 132.549 700.413C132.315 700.413 132.102 700.461 131.911 700.556C131.721 700.651 131.559 700.787 131.427 700.963C131.303 701.132 131.211 701.333 131.152 701.568ZM140.171 705.11C139.606 705.11 139.096 704.982 138.642 704.725C138.187 704.461 137.828 704.105 137.564 703.658C137.3 703.203 137.168 702.697 137.168 702.14C137.168 701.575 137.3 701.069 137.564 700.622C137.828 700.175 138.187 699.819 138.642 699.555C139.096 699.291 139.606 699.159 140.171 699.159C140.625 699.159 141.058 699.247 141.469 699.423C141.887 699.599 142.246 699.852 142.547 700.182L141.623 701.161C141.41 700.926 141.186 700.754 140.952 700.644C140.724 700.527 140.475 700.468 140.204 700.468C139.91 700.468 139.646 700.541 139.412 700.688C139.184 700.835 139.001 701.033 138.862 701.282C138.73 701.531 138.664 701.817 138.664 702.14C138.664 702.448 138.73 702.73 138.862 702.987C139.001 703.236 139.192 703.434 139.434 703.581C139.676 703.72 139.943 703.79 140.237 703.79C140.493 703.79 140.732 703.739 140.952 703.636C141.179 703.526 141.395 703.365 141.601 703.152L142.503 704.098C142.209 704.413 141.857 704.663 141.447 704.846C141.036 705.022 140.611 705.11 140.171 705.11ZM146.964 705.11C146.392 705.11 145.875 704.978 145.413 704.714C144.951 704.45 144.584 704.094 144.313 703.647C144.042 703.2 143.906 702.697 143.906 702.14C143.906 701.583 144.038 701.08 144.302 700.633C144.573 700.178 144.94 699.819 145.402 699.555C145.871 699.291 146.392 699.159 146.964 699.159C147.536 699.159 148.053 699.291 148.515 699.555C148.984 699.819 149.351 700.178 149.615 700.633C149.886 701.08 150.022 701.583 150.022 702.14C150.022 702.697 149.886 703.2 149.615 703.647C149.351 704.094 148.988 704.45 148.526 704.714C148.064 704.978 147.543 705.11 146.964 705.11ZM146.964 703.801C147.265 703.801 147.532 703.728 147.767 703.581C148.009 703.434 148.2 703.236 148.339 702.987C148.486 702.73 148.559 702.448 148.559 702.14C148.559 701.825 148.486 701.542 148.339 701.293C148.2 701.044 148.009 700.846 147.767 700.699C147.532 700.545 147.265 700.468 146.964 700.468C146.671 700.468 146.403 700.545 146.161 700.699C145.919 700.846 145.728 701.044 145.589 701.293C145.45 701.542 145.38 701.825 145.38 702.14C145.38 702.448 145.45 702.73 145.589 702.987C145.728 703.236 145.919 703.434 146.161 703.581C146.403 703.728 146.671 703.801 146.964 703.801ZM151.993 705V699.269H153.5V699.709C153.911 699.342 154.41 699.159 154.996 699.159C155.37 699.159 155.704 699.236 155.997 699.39C156.291 699.537 156.533 699.746 156.723 700.017C156.958 699.738 157.233 699.526 157.548 699.379C157.871 699.232 158.227 699.159 158.615 699.159C159.048 699.159 159.426 699.258 159.748 699.456C160.078 699.647 160.335 699.914 160.518 700.259C160.709 700.596 160.804 700.992 160.804 701.447V705H159.308V701.667C159.308 701.293 159.209 701 159.011 700.787C158.813 700.567 158.549 700.457 158.219 700.457C157.992 700.457 157.783 700.505 157.592 700.6C157.409 700.695 157.251 700.838 157.119 701.029C157.127 701.095 157.134 701.161 157.141 701.227C157.149 701.293 157.152 701.366 157.152 701.447V705H155.645V701.667C155.645 701.293 155.546 701 155.348 700.787C155.158 700.567 154.897 700.457 154.567 700.457C154.34 700.457 154.135 700.501 153.951 700.589C153.775 700.677 153.625 700.809 153.5 700.985V705H151.993ZM162.996 705V699.269H164.503V699.709C164.914 699.342 165.413 699.159 165.999 699.159C166.373 699.159 166.707 699.236 167 699.39C167.294 699.537 167.536 699.746 167.726 700.017C167.961 699.738 168.236 699.526 168.551 699.379C168.874 699.232 169.23 699.159 169.618 699.159C170.051 699.159 170.429 699.258 170.751 699.456C171.081 699.647 171.338 699.914 171.521 700.259C171.712 700.596 171.807 700.992 171.807 701.447V705H170.311V701.667C170.311 701.293 170.212 701 170.014 700.787C169.816 700.567 169.552 700.457 169.222 700.457C168.995 700.457 168.786 700.505 168.595 700.6C168.412 700.695 168.254 700.838 168.122 701.029C168.13 701.095 168.137 701.161 168.144 701.227C168.152 701.293 168.155 701.366 168.155 701.447V705H166.648V701.667C166.648 701.293 166.549 701 166.351 700.787C166.161 700.567 165.9 700.457 165.57 700.457C165.343 700.457 165.138 700.501 164.954 700.589C164.778 700.677 164.628 700.809 164.503 700.985V705H162.996ZM176.804 705.11C176.232 705.11 175.712 704.978 175.242 704.714C174.78 704.45 174.414 704.094 174.142 703.647C173.871 703.2 173.735 702.697 173.735 702.14C173.735 701.583 173.864 701.08 174.12 700.633C174.384 700.186 174.74 699.83 175.187 699.566C175.635 699.302 176.133 699.17 176.683 699.17C177.233 699.17 177.721 699.306 178.146 699.577C178.572 699.848 178.905 700.215 179.147 700.677C179.397 701.139 179.521 701.663 179.521 702.25V702.646H175.275C175.341 702.873 175.448 703.079 175.594 703.262C175.748 703.445 175.935 703.588 176.155 703.691C176.383 703.794 176.625 703.845 176.881 703.845C177.138 703.845 177.373 703.805 177.585 703.724C177.805 703.643 177.992 703.53 178.146 703.383L179.136 704.285C178.784 704.571 178.421 704.78 178.047 704.912C177.681 705.044 177.266 705.11 176.804 705.11ZM175.253 701.568H178.036C177.985 701.341 177.89 701.143 177.75 700.974C177.618 700.798 177.457 700.662 177.266 700.567C177.083 700.464 176.878 700.413 176.65 700.413C176.416 700.413 176.203 700.461 176.012 700.556C175.822 700.651 175.66 700.787 175.528 700.963C175.404 701.132 175.312 701.333 175.253 701.568ZM181.49 705V699.269H182.997V699.742C183.429 699.353 183.965 699.159 184.603 699.159C185.05 699.159 185.442 699.258 185.78 699.456C186.124 699.647 186.392 699.914 186.583 700.259C186.773 700.596 186.869 700.992 186.869 701.447V705H185.362V701.667C185.362 701.293 185.255 701 185.043 700.787C184.83 700.567 184.54 700.457 184.174 700.457C183.917 700.457 183.69 700.508 183.492 700.611C183.294 700.706 183.129 700.846 182.997 701.029V705H181.49ZM191.706 705.077C191.163 705.077 190.672 704.945 190.232 704.681C189.792 704.417 189.44 704.065 189.176 703.625C188.919 703.178 188.791 702.679 188.791 702.129C188.791 701.579 188.919 701.084 189.176 700.644C189.44 700.197 189.796 699.845 190.243 699.588C190.69 699.324 191.193 699.192 191.75 699.192C192.036 699.192 192.311 699.232 192.575 699.313C192.839 699.386 193.085 699.496 193.312 699.643V697.3L194.819 697.047V705H193.334V704.527C192.865 704.894 192.322 705.077 191.706 705.077ZM191.948 703.79C192.227 703.79 192.48 703.746 192.707 703.658C192.942 703.563 193.143 703.423 193.312 703.24V701.007C193.143 700.838 192.942 700.706 192.707 700.611C192.472 700.516 192.219 700.468 191.948 700.468C191.633 700.468 191.347 700.541 191.09 700.688C190.841 700.827 190.643 701.025 190.496 701.282C190.349 701.531 190.276 701.814 190.276 702.129C190.276 702.444 190.349 702.727 190.496 702.976C190.643 703.225 190.841 703.423 191.09 703.57C191.347 703.717 191.633 703.79 191.948 703.79ZM198.866 705.099C198.455 705.099 198.092 705.026 197.777 704.879C197.461 704.725 197.216 704.516 197.04 704.252C196.864 703.988 196.776 703.684 196.776 703.339C196.776 702.789 196.981 702.364 197.392 702.063C197.81 701.755 198.382 701.601 199.108 701.601C199.606 701.601 200.076 701.678 200.516 701.832V701.414C200.516 701.084 200.413 700.835 200.208 700.666C200.002 700.497 199.702 700.413 199.306 700.413C199.064 700.413 198.803 700.453 198.525 700.534C198.246 700.607 197.923 700.725 197.557 700.886L197.007 699.775C197.461 699.57 197.894 699.416 198.305 699.313C198.723 699.21 199.141 699.159 199.559 699.159C200.329 699.159 200.926 699.346 201.352 699.72C201.784 700.087 202.001 700.607 202.001 701.282V705H200.516V704.593C200.281 704.769 200.028 704.897 199.757 704.978C199.485 705.059 199.188 705.099 198.866 705.099ZM198.206 703.306C198.206 703.526 198.301 703.702 198.492 703.834C198.682 703.959 198.935 704.021 199.251 704.021C199.5 704.021 199.731 703.992 199.944 703.933C200.156 703.867 200.347 703.772 200.516 703.647V702.811C200.332 702.738 200.142 702.683 199.944 702.646C199.746 702.609 199.533 702.591 199.306 702.591C198.961 702.591 198.69 702.657 198.492 702.789C198.301 702.914 198.206 703.086 198.206 703.306ZM206.742 705.088C206.104 705.088 205.62 704.945 205.29 704.659C204.967 704.366 204.806 703.94 204.806 703.383V700.523H203.629V699.269H204.806V697.806L206.313 697.465V699.269H207.952V700.523H206.313V703.075C206.313 703.339 206.372 703.53 206.489 703.647C206.606 703.757 206.812 703.812 207.105 703.812C207.252 703.812 207.384 703.805 207.501 703.79C207.626 703.768 207.761 703.731 207.908 703.68V704.923C207.754 704.974 207.56 705.015 207.325 705.044C207.098 705.073 206.903 705.088 206.742 705.088ZM209.732 705V699.269H211.239V705H209.732ZM210.48 698.587C210.245 698.587 210.044 698.503 209.875 698.334C209.706 698.165 209.622 697.964 209.622 697.729C209.622 697.487 209.706 697.285 209.875 697.124C210.044 696.955 210.245 696.871 210.48 696.871C210.722 696.871 210.924 696.955 211.085 697.124C211.254 697.285 211.338 697.487 211.338 697.729C211.338 697.964 211.254 698.165 211.085 698.334C210.924 698.503 210.722 698.587 210.48 698.587ZM216.257 705.11C215.685 705.11 215.168 704.978 214.706 704.714C214.244 704.45 213.877 704.094 213.606 703.647C213.334 703.2 213.199 702.697 213.199 702.14C213.199 701.583 213.331 701.08 213.595 700.633C213.866 700.178 214.233 699.819 214.695 699.555C215.164 699.291 215.685 699.159 216.257 699.159C216.829 699.159 217.346 699.291 217.808 699.555C218.277 699.819 218.644 700.178 218.908 700.633C219.179 701.08 219.315 701.583 219.315 702.14C219.315 702.697 219.179 703.2 218.908 703.647C218.644 704.094 218.281 704.45 217.819 704.714C217.357 704.978 216.836 705.11 216.257 705.11ZM216.257 703.801C216.557 703.801 216.825 703.728 217.06 703.581C217.302 703.434 217.492 703.236 217.632 702.987C217.778 702.73 217.852 702.448 217.852 702.14C217.852 701.825 217.778 701.542 217.632 701.293C217.492 701.044 217.302 700.846 217.06 700.699C216.825 700.545 216.557 700.468 216.257 700.468C215.963 700.468 215.696 700.545 215.454 700.699C215.212 700.846 215.021 701.044 214.882 701.293C214.742 701.542 214.673 701.825 214.673 702.14C214.673 702.448 214.742 702.73 214.882 702.987C215.021 703.236 215.212 703.434 215.454 703.581C215.696 703.728 215.963 703.801 216.257 703.801ZM221.286 705V699.269H222.793V699.742C223.226 699.353 223.761 699.159 224.399 699.159C224.846 699.159 225.239 699.258 225.576 699.456C225.921 699.647 226.188 699.914 226.379 700.259C226.57 700.596 226.665 700.992 226.665 701.447V705H225.158V701.667C225.158 701.293 225.052 701 224.839 700.787C224.626 700.567 224.337 700.457 223.97 700.457C223.713 700.457 223.486 700.508 223.288 700.611C223.09 700.706 222.925 700.846 222.793 701.029V705H221.286ZM230.996 705.11C230.468 705.11 229.981 705.044 229.533 704.912C229.086 704.773 228.697 704.575 228.367 704.318L229.115 703.317C229.445 703.537 229.761 703.702 230.061 703.812C230.369 703.922 230.674 703.977 230.974 703.977C231.312 703.977 231.579 703.922 231.777 703.812C231.983 703.695 232.085 703.544 232.085 703.361C232.085 703.214 232.027 703.097 231.909 703.009C231.799 702.921 231.62 702.859 231.37 702.822L230.27 702.657C229.698 702.569 229.266 702.386 228.972 702.107C228.679 701.821 228.532 701.447 228.532 700.985C228.532 700.611 228.628 700.292 228.818 700.028C229.016 699.757 229.291 699.548 229.643 699.401C230.003 699.247 230.428 699.17 230.919 699.17C231.337 699.17 231.744 699.229 232.14 699.346C232.544 699.463 232.921 699.643 233.273 699.885L232.547 700.864C232.232 700.666 231.931 700.523 231.645 700.435C231.359 700.347 231.07 700.303 230.776 700.303C230.505 700.303 230.285 700.354 230.116 700.457C229.955 700.56 229.874 700.695 229.874 700.864C229.874 701.018 229.933 701.139 230.05 701.227C230.168 701.315 230.369 701.377 230.655 701.414L231.744 701.579C232.316 701.66 232.753 701.843 233.053 702.129C233.354 702.408 233.504 702.771 233.504 703.218C233.504 703.585 233.394 703.911 233.174 704.197C232.954 704.476 232.657 704.699 232.283 704.868C231.909 705.029 231.48 705.11 230.996 705.11Z" fill="white"/>
</g>
<defs>
<filter id="filter0_d_1454_920" x="21" y="752" width="333" height="55" filterUnits="userSpaceOnUse" color-interpolation-filters="sRGB">
<feFlood flood-opacity="0" result="BackgroundImageFix"/>
<feColorMatrix in="SourceAlpha" type="matrix" values="0 0 0 0 0 0 0 0 0 0 0 0 0 0 0 0 0 0 127 0" result="hardAlpha"/>
<feOffset dy="4"/>
<feGaussianBlur stdDeviation="2"/>
<feComposite in2="hardAlpha" operator="out"/>
<feColorMatrix type="matrix" values="0 0 0 0 0 0 0 0 0 0 0 0 0 0 0 0 0 0 0.25 0"/>
<feBlend mode="normal" in2="BackgroundImageFix" result="effect1_dropShadow_1454_920"/>
<feBlend mode="normal" in="SourceGraphic" in2="effect1_dropShadow_1454_920" result="shape"/>
</filter>
<filter id="filter1_d_1454_920" x="178" y="405" width="44" height="28" filterUnits="userSpaceOnUse" color-interpolation-filters="sRGB">
<feFlood flood-opacity="0" result="BackgroundImageFix"/>
<feColorMatrix in="SourceAlpha" type="matrix" values="0 0 0 0 0 0 0 0 0 0 0 0 0 0 0 0 0 0 127 0" result="hardAlpha"/>
<feOffset dy="4"/>
<feGaussianBlur stdDeviation="2"/>
<feComposite in2="hardAlpha" operator="out"/>
<feColorMatrix type="matrix" values="0 0 0 0 0 0 0 0 0 0 0 0 0 0 0 0 0 0 0.25 0"/>
<feBlend mode="normal" in2="BackgroundImageFix" result="effect1_dropShadow_1454_920"/>
<feBlend mode="normal" in="SourceGraphic" in2="effect1_dropShadow_1454_920" result="shape"/>
</filter>
<clipPath id="clip0_1454_920">
<rect width="375" height="822" fill="white"/>
</clipPath>
</defs>
</svg>
